# Converted from a320src/A320-family-master/Engines/Models/cfm56.ac by simengine's ac3d_to_obj tool
# NOTE: materials/textures are not exported — see tools/ac3d_to_obj/main.cpp LIMITATIONS.
v 2.16438 0.412091 -0.004328
v 2.16438 -0.412091 -0.004328
v 2.16438 -0.412091 0.004328
v 2.16438 0.412091 0.004328
v 2.28274 0.412091 -0.004328
v 2.28274 -0.412092 -0.004328
v 2.28274 -0.412091 0.004328
v 2.28274 0.412091 0.004328
v 2.28931 -0.289512 0
v 2.35298 -0.15881 0
v 2.28931 -0.267474 0.110791
v 2.35298 -0.146722 0.060774
v 2.35298 -0.112296 0.112296
v 2.28931 -0.204716 0.204716
v 2.28931 -0.110791 0.267474
v 2.35298 -0.060774 0.146722
v 2.35298 0 0.15881
v 2.28931 0 0.289512
v 2.28931 0.110791 0.267474
v 2.35298 0.060774 0.146722
v 2.35298 0.112296 0.112296
v 2.28931 0.204716 0.204716
v 2.28931 0.267474 0.110791
v 2.35298 0.146722 0.060774
v 2.35298 0.15881 0
v 2.28931 0.289512 0
v 2.28931 0.267474 -0.110791
v 2.35298 0.146721 -0.060774
v 2.35298 0.112296 -0.112296
v 2.28931 0.204716 -0.204716
v 2.28931 0.110791 -0.267474
v 2.35298 0.060774 -0.146721
v 2.35298 0 -0.15881
v 2.28931 0 -0.289512
v 2.28931 -0.110791 -0.267474
v 2.35298 -0.060774 -0.146721
v 2.35298 -0.112296 -0.112296
v 2.28931 -0.204716 -0.204716
v 2.28931 -0.267474 -0.110791
v 2.35298 -0.146721 -0.060774
v 2.37046 0.022522 -0.022522
v 2.37046 0.012189 -0.029426
v 2.37046 0 -0.031851
v 2.37046 -0.012189 -0.029426
v 2.37046 -0.022522 -0.022522
v 2.37046 -0.029426 -0.012189
v 2.37046 -0.031851 0
v 2.37046 -0.029426 0.012189
v 2.37046 -0.022522 0.022522
v 2.37046 -0.012189 0.029426
v 2.37046 0 0.031851
v 2.37046 0.012189 0.029426
v 2.37046 0.022522 0.022522
v 2.37046 0.029426 0.012189
v 2.37046 0.031851 0
v 2.37046 0.029426 -0.012189
v 2.39312 0.022522 -0.022522
v 2.39312 0.012189 -0.029426
v 2.39312 0 -0.031851
v 2.39312 -0.012189 -0.029426
v 2.39312 -0.022522 -0.022522
v 2.39312 -0.029426 -0.012189
v 2.39312 -0.031851 0
v 2.39312 -0.029426 0.012189
v 2.39312 -0.022522 0.022522
v 2.39312 -0.012189 0.029426
v 2.39312 0 0.031851
v 2.39312 0.012189 0.029426
v 2.39312 0.022522 0.022522
v 2.39312 0.029426 0.012189
v 2.39312 0.031851 0
v 2.39312 0.029426 -0.012189
v 2.39312 0 0
v 1.40748 -0.19492 0.080739
v 1.40748 -0.149185 0.149185
v 1.40748 -0.080739 0.19492
v 1.40748 0 0.21098
v 1.40748 0.080739 0.19492
v 1.40748 0.149185 0.149185
v 1.40748 0.19492 0.080738
v 1.40748 0.21098 0
v 1.40748 0.19492 -0.080739
v 1.40748 0.149185 -0.149185
v 1.40748 0.080738 -0.19492
v 1.40748 0 -0.21098
v 1.40748 -0.080739 -0.19492
v 1.40748 -0.149185 -0.149185
v 1.40748 -0.19492 -0.080738
v 1.40748 -0.21098 0
v 2.28274 0.412091 0.004328
v 2.28274 -0.412091 0.004328
v 2.28274 -0.412092 -0.004328
v 2.28274 0.412091 -0.004328
v 2.16438 0.412091 0.004328
v 2.16438 -0.412091 0.004328
v 2.16438 -0.412091 -0.004328
v 2.16438 0.412091 -0.004328
v 2.16438 0.379066 -0.161699
v 2.16438 -0.382379 0.153702
v 2.16438 -0.379066 0.161699
v 2.16438 0.382379 -0.153702
v 2.28274 0.379066 -0.161699
v 2.28274 -0.382379 0.153702
v 2.28274 -0.379066 0.161699
v 2.28274 0.382379 -0.153702
v 2.28274 0.294453 -0.288332
v 2.28274 -0.288332 0.294453
v 2.28274 -0.294453 0.288332
v 2.28274 0.288332 -0.294453
v 2.16438 0.294453 -0.288332
v 2.16438 -0.288332 0.294453
v 2.16438 -0.294453 0.288332
v 2.16438 0.288332 -0.294453
v 2.16438 0.153701 -0.382379
v 2.16438 -0.161699 0.379066
v 2.16438 -0.153701 0.382379
v 2.16438 0.161699 -0.379066
v 2.28274 0.153701 -0.382379
v 2.28274 -0.1617 0.379066
v 2.28274 -0.153701 0.382379
v 2.28274 0.161699 -0.379066
v 2.28274 0.004328 -0.412091
v 2.28274 0.004328 0.412091
v 2.28274 -0.004328 0.412091
v 2.28274 -0.004328 -0.412091
v 2.16438 0.004328 -0.412091
v 2.16438 0.004328 0.412091
v 2.16438 -0.004328 0.412091
v 2.16438 -0.004328 -0.412091
v 2.16438 -0.161699 -0.379066
v 2.16438 0.153701 0.382379
v 2.16438 0.161699 0.379066
v 2.16438 -0.153702 -0.382379
v 2.28274 -0.161699 -0.379066
v 2.28274 0.153702 0.382379
v 2.28274 0.161699 0.379066
v 2.28274 -0.153701 -0.382379
v 2.28274 -0.288332 -0.294453
v 2.28274 0.294453 0.288332
v 2.28274 0.288332 0.294453
v 2.28274 -0.294453 -0.288332
v 2.16438 -0.288332 -0.294453
v 2.16438 0.294453 0.288332
v 2.16438 0.288332 0.294453
v 2.16438 -0.294453 -0.288332
v 2.16438 -0.382379 -0.153701
v 2.16438 0.379066 0.161699
v 2.16438 0.382379 0.153701
v 2.16438 -0.379066 -0.161699
v 2.28274 -0.382379 -0.153701
v 2.28274 0.379066 0.1617
v 2.28274 0.382379 0.153701
v 2.28274 -0.379066 -0.161699
v 2.28274 -0.412091 -0.004328
v 2.28274 0.412091 -0.004328
v 2.28274 0.412091 0.004328
v 2.28274 -0.412091 0.004329
v 2.16438 -0.412091 -0.004328
v 2.16438 0.412091 -0.004328
v 2.16438 0.412091 0.004328
v 2.16438 -0.412091 0.004328
v 2.16438 -0.379066 0.161699
v 2.16438 0.382379 -0.153701
v 2.16438 0.379066 -0.161699
v 2.16438 -0.382379 0.153702
v 2.28274 -0.379066 0.161699
v 2.28274 0.382379 -0.153702
v 2.28274 0.379066 -0.161699
v 2.28274 -0.382379 0.153701
v 2.28274 -0.294453 0.288332
v 2.28274 0.288332 -0.294453
v 2.28274 0.294453 -0.288332
v 2.28274 -0.288332 0.294453
v 2.16438 -0.294453 0.288332
v 2.16438 0.288332 -0.294453
v 2.16438 0.294453 -0.288332
v 2.16438 -0.288332 0.294453
v 2.16438 -0.153701 0.382379
v 2.16438 0.161699 -0.379066
v 2.16438 0.153701 -0.382379
v 2.16438 -0.161699 0.379066
v 2.28274 -0.153701 0.382379
v 2.28274 0.161699 -0.379066
v 2.28274 0.153701 -0.382379
v 2.28274 -0.161699 0.379066
v 2.28274 -0.004328 0.412091
v 2.28274 -0.004328 -0.412091
v 2.28274 0.004328 -0.412091
v 2.28274 0.004329 0.412091
v 2.16438 -0.004328 0.412091
v 2.16438 -0.004328 -0.412091
v 2.16438 0.004328 -0.412091
v 2.16438 0.004328 0.412091
v 2.16438 0.161699 0.379066
v 2.16438 -0.153701 -0.382379
v 2.16438 -0.161699 -0.379066
v 2.16438 0.153702 0.382379
v 2.28274 0.161699 0.379066
v 2.28274 -0.153702 -0.382379
v 2.28274 -0.161699 -0.379066
v 2.28274 0.153701 0.382379
v 2.28274 0.288332 0.294453
v 2.28274 -0.294453 -0.288332
v 2.28274 -0.288332 -0.294453
v 2.28274 0.294453 0.288331
v 2.16438 0.288332 0.294453
v 2.16438 -0.294453 -0.288332
v 2.16438 -0.288332 -0.294453
v 2.16438 0.294453 0.288332
v 2.16438 0.382379 0.153701
v 2.16438 -0.379066 -0.161699
v 2.16438 -0.382379 -0.153701
v 2.16438 0.379066 0.161699
v 2.28274 0.382379 0.153701
v 2.28274 -0.379066 -0.161699
v 2.28274 -0.382379 -0.153701
v 2.28274 0.379066 0.161699
v 0.866764 -0.715442 -0.423067
v 0.866764 0.716431 0.403625
v 0.866764 0.707765 0.418635
v 0.866764 -0.724108 -0.408057
v 0.665092 -0.715442 -0.423067
v 0.665092 0.716431 0.403625
v 0.665092 0.707765 0.418635
v 0.665092 -0.724108 -0.408057
v 0.866764 -0.408057 -0.724108
v 0.866764 0.418635 0.707765
v 0.866764 0.403625 0.716431
v 0.866764 -0.423067 -0.715442
v 0.665092 -0.408057 -0.724108
v 0.665092 0.418635 0.707765
v 0.665092 0.403625 0.716431
v 0.665092 -0.423067 -0.715442
v 0.866764 -0.831125 -0.025736
v 0.866764 0.82226 -0.025736
v 0.866764 0.82226 0.025735
v 0.866764 -0.831125 0.025735
v 0.665092 -0.831125 -0.025736
v 0.665092 0.82226 -0.025736
v 0.665092 0.82226 0.025735
v 0.665092 -0.831125 0.025735
v 0.866764 0.724108 -0.408057
v 0.866764 -0.707765 0.418635
v 0.866764 -0.716431 0.403625
v 0.866764 0.715442 -0.423067
v 0.665092 0.724108 -0.408057
v 0.665092 -0.707766 0.418635
v 0.665092 -0.716431 0.403625
v 0.665092 0.715442 -0.423067
v 0.866764 -0.025736 0.831125
v 0.866764 -0.025736 -0.82226
v 0.866764 0.025735 -0.82226
v 0.866764 0.025735 0.831125
v 0.665092 -0.025736 0.831124
v 0.665092 -0.025736 -0.82226
v 0.665092 0.025735 -0.82226
v 0.665092 0.025735 0.831125
v 0.866764 0.423067 -0.715442
v 0.866764 -0.403625 0.716431
v 0.866764 -0.418635 0.707765
v 0.866764 0.408057 -0.724108
v 0.665092 0.423067 -0.715442
v 0.665093 -0.403625 0.716431
v 0.665092 -0.418635 0.707765
v 0.665092 0.408057 -0.724108
v 0.313946 0.359006 -0.359006
v 0.313946 0.194293 -0.469064
v 0.313946 0 -0.507711
v 0.313946 -0.194293 -0.469064
v 0.313946 -0.359006 -0.359006
v 0.313946 -0.469064 -0.194293
v 0.313946 -0.507711 0
v 0.313946 -0.469064 0.194293
v 0.313946 -0.359006 0.359006
v 0.313946 -0.194293 0.469064
v 0.313946 0 0.507711
v 0.313946 0.194293 0.469064
v 0.313946 0.359006 0.359006
v 0.313946 0.469064 0.194292
v 0.313946 0.507711 0
v 0.313946 0.469064 -0.194293
v 0.511795 0.366469 -0.366469
v 0.511795 0.198331 -0.478814
v 0.511795 0 -0.518265
v 0.511795 -0.198331 -0.478814
v 0.511795 -0.366469 -0.366469
v 0.511795 -0.478814 -0.198331
v 0.511795 -0.518265 0
v 0.511795 -0.478814 0.198331
v 0.511795 -0.366469 0.366469
v 0.511795 -0.198332 0.478814
v 0.511795 0 0.518265
v 0.511795 0.198331 0.478814
v 0.511795 0.366469 0.366469
v 0.511795 0.478815 0.198331
v 0.511795 0.518265 0
v 0.511795 0.478814 -0.198332
v 0.605986 0.193625 -0.467453
v 0.605986 0.357773 -0.357773
v 0.605987 0 -0.505967
v 0.605987 -0.193625 -0.467453
v 0.605987 -0.357773 -0.357773
v 0.605987 -0.467453 -0.193625
v 0.605987 -0.505967 0
v 0.605986 -0.467453 0.193625
v 0.605986 -0.357773 0.357773
v 0.605986 -0.193625 0.467453
v 0.605986 0 0.505967
v 0.605986 0.193625 0.467453
v 0.605986 0.357773 0.357773
v 0.605986 0.467453 0.193625
v 0.605986 0.505967 0
v 0.605986 0.467453 -0.193626
v 0.888603 0.352584 -0.352584
v 0.888603 0.190817 -0.460674
v 0.888603 0 -0.49863
v 0.888603 -0.190817 -0.460674
v 0.888603 -0.352584 -0.352584
v 0.888603 -0.460674 -0.190817
v 0.888603 -0.49863 0
v 0.888603 -0.460674 0.190817
v 0.888603 -0.352584 0.352584
v 0.888603 -0.190817 0.460674
v 0.888603 0 0.49863
v 0.888604 0.190817 0.460674
v 0.888604 0.352584 0.352584
v 0.888604 0.460674 0.190817
v 0.888603 0.49863 0
v 0.888603 0.460673 -0.190818
v 0.888603 0.265703 -0.265703
v 0.888603 0.143797 -0.347157
v 0.888603 0 -0.37576
v 0.888603 -0.143797 -0.347157
v 0.888603 -0.265703 -0.265703
v 0.888603 -0.347157 -0.143797
v 0.888603 -0.37576 0
v 0.888603 -0.347157 0.143797
v 0.888603 -0.265703 0.265703
v 0.888603 -0.143797 0.347157
v 0.888603 0 0.37576
v 0.888603 0.143797 0.347157
v 0.888603 0.265703 0.265703
v 0.888603 0.347157 0.143797
v 0.888603 0.37576 0
v 0.888603 0.347157 -0.143798
v 1.23079 0.102904 -0.250681
v 1.23079 0.190931 -0.191863
v 1.23079 -0.000931 -0.271335
v 1.23079 -0.104766 -0.250681
v 1.23079 -0.192794 -0.191863
v 1.23079 -0.251612 -0.103835
v 1.23079 -0.272266 0
v 1.23079 -0.251612 0.103835
v 1.23079 -0.192794 0.191863
v 1.23079 -0.104766 0.250681
v 1.23079 -0.000931 0.271335
v 1.23079 0.102904 0.250681
v 1.23079 0.190932 0.191863
v 1.23079 0.24975 0.103835
v 1.23079 0.270404 0
v 1.23079 0.249749 -0.103836
v 1.77106 0.17044 -0.411479
v 1.77106 0.314932 -0.314932
v 1.77106 0 -0.445381
v 1.77106 -0.17044 -0.411479
v 1.77106 -0.314932 -0.314932
v 1.77106 -0.411479 -0.17044
v 1.77106 -0.445381 0
v 1.77106 -0.411479 0.17044
v 1.77106 -0.314932 0.314932
v 1.77106 -0.17044 0.411479
v 1.77106 0 0.445381
v 1.77106 0.17044 0.411479
v 1.77106 0.314932 0.314932
v 1.77106 0.411479 0.17044
v 1.77106 0.445381 0
v 1.77106 0.411478 -0.17044
v 2.11358 0.192621 -0.465028
v 2.11358 0.355917 -0.355917
v 2.11358 0 -0.503343
v 2.11358 -0.192621 -0.465028
v 2.11358 -0.355917 -0.355917
v 2.11358 -0.465028 -0.192621
v 2.11358 -0.503343 0
v 2.11358 -0.465028 0.192621
v 2.11358 -0.355917 0.355917
v 2.11358 -0.192621 0.465028
v 2.11358 0 0.503343
v 2.11358 0.192621 0.465028
v 2.11358 0.355917 0.355917
v 2.11358 0.465028 0.192621
v 2.11358 0.503343 0
v 2.11358 0.465028 -0.192621
v 2.27778 0.324672 -0.324672
v 2.27778 0.175711 -0.424205
v 2.27778 0 -0.459156
v 2.27778 -0.175711 -0.424205
v 2.27778 -0.324672 -0.324672
v 2.27778 -0.424205 -0.175711
v 2.27778 -0.459156 0
v 2.27778 -0.424205 0.175711
v 2.27778 -0.324672 0.324672
v 2.27778 -0.175711 0.424205
v 2.27778 0 0.459156
v 2.27778 0.175711 0.424205
v 2.27778 0.324672 0.324672
v 2.27778 0.424205 0.175711
v 2.27778 0.459156 0
v 2.27778 0.424204 -0.175712
v 0.313946 0.000224 -0.000134
v 2.29482 0.270324 -0.270324
v 2.29482 0.146298 -0.353195
v 2.29482 0 -0.382296
v 2.29482 -0.146298 -0.353195
v 2.29482 -0.270324 -0.270324
v 2.29482 -0.353195 -0.146298
v 2.29482 -0.382296 0
v 2.29482 -0.353195 0.146298
v 2.29482 -0.270324 0.270324
v 2.29482 -0.146298 0.353195
v 2.29482 0 0.382296
v 2.29482 0.146298 0.353195
v 2.29482 0.270324 0.270324
v 2.29482 0.353195 0.146298
v 2.29482 0.382296 0
v 2.29482 0.353195 -0.146299
v 1.48162 0.00113 0.001315
v 1.48162 0.240004 -0.099413
v 1.48162 0.259779 0
v 1.48162 0.240004 0.099413
v 1.48162 0.183691 0.183691
v 1.48162 0.099413 0.240004
v 1.48162 0 0.259779
v 1.48162 -0.099413 0.240004
v 1.48162 -0.183691 0.183691
v 1.48162 -0.240004 0.099413
v 1.48162 -0.259779 0
v 1.48162 -0.240004 -0.099413
v 1.48162 -0.183691 -0.183691
v 1.48162 -0.099413 -0.240004
v 1.48162 0 -0.259779
v 1.48162 0.099413 -0.240004
v 1.48162 0.183691 -0.183691
v 0.138982 0.454574 0.454574
v 0.138981 0.246013 0.593929
v 0.138982 0 0.642864
v 0.138982 -0.246014 0.593929
v 0.138982 -0.454574 0.454574
v 0.138982 -0.593929 0.246014
v 0.138982 -0.642864 0
v 0.138982 -0.593929 -0.246013
v 0.138982 -0.454574 -0.454574
v 0.138982 -0.246014 -0.593929
v 0.138982 0 -0.642864
v 0.138982 0.246014 -0.593929
v 0.138982 0.454574 -0.454574
v 0.138982 0.593929 -0.246013
v 0.138982 0.642864 0
v 0.138981 0.593929 0.246014
v 0.226482 0.454574 0.454574
v 0.226482 0.246013 0.593929
v 0.226482 0 0.642864
v 0.226482 -0.246014 0.593929
v 0.226482 -0.454574 0.454574
v 0.226482 -0.593929 0.246014
v 0.226482 -0.642864 0
v 0.226482 -0.593929 -0.246013
v 0.226482 -0.454574 -0.454574
v 0.226482 -0.246014 -0.593929
v 0.226482 0 -0.642864
v 0.226482 0.246014 -0.593929
v 0.226482 0.454574 -0.454574
v 0.226482 0.593929 -0.246013
v 0.226482 0.642864 0
v 0.226482 0.593929 0.246014
v -0.517568 -0.000542 -0.001309
v -0.514633 0 -0.00286
v -0.52045 0 0
v -0.509501 0.00206 -0.004973
v -0.502816 0.00613 -0.00613
v -0.491767 0.013027 -0.005396
v -0.475771 0.021964 0
v -0.509555 -0.00205 -0.004948
v -0.490717 0 -0.014617
v -0.476491 0.00827 -0.019966
v -0.466302 0.018823 -0.018823
v -0.45161 0.031266 -0.012951
v -0.431093 0.043929 0
v -0.415754 0.047552 0.019697
v -0.461231 0.026896 0.011141
v -0.360582 -0.07261 0.030076
v -0.35229 -0.082669 0
v -0.344326 -0.079993 -0.033134
v -0.335049 -0.064449 -0.064449
v -0.323168 -0.037115 -0.089603
v -0.31148 0 -0.102731
v -0.29348 0.0427 -0.103087
v -0.271199 0.086644 -0.086644
v -0.24719 0.124111 -0.051408
v -0.223756 0.145857 0
v -0.405114 0.040093 0.040093
v -0.394801 0.023638 0.057068
v -0.383108 0 0.067519
v -0.373579 -0.027631 0.066707
v -0.366934 -0.053365 0.053365
v -0.399918 -0.054744 0.022676
v -0.393197 -0.062559 0
v -0.386233 -0.06096 -0.02525
v -0.377104 -0.04983 -0.04983
v -0.368027 -0.028675 -0.069229
v -0.357232 0 -0.08024
v -0.34201 0.03357 -0.081045
v -0.324079 0.068262 -0.068262
v -0.302926 0.098796 -0.040923
v -0.284052 0.116215 0
v -0.442333 0.027155 0.027155
v -0.432086 0.016624 0.040134
v -0.424154 0 0.04734
v -0.413717 -0.02008 0.048477
v -0.406224 -0.039707 0.039707
v -0.160965 -0.124964 0.124964
v -0.160965 -0.06763 0.163273
v -0.160965 0 0.176726
v -0.160965 0.06763 0.163273
v -0.160965 0.124964 0.124964
v -0.160965 0.163273 0.06763
v -0.160965 0.176726 0
v -0.160965 0.163273 -0.06763
v -0.160965 0.124964 -0.124964
v -0.160965 0.06763 -0.163273
v -0.160965 0 -0.176726
v -0.160965 -0.06763 -0.163273
v -0.160965 -0.124964 -0.124964
v -0.160965 -0.163273 -0.06763
v -0.160965 -0.176726 0
v -0.160965 -0.163273 0.06763
v 0.347763 -0.394331 -0.163337
v 0.347763 -0.42682 0
v 0.347763 -0.394331 0.163337
v 0.347763 -0.301808 0.301807
v 0.347763 -0.163337 0.394331
v 0.347763 0 0.42682
v 0.347763 0.163337 0.394331
v 0.347763 0.301808 0.301807
v 0.347763 0.394331 0.163337
v 0.347763 0.42682 0
v 0.347763 0.394331 -0.163337
v 0.347763 0.301808 -0.301808
v 0.347763 0.163337 -0.394331
v 0.347763 0 -0.42682
v 0.347763 -0.301808 -0.301808
v 0.347763 -0.163337 -0.394331
v -0.160965 -0.163273 -0.06763
v -0.160965 -0.176726 0
v -0.160965 -0.163273 0.06763
v -0.160965 -0.124964 0.124964
v -0.160965 -0.06763 0.163273
v -0.160965 0 0.176726
v -0.160965 0.06763 0.163273
v -0.160965 0.124964 0.124964
v -0.160965 0.163273 0.06763
v -0.160965 0.176726 0
v -0.160965 0.163273 -0.06763
v -0.160965 0.124964 -0.124964
v -0.160965 0.06763 -0.163273
v -0.160965 0 -0.176726
v -0.160965 -0.06763 -0.163273
v -0.160965 -0.124964 -0.124964
v 0.142859 0.863834 -0.088933
v 0.156304 0.863834 -0.037198
v 0.190864 0.863834 0.034744
v 0.228956 0.863834 0.073053
v 0.119352 0.270142 -0.030475
v 0.150296 0.2891 -0.006445
v 0.206386 0.317642 0.01816
v 0.252462 0.335548 0.020327
v 0.252462 0.332944 -0.038158
v 0.206386 0.314934 -0.037184
v 0.150296 0.282552 -0.056458
v 0.119352 0.25971 -0.076831
v 0.228956 0.86236 -0.077969
v 0.190864 0.855707 -0.115696
v 0.156304 0.843215 -0.186545
v 0.142859 0.834231 -0.237494
v 0.142859 0.779281 -0.378659
v 0.156304 0.796975 -0.330043
v 0.190864 0.821581 -0.26244
v 0.228956 0.834683 -0.226441
v 0.119352 0.241387 -0.120671
v 0.150296 0.26742 -0.104575
v 0.206386 0.302657 -0.091216
v 0.252462 0.320224 -0.095303
v 0.252462 0.297774 -0.149371
v 0.206386 0.281183 -0.142295
v 0.150296 0.244162 -0.149332
v 0.119352 0.215729 -0.160664
v 0.228956 0.781646 -0.367852
v 0.190864 0.762491 -0.401028
v 0.156304 0.72652 -0.463332
v 0.142859 0.700653 -0.508136
v 0.142859 0.600735 -0.621993
v 0.156304 0.63399 -0.582361
v 0.190864 0.680233 -0.52725
v 0.228956 0.704858 -0.497904
v 0.119352 0.183517 -0.195593
v 0.150296 0.213485 -0.189371
v 0.206386 0.251166 -0.18887
v 0.252462 0.266276 -0.198719
v 0.252462 0.226688 -0.241847
v 0.206386 0.213517 -0.229524
v 0.150296 0.176322 -0.223475
v 0.119352 0.145729 -0.224399
v 0.228956 0.606653 -0.612646
v 0.190864 0.577307 -0.637271
v 0.156304 0.522196 -0.683514
v 0.142859 0.482565 -0.716769
v 0.142859 0.349732 -0.789586
v 0.156304 0.394536 -0.763718
v 0.190864 0.456839 -0.727747
v 0.228956 0.490016 -0.708593
v 0.119352 0.103512 -0.246204
v 0.150296 0.133801 -0.250607
v 0.206386 0.169381 -0.263024
v 0.252462 0.180211 -0.277447
v 0.252462 0.12826 -0.304434
v 0.206386 0.120098 -0.28835
v 0.150296 0.087215 -0.269944
v 0.119352 0.058151 -0.260348
v 0.228956 0.35849 -0.782827
v 0.190864 0.322491 -0.79593
v 0.156304 0.254888 -0.820535
v 0.142859 0.206273 -0.83823
v 0.142859 0.056546 -0.861224
v 0.156304 0.107495 -0.85224
v 0.190864 0.178344 -0.839747
v 0.228956 0.216071 -0.833095
v 0.119352 0.011022 -0.2664
v 0.150296 0.037979 -0.280897
v 0.206386 0.067166 -0.304733
v 0.252462 0.072411 -0.321991
v 0.252462 0.014361 -0.329582
v 0.206386 0.012194 -0.311677
v 0.150296 -0.012411 -0.283134
v 0.119352 -0.036441 -0.264176
v 0.228956 0.067087 -0.857868
v 0.190864 0.028778 -0.857868
v 0.156304 -0.043164 -0.857868
v 0.142859 -0.094899 -0.857868
v 0.142859 -0.243461 -0.828266
v 0.156304 -0.192511 -0.837249
v 0.190864 -0.121662 -0.849742
v 0.228956 -0.083935 -0.856394
v 0.119352 -0.082797 -0.253744
v 0.150296 -0.062424 -0.276586
v 0.206386 -0.04315 -0.308968
v 0.252462 -0.044124 -0.326978
v 0.252462 -0.101269 -0.314258
v 0.206386 -0.097182 -0.296691
v 0.150296 -0.110541 -0.261454
v 0.119352 -0.126637 -0.235421
v 0.228956 -0.232408 -0.828718
v 0.190864 -0.268406 -0.815615
v 0.156304 -0.33601 -0.79101
v 0.142859 -0.384625 -0.773315
v 0.142859 -0.514102 -0.694687
v 0.156304 -0.469298 -0.720554
v 0.190864 -0.406995 -0.756525
v 0.228956 -0.373818 -0.77568
v 0.119352 -0.16663 -0.209763
v 0.150296 -0.155298 -0.238196
v 0.206386 -0.148261 -0.275217
v 0.252462 -0.155337 -0.291808
v 0.252462 -0.204685 -0.26031
v 0.206386 -0.194836 -0.2452
v 0.150296 -0.195337 -0.207519
v 0.119352 -0.201559 -0.177551
v 0.228956 -0.50387 -0.698892
v 0.190864 -0.533217 -0.674267
v 0.156304 -0.588327 -0.628024
v 0.142859 -0.627959 -0.594769
v 0.142859 -0.722735 -0.476599
v 0.156304 -0.689481 -0.51623
v 0.190864 -0.643237 -0.571341
v 0.228956 -0.618613 -0.600688
v 0.119352 -0.230365 -0.139763
v 0.150296 -0.229441 -0.170356
v 0.206386 -0.23549 -0.207551
v 0.252462 -0.247814 -0.220722
v 0.252462 -0.283413 -0.174245
v 0.206386 -0.26899 -0.163415
v 0.150296 -0.256573 -0.127835
v 0.119352 -0.25217 -0.097546
v 0.228956 -0.714559 -0.48405
v 0.190864 -0.733713 -0.450873
v 0.156304 -0.769684 -0.38857
v 0.142859 -0.795552 -0.343766
v 0.142859 -0.844196 -0.200307
v 0.156304 -0.826502 -0.248922
v 0.190864 -0.801896 -0.316525
v 0.228956 -0.788794 -0.352524
v 0.119352 -0.266314 -0.052185
v 0.150296 -0.27591 -0.081249
v 0.206386 -0.294316 -0.114132
v 0.252462 -0.3104 -0.122294
v 0.252462 -0.327957 -0.066445
v 0.206386 -0.310699 -0.0612
v 0.150296 -0.286863 -0.032013
v 0.119352 -0.272366 -0.005056
v 0.228956 -0.839061 -0.210105
v 0.190864 -0.845713 -0.172378
v 0.156304 -0.858206 -0.101529
v 0.142859 -0.86719 -0.05058
v 0.142859 -0.863834 0.100865
v 0.156304 -0.863834 0.04913
v 0.190864 -0.863834 -0.022812
v 0.228956 -0.863834 -0.061121
v 0.119352 -0.270142 0.042407
v 0.150296 -0.2891 0.018377
v 0.206386 -0.317643 -0.006228
v 0.252462 -0.335548 -0.008395
v 0.252462 -0.332944 0.05009
v 0.206386 -0.314934 0.049116
v 0.150296 -0.282552 0.06839
v 0.119352 -0.25971 0.088763
v 0.228956 -0.86236 0.089902
v 0.190864 -0.855708 0.127629
v 0.156304 -0.843215 0.198478
v 0.142859 -0.834232 0.249427
v 0.142859 -0.779282 0.390591
v 0.156304 -0.796976 0.341976
v 0.190864 -0.821581 0.274372
v 0.228956 -0.834684 0.238374
v 0.119352 -0.241387 0.132603
v 0.150296 -0.26742 0.116507
v 0.206386 -0.302657 0.103148
v 0.252462 -0.320224 0.107235
v 0.252462 -0.297774 0.161303
v 0.206386 -0.281183 0.154227
v 0.150296 -0.244162 0.161264
v 0.119352 -0.215729 0.172596
v 0.228956 -0.781646 0.379784
v 0.190864 -0.762491 0.412961
v 0.156304 -0.72652 0.475264
v 0.142859 -0.700653 0.520068
v 0.142859 -0.600736 0.633925
v 0.156304 -0.63399 0.594294
v 0.190864 -0.680234 0.539183
v 0.228956 -0.704858 0.509837
v 0.119352 -0.183517 0.207525
v 0.150296 -0.213485 0.201303
v 0.206386 -0.251166 0.200802
v 0.252462 -0.266276 0.210651
v 0.252462 -0.226688 0.25378
v 0.206386 -0.213517 0.241456
v 0.150296 -0.176322 0.235407
v 0.119352 -0.145729 0.236331
v 0.228956 -0.606654 0.624579
v 0.190864 -0.577307 0.649204
v 0.156304 -0.522196 0.695447
v 0.142859 -0.482565 0.728702
v 0.142859 -0.349732 0.801518
v 0.156304 -0.394536 0.775651
v 0.190864 -0.45684 0.73968
v 0.228956 -0.490016 0.720525
v 0.119352 -0.103512 0.258136
v 0.150296 -0.133801 0.262539
v 0.206386 -0.169381 0.274956
v 0.252462 -0.180211 0.289379
v 0.252462 -0.12826 0.316366
v 0.206386 -0.120098 0.300282
v 0.150296 -0.087215 0.281876
v 0.119352 -0.058151 0.27228
v 0.228956 -0.35849 0.79476
v 0.190864 -0.322491 0.807862
v 0.156304 -0.254888 0.832468
v 0.142859 -0.206273 0.850163
v 0.142859 -0.056546 0.873156
v 0.156304 -0.107495 0.864172
v 0.190864 -0.178344 0.85168
v 0.228956 -0.216071 0.845028
v 0.119352 -0.011022 0.278332
v 0.150296 -0.037979 0.292829
v 0.206386 -0.067166 0.316666
v 0.252462 -0.072411 0.333923
v 0.252462 -0.014361 0.341514
v 0.206386 -0.012193 0.323609
v 0.150296 0.012411 0.295066
v 0.119352 0.036441 0.276108
v 0.228956 -0.067087 0.869801
v 0.190864 -0.028778 0.869801
v 0.156304 0.043164 0.869801
v 0.142859 0.094899 0.869801
v 0.142859 0.243461 0.840198
v 0.156304 0.192512 0.849182
v 0.190864 0.121663 0.861674
v 0.228956 0.083936 0.868327
v 0.119352 0.082797 0.265676
v 0.150296 0.062424 0.288519
v 0.206386 0.04315 0.3209
v 0.252462 0.044124 0.33891
v 0.252462 0.101269 0.32619
v 0.206386 0.097182 0.308623
v 0.150296 0.110541 0.273386
v 0.119352 0.126637 0.247353
v 0.228956 0.232408 0.84065
v 0.190864 0.268407 0.827548
v 0.156304 0.33601 0.802942
v 0.142859 0.384625 0.785248
v 0.142859 0.514103 0.706619
v 0.156304 0.469299 0.732487
v 0.190864 0.406995 0.768458
v 0.228956 0.373818 0.787612
v 0.119352 0.16663 0.221696
v 0.150296 0.155298 0.250128
v 0.206386 0.148261 0.287149
v 0.252462 0.155337 0.30374
v 0.252462 0.204685 0.272242
v 0.206386 0.194836 0.257132
v 0.150296 0.195337 0.219452
v 0.119352 0.20156 0.189483
v 0.228956 0.503871 0.710825
v 0.190864 0.533217 0.6862
v 0.156304 0.588328 0.639956
v 0.142859 0.62796 0.606702
v 0.142859 0.722736 0.488531
v 0.156304 0.689481 0.528163
v 0.190864 0.643238 0.583273
v 0.228956 0.618613 0.61262
v 0.119352 0.230365 0.151695
v 0.150296 0.229441 0.182288
v 0.206386 0.235491 0.219483
v 0.252462 0.247814 0.232654
v 0.252462 0.283413 0.186178
v 0.206386 0.26899 0.175347
v 0.150296 0.256574 0.139767
v 0.119352 0.252171 0.109478
v 0.228956 0.71456 0.495982
v 0.190864 0.733714 0.462806
v 0.156304 0.769685 0.400502
v 0.142859 0.795553 0.355698
v 0.142859 0.844197 0.212239
v 0.156304 0.826502 0.260854
v 0.190864 0.801897 0.328457
v 0.228956 0.788794 0.364456
v 0.119352 0.266314 0.064117
v 0.150296 0.27591 0.093181
v 0.206386 0.294316 0.126064
v 0.252462 0.310401 0.134226
v 0.252462 0.327957 0.078377
v 0.206386 0.3107 0.073132
v 0.150296 0.286863 0.043945
v 0.119352 0.272366 0.016988
v 0.228956 0.839062 0.222037
v 0.190864 0.845714 0.18431
v 0.156304 0.858207 0.113461
v 0.142859 0.867191 0.062512
v 0.142859 0.863835 -0.088933
v 0.156304 0.863835 -0.037198
v 0.190864 0.863835 0.034744
v 0.228956 0.863835 0.073053
v 0.119352 0.270142 -0.030475
v 0.150296 0.2891 -0.006445
v 0.206386 0.317643 0.018159
v 0.252462 0.335548 0.020327
v 0.242064 0.789443 0.326999
v 0.242064 0.854487 1e-06
v 0.242064 0.789444 -0.326998
v 0.242064 0.604214 -0.604213
v 0.242064 0.326998 -0.789443
v 0.242064 0 -0.854487
v 0.242064 -0.326998 -0.789443
v 0.242064 -0.604214 -0.604214
v 0.242064 -0.789443 -0.326998
v 0.242064 -0.854487 0
v 0.242064 -0.789443 0.326998
v 0.242064 -0.604214 0.604214
v 0.242064 -0.326998 0.789443
v 0.242064 0 0.854487
v 0.242064 0.604214 0.604214
v 0.242064 0.326998 0.789443
v 0.130343 0.801527 0.332004
v 0.130343 0.867566 1e-06
v 0.130343 0.801527 -0.332003
v 0.130343 0.613462 -0.613462
v 0.130343 0.332003 -0.801527
v 0.130343 0 -0.867566
v 0.130343 -0.332003 -0.801527
v 0.130343 -0.613462 -0.613462
v 0.130343 -0.801527 -0.332003
v 0.130343 -0.867566 0
v 0.130343 -0.801527 0.332003
v 0.130343 -0.613462 0.613462
v 0.130343 -0.332003 0.801527
v 0.130343 0 0.867566
v 0.130343 0.613462 0.613462
v 0.130343 0.332003 0.801527
v 1e-06 0.638146 0.638146
v 1e-06 0.345362 0.833777
v 1e-06 0 0.902474
v 1e-06 -0.345362 0.833778
v 1e-06 -0.638146 0.638146
v 1e-06 -0.833777 0.345362
v 1e-06 -0.902474 0
v 1e-06 -0.833778 -0.345362
v 1e-06 -0.638146 -0.638145
v 1e-06 -0.345362 -0.833778
v 1e-06 0 -0.902474
v 1e-06 0.345362 -0.833778
v 1e-06 0.638146 -0.638145
v 1e-06 0.833778 -0.345362
v 1e-06 0.902474 1e-06
v 1e-06 0.833777 0.345363
v 1e-06 0.613462 0.613462
v 1e-06 0.332003 0.801527
v 1e-06 0 0.867566
v 1e-06 -0.332003 0.801527
v 1e-06 -0.613462 0.613462
v 1e-06 -0.801527 0.332003
v 1e-06 -0.867566 0
v 1e-06 -0.801527 -0.332003
v 1e-06 -0.613462 -0.613462
v 1e-06 -0.332003 -0.801527
v 1e-06 0 -0.867566
v 1e-06 0.332003 -0.801527
v 1e-06 0.613462 -0.613462
v 1e-06 0.801527 -0.332003
v 1e-06 0.867566 1e-06
v 1e-06 0.801527 0.332004
v 0.130343 0.332003 0.801527
v 0.130343 0.613462 0.613462
v 0.130343 0 0.867566
v 0.130343 -0.332003 0.801527
v 0.130343 -0.613462 0.613462
v 0.130343 -0.801527 0.332003
v 0.130343 -0.867566 0
v 0.130343 -0.801527 -0.332003
v 0.130343 -0.613462 -0.613462
v 0.130343 -0.332003 -0.801527
v 0.130343 0 -0.867566
v 0.130343 0.332003 -0.801527
v 0.130343 0.613462 -0.613462
v 0.130343 0.801527 -0.332003
v 0.130343 0.867566 1e-06
v 0.130343 0.801527 0.332004
v 0.242064 0.326998 0.789443
v 0.242064 0.604214 0.604214
v 0.242064 0 0.854487
v 0.242064 -0.326998 0.789443
v 0.242064 -0.604214 0.604214
v 0.242064 -0.789443 0.326998
v 0.242064 -0.854487 0
v 0.242064 -0.789443 -0.326998
v 0.242064 -0.604214 -0.604214
v 0.242064 -0.326998 -0.789443
v 0.242064 0 -0.854487
v 0.242064 0.326998 -0.789443
v 0.242064 0.604214 -0.604213
v 0.242064 0.789444 -0.326998
v 0.242064 0.854487 1e-06
v 0.242064 0.789443 0.326999
v 0.495299 0.326998 0.789443
v 0.495299 0.604214 0.604214
v 0.495299 0 0.854487
v 0.495299 -0.326998 0.789443
v 0.495299 -0.604214 0.604214
v 0.495299 -0.789443 0.326998
v 0.495299 -0.854487 0
v 0.495299 -0.789443 -0.326998
v 0.495299 -0.604214 -0.604214
v 0.495299 -0.326998 -0.789443
v 0.495299 0 -0.854487
v 0.495299 0.326998 -0.789443
v 0.495299 0.604214 -0.604213
v 0.495299 0.789444 -0.326998
v 0.495299 0.854487 1e-06
v 0.495299 0.789443 0.326999
v 0.884563 0.304647 0.735484
v 0.884563 0.562915 0.562915
v 0.884563 0 0.796082
v 0.884563 -0.304647 0.735484
v 0.884563 -0.562915 0.562915
v 0.884563 -0.735484 0.304647
v 0.884563 -0.796082 0
v 0.884563 -0.735484 -0.304647
v 0.884563 -0.562915 -0.562915
v 0.884563 -0.304648 -0.735484
v 0.884563 0 -0.796082
v 0.884563 0.304648 -0.735484
v 0.884563 0.562915 -0.562915
v 0.884563 0.735484 -0.304647
v 0.884563 0.796082 1e-06
v 0.884563 0.735484 0.304648
v 0.882539 0.599833 0.599833
v 0.88254 0.324627 0.78372
v 0.882539 0 0.848292
v 0.882539 -0.324627 0.78372
v 0.882539 -0.599833 0.599833
v 0.882539 -0.78372 0.324627
v 0.882539 -0.848292 0
v 0.882539 -0.78372 -0.324627
v 0.882539 -0.599833 -0.599833
v 0.882539 -0.324627 -0.78372
v 0.882539 0 -0.848292
v 0.882539 0.324627 -0.78372
v 0.882539 0.599833 -0.599833
v 0.882539 0.78372 -0.324627
v 0.882539 0.848292 1e-06
v 0.882539 0.78372 0.324628
vt 0 1
vt 0 0
vt 1 0
vt 1 1
vt 0 1
vt 0 0
vt 1 0
vt 1 1
vt 0 1
vt 0 0
vt 1 0
vt 1 1
vt 0 1
vt 0 0
vt 1 0
vt 1 1
vt 1 0
vt 0 0
vt 0 1
vt 1 1
vt 0 1
vt 1 1
vt 1 0
vt 0 0
vt 0 1
vt 1 1
vt 1 0
vt 0 0
vt 0 1
vt 1 1
vt 1 0
vt 0 0
vt 0 1
vt 1 1
vt 1 0
vt 0 0
vt 0 1
vt 1 1
vt 1 0
vt 0 0
vt 0 1
vt 1 1
vt 1 0
vt 0 0
vt 0 1
vt 1 1
vt 1 0
vt 0 0
vt 0 1
vt 1 1
vt 1 0
vt 0 0
vt 0 1
vt 1 1
vt 1 0
vt 0 0
vt 0 1
vt 1 1
vt 1 0
vt 0 0
vt 0 1
vt 1 1
vt 1 0
vt 0 0
vt 0 1
vt 1 1
vt 1 0
vt 0 0
vt 0 1
vt 1 1
vt 1 0
vt 0 0
vt 0 1
vt 1 1
vt 1 0
vt 0 0
vt 0 1
vt 1 1
vt 1 0
vt 0 0
vt 0 1
vt 0 0
vt 1 0
vt 0 1
vt 0 0
vt 1 0
vt 0 1
vt 0 0
vt 1 0
vt 0 1
vt 0 0
vt 1 0
vt 0 1
vt 0 0
vt 1 0
vt 0 1
vt 0 0
vt 1 0
vt 0 1
vt 0 0
vt 1 0
vt 0 1
vt 0 0
vt 1 0
vt 0 1
vt 0 0
vt 1 0
vt 0 1
vt 0 0
vt 1 0
vt 0 1
vt 0 0
vt 1 0
vt 0 1
vt 0 0
vt 1 0
vt 0 1
vt 0 0
vt 1 0
vt 0 1
vt 0 0
vt 1 0
vt 0 1
vt 0 0
vt 1 0
vt 0 1
vt 0 0
vt 1 0
vt 0 1
vt 0 0
vt 1 0
vt 1 1
vt 0 1
vt 0 0
vt 1 0
vt 1 1
vt 0 1
vt 0 0
vt 1 0
vt 1 1
vt 0 1
vt 0 0
vt 1 0
vt 1 1
vt 0 1
vt 0 0
vt 1 0
vt 1 1
vt 0 1
vt 0 0
vt 1 0
vt 1 1
vt 0 1
vt 0 0
vt 1 0
vt 1 1
vt 0 1
vt 0 0
vt 1 0
vt 1 1
vt 0 1
vt 0 0
vt 1 0
vt 1 1
vt 0 1
vt 0 0
vt 1 0
vt 1 1
vt 0 1
vt 0 0
vt 1 0
vt 1 1
vt 0 1
vt 0 0
vt 1 0
vt 1 1
vt 0 1
vt 0 0
vt 1 0
vt 1 1
vt 0 1
vt 0 0
vt 1 0
vt 1 1
vt 0 1
vt 0 0
vt 1 0
vt 1 1
vt 0 1
vt 0 0
vt 1 0
vt 1 1
vt 0 1
vt 0 0
vt 1 0
vt 1 1
vt 0 1
vt 0 0
vt 1 0
vt 1 1
vt 0 1
vt 0 0
vt 1 0
vt 1 1
vt 0 1
vt 0 0
vt 1 0
vt 1 1
vt 0 1
vt 0 0
vt 1 0
vt 1 1
vt 0 1
vt 0 0
vt 1 0
vt 1 1
vt 0 1
vt 0 0
vt 1 0
vt 1 1
vt 0 1
vt 0 0
vt 1 0
vt 1 1
vt 0 1
vt 0 0
vt 1 0
vt 1 1
vt 0 1
vt 0 0
vt 1 0
vt 1 1
vt 0 1
vt 0 0
vt 1 0
vt 1 1
vt 0 1
vt 0 0
vt 1 0
vt 1 1
vt 0 1
vt 0 0
vt 1 0
vt 1 1
vt 0 1
vt 0 0
vt 1 0
vt 1 1
vt 0 1
vt 0 0
vt 1 0
vt 1 1
vt 0 1
vt 0 0
vt 1 0
vt 1 1
vt 0 1
vt 1 1
vt 1 0
vt 0 0
vt 0 1
vt 1 1
vt 1 0
vt 0 0
vt 0 1
vt 1 1
vt 1 0
vt 0 0
vt 0 1
vt 1 1
vt 1 0
vt 0 0
vt 0 1
vt 1 1
vt 1 0
vt 0 0
vt 0 1
vt 1 1
vt 1 0
vt 0 0
vt 0 1
vt 1 1
vt 1 0
vt 0 0
vt 0 1
vt 1 1
vt 1 0
vt 0 0
vt 0 1
vt 1 1
vt 1 0
vt 0 0
vt 0 1
vt 1 1
vt 1 0
vt 0 0
vt 0 1
vt 1 1
vt 1 0
vt 0 0
vt 0 1
vt 1 1
vt 1 0
vt 0 0
vt 0 1
vt 1 1
vt 1 0
vt 0 0
vt 0 1
vt 1 1
vt 1 0
vt 0 0
vt 0 1
vt 1 1
vt 1 0
vt 0 0
vt 1 0
vt 0 0
vt 0 1
vt 1 1
vt 0 1
vt 0 0
vt 1 0
vt 1 1
vt 0 1
vt 0 0
vt 1 0
vt 1 1
vt 0 1
vt 0 0
vt 1 0
vt 1 1
vt 0 1
vt 0 0
vt 1 0
vt 1 1
vt 0 1
vt 0 0
vt 1 0
vt 1 1
vt 0 1
vt 0 0
vt 1 0
vt 1 1
vt 0 1
vt 0 0
vt 1 0
vt 1 1
vt 0 1
vt 0 0
vt 1 0
vt 1 1
vt 0 1
vt 0 0
vt 1 0
vt 1 1
vt 0 1
vt 0 0
vt 1 0
vt 1 1
vt 0 1
vt 0 0
vt 1 0
vt 1 1
vt 0 1
vt 0 0
vt 1 0
vt 1 1
vt 0 1
vt 0 0
vt 1 0
vt 1 1
vt 0 1
vt 0 0
vt 1 0
vt 1 1
vt 0 1
vt 0 0
vt 1 0
vt 1 1
vt 0 1
vt 0 0
vt 1 0
vt 1 1
vt 0 1
vt 0 0
vt 1 0
vt 1 1
vt 0 1
vt 0 0
vt 1 0
vt 1 1
vt 0 1
vt 0 0
vt 1 0
vt 1 1
vt 0 1
vt 0 0
vt 1 0
vt 1 1
vt 0 1
vt 0 0
vt 1 0
vt 1 1
vt 0 1
vt 0 0
vt 1 0
vt 1 1
vt 0 1
vt 0 0
vt 1 0
vt 1 1
vt 0 1
vt 0 0
vt 1 0
vt 1 1
vt 0 1
vt 0 0
vt 1 0
vt 1 1
vt 0 1
vt 0 0
vt 1 0
vt 1 1
vt 0 1
vt 0 0
vt 1 0
vt 1 1
vt 0 1
vt 0 0
vt 1 0
vt 1 1
vt 0 1
vt 0 0
vt 1 0
vt 1 1
vt 0 1
vt 0 0
vt 1 0
vt 1 1
vt 0 1
vt 0 0
vt 1 0
vt 1 1
vt 0 1
vt 0 0
vt 1 0
vt 1 1
vt 0 1
vt 1 1
vt 1 0
vt 0 0
vt 0 1
vt 1 1
vt 1 0
vt 0 0
vt 0 1
vt 1 1
vt 1 0
vt 0 0
vt 0 1
vt 1 1
vt 1 0
vt 0 0
vt 0 1
vt 1 1
vt 1 0
vt 0 0
vt 0 1
vt 1 1
vt 1 0
vt 0 0
vt 0 1
vt 1 1
vt 1 0
vt 0 0
vt 0 1
vt 1 1
vt 1 0
vt 0 0
vt 0 1
vt 1 1
vt 1 0
vt 0 0
vt 0 1
vt 1 1
vt 1 0
vt 0 0
vt 0 1
vt 1 1
vt 1 0
vt 0 0
vt 0 1
vt 1 1
vt 1 0
vt 0 0
vt 0 1
vt 1 1
vt 1 0
vt 0 0
vt 0 1
vt 1 1
vt 1 0
vt 0 0
vt 0 1
vt 1 1
vt 1 0
vt 0 0
vt 0 1
vt 1 1
vt 1 0
vt 0 0
vt 0 1
vt 1 1
vt 1 0
vt 0 0
vt 0 1
vt 1 1
vt 1 0
vt 0 0
vt 0 1
vt 1 1
vt 1 0
vt 0 0
vt 0 1
vt 1 1
vt 1 0
vt 0 0
vt 0 1
vt 1 1
vt 1 0
vt 0 0
vt 0 1
vt 1 1
vt 1 0
vt 0 0
vt 0 1
vt 1 1
vt 1 0
vt 0 0
vt 0 1
vt 1 1
vt 1 0
vt 0 0
vt 0 1
vt 1 1
vt 1 0
vt 0 0
vt 0 1
vt 1 1
vt 1 0
vt 0 0
vt 0 1
vt 1 1
vt 1 0
vt 0 0
vt 0 1
vt 1 1
vt 1 0
vt 0 0
vt 0 1
vt 1 1
vt 1 0
vt 0 0
vt 0 1
vt 1 1
vt 1 0
vt 0 0
vt 0 1
vt 1 1
vt 1 0
vt 0 0
vt 0 1
vt 1 1
vt 1 0
vt 0 0
vt 0 1
vt 0 0
vt 1 0
vt 1 1
vt 0 1
vt 0 0
vt 1 0
vt 1 1
vt 0 1
vt 0 0
vt 1 0
vt 1 1
vt 0 1
vt 0 0
vt 1 0
vt 1 1
vt 0 1
vt 0 0
vt 1 0
vt 1 1
vt 0 1
vt 0 0
vt 1 0
vt 1 1
vt 0 1
vt 0 0
vt 1 0
vt 1 1
vt 0 1
vt 0 0
vt 1 0
vt 1 1
vt 0 1
vt 0 0
vt 1 0
vt 1 1
vt 0 1
vt 0 0
vt 1 0
vt 1 1
vt 0 1
vt 0 0
vt 1 0
vt 1 1
vt 0 1
vt 0 0
vt 1 0
vt 1 1
vt 0 1
vt 0 0
vt 1 0
vt 1 1
vt 0 1
vt 0 0
vt 1 0
vt 1 1
vt 0 1
vt 0 0
vt 1 0
vt 1 1
vt 0 1
vt 0 0
vt 1 0
vt 1 1
vt 0 1
vt 0 0
vt 1 0
vt 1 1
vt 0 1
vt 0 0
vt 1 0
vt 1 1
vt 0 1
vt 0 0
vt 1 0
vt 1 1
vt 0 1
vt 0 0
vt 1 0
vt 1 1
vt 0 1
vt 0 0
vt 1 0
vt 1 1
vt 0 1
vt 0 0
vt 1 0
vt 1 1
vt 0 1
vt 0 0
vt 1 0
vt 1 1
vt 0 1
vt 0 0
vt 1 0
vt 1 1
vt 0 1
vt 0 0
vt 1 0
vt 1 1
vt 0 1
vt 0 0
vt 1 0
vt 1 1
vt 0 1
vt 0 0
vt 1 0
vt 1 1
vt 0 1
vt 0 0
vt 1 0
vt 1 1
vt 0 1
vt 0 0
vt 1 0
vt 1 1
vt 0 1
vt 0 0
vt 1 0
vt 1 1
vt 0 1
vt 0 0
vt 1 0
vt 1 1
vt 0 1
vt 0 0
vt 1 0
vt 1 1
vt 0 1
vt 0 0
vt 1 0
vt 1 1
vt 0 1
vt 0 0
vt 1 0
vt 1 1
vt 0 1
vt 0 0
vt 1 0
vt 1 1
vt 0 1
vt 0 0
vt 1 0
vt 1 1
vt 0 1
vt 0 0
vt 1 0
vt 1 1
vt 0 1
vt 0 0
vt 1 0
vt 1 1
vt 0 1
vt 0 0
vt 1 0
vt 1 1
vt 0 1
vt 0 0
vt 1 0
vt 1 1
vt 0 1
vt 0 0
vt 1 0
vt 1 1
vt 0 1
vt 1 1
vt 1 0
vt 0 0
vt 0 1
vt 0 0
vt 1 0
vt 1 1
vt 0 1
vt 1 1
vt 1 0
vt 0 0
vt 0 1
vt 0 0
vt 1 0
vt 1 1
vt 0 1
vt 0 0
vt 1 0
vt 1 1
vt 0 1
vt 0 0
vt 1 0
vt 1 1
vt 0 1
vt 0 0
vt 1 0
vt 1 1
vt 0 1
vt 0 0
vt 1 0
vt 1 1
vt 0 1
vt 1 1
vt 1 0
vt 0 0
vt 0 1
vt 0 0
vt 1 0
vt 1 1
vt 1 0
vt 0 0
vt 0 1
vt 1 1
vt 0 1
vt 0 0
vt 1 0
vt 1 1
vt 0 1
vt 0 0
vt 1 0
vt 1 1
vt 0 1
vt 0 0
vt 1 0
vt 1 1
vt 0 1
vt 0 0
vt 1 0
vt 1 1
vt 0 1
vt 0 0
vt 1 0
vt 1 1
vt 0 1
vt 1 1
vt 1 0
vt 0 0
vt 0 1
vt 0 0
vt 1 0
vt 1 1
vt 0 1
vt 1 1
vt 1 0
vt 0 0
vt 0 1
vt 0 0
vt 1 0
vt 1 1
vt 0 1
vt 0 0
vt 1 0
vt 1 1
vt 0 1
vt 0 0
vt 1 0
vt 1 1
vt 0 1
vt 0 0
vt 1 0
vt 1 1
vt 0 1
vt 0 0
vt 1 0
vt 1 1
vt 0 1
vt 1 1
vt 1 0
vt 0 0
vt 0 1
vt 0 0
vt 1 0
vt 1 1
vt 0 1
vt 1 1
vt 1 0
vt 0 0
vt 0 1
vt 0 0
vt 1 0
vt 1 1
vt 0 1
vt 0 0
vt 1 0
vt 1 1
vt 0 1
vt 0 0
vt 1 0
vt 1 1
vt 0 1
vt 0 0
vt 1 0
vt 1 1
vt 0 1
vt 0 0
vt 1 0
vt 1 1
vt 0 1
vt 1 1
vt 1 0
vt 0 0
vt 0 1
vt 0 0
vt 1 0
vt 1 1
vt 0 1
vt 1 1
vt 1 0
vt 0 0
vt 0 1
vt 0 0
vt 1 0
vt 1 1
vt 0 1
vt 0 0
vt 1 0
vt 1 1
vt 0 1
vt 0 0
vt 1 0
vt 1 1
vt 0 1
vt 0 0
vt 1 0
vt 1 1
vt 0 1
vt 0 0
vt 1 0
vt 1 1
vt 0 1
vt 1 1
vt 1 0
vt 0 0
vt 0 1
vt 0 0
vt 1 0
vt 1 1
vt 0 1
vt 1 1
vt 1 0
vt 0 0
vt 0 1
vt 0 0
vt 1 0
vt 1 1
vt 0 1
vt 0 0
vt 1 0
vt 1 1
vt 0 1
vt 0 0
vt 1 0
vt 1 1
vt 0 1
vt 0 0
vt 1 0
vt 1 1
vt 0 1
vt 0 0
vt 1 0
vt 1 1
vt 0 1
vt 1 1
vt 1 0
vt 0 0
vt 0 1
vt 0 0
vt 1 0
vt 1 1
vt 0 1
vt 1 1
vt 1 0
vt 0 0
vt 0 1
vt 0 0
vt 1 0
vt 1 1
vt 0 1
vt 0 0
vt 1 0
vt 1 1
vt 0 1
vt 0 0
vt 1 0
vt 1 1
vt 0 1
vt 0 0
vt 1 0
vt 1 1
vt 0 1
vt 0 0
vt 1 0
vt 1 1
vt 0 1
vt 1 1
vt 1 0
vt 0 0
vt 0 1
vt 0 0
vt 1 0
vt 1 1
vt 0 1
vt 1 1
vt 1 0
vt 0 0
vt 0 1
vt 0 0
vt 1 0
vt 1 1
vt 0 1
vt 0 0
vt 1 0
vt 1 1
vt 0 1
vt 0 0
vt 1 0
vt 1 1
vt 0 1
vt 0 0
vt 1 0
vt 1 1
vt 0 1
vt 0 0
vt 1 0
vt 1 1
vt 0 1
vt 1 1
vt 1 0
vt 0 0
vt 0 1
vt 0 0
vt 1 0
vt 1 1
vt 0 1
vt 1 1
vt 1 0
vt 0 0
vt 0 1
vt 0 0
vt 1 0
vt 1 1
vt 0 1
vt 0 0
vt 1 0
vt 1 1
vt 0 1
vt 0 0
vt 1 0
vt 1 1
vt 0 1
vt 0 0
vt 1 0
vt 1 1
vt 0 1
vt 0 0
vt 1 0
vt 1 1
vt 0 1
vt 1 1
vt 1 0
vt 0 0
vt 0 1
vt 0 0
vt 1 0
vt 1 1
vt 0 1
vt 1 1
vt 1 0
vt 0 0
vt 0 1
vt 0 0
vt 1 0
vt 1 1
vt 0 1
vt 0 0
vt 1 0
vt 1 1
vt 0 1
vt 0 0
vt 1 0
vt 1 1
vt 0 1
vt 0 0
vt 1 0
vt 1 1
vt 0 1
vt 0 0
vt 1 0
vt 1 1
vt 0 1
vt 1 1
vt 1 0
vt 0 0
vt 0 1
vt 0 0
vt 1 0
vt 1 1
vt 0 1
vt 1 1
vt 1 0
vt 0 0
vt 0 1
vt 0 0
vt 1 0
vt 1 1
vt 0 1
vt 0 0
vt 1 0
vt 1 1
vt 0 1
vt 0 0
vt 1 0
vt 1 1
vt 0 1
vt 0 0
vt 1 0
vt 1 1
vt 0 1
vt 0 0
vt 1 0
vt 1 1
vt 0 1
vt 1 1
vt 1 0
vt 0 0
vt 0 1
vt 0 0
vt 1 0
vt 1 1
vt 0 1
vt 1 1
vt 1 0
vt 0 0
vt 0 1
vt 0 0
vt 1 0
vt 1 1
vt 0 1
vt 0 0
vt 1 0
vt 1 1
vt 0 1
vt 0 0
vt 1 0
vt 1 1
vt 0 1
vt 0 0
vt 1 0
vt 1 1
vt 0 1
vt 0 0
vt 1 0
vt 1 1
vt 0 1
vt 1 1
vt 1 0
vt 0 0
vt 0 1
vt 0 0
vt 1 0
vt 1 1
vt 0 1
vt 1 1
vt 1 0
vt 0 0
vt 0 1
vt 0 0
vt 1 0
vt 1 1
vt 0 1
vt 0 0
vt 1 0
vt 1 1
vt 0 1
vt 0 0
vt 1 0
vt 1 1
vt 0 1
vt 0 0
vt 1 0
vt 1 1
vt 0 1
vt 0 0
vt 1 0
vt 1 1
vt 0 1
vt 1 1
vt 1 0
vt 0 0
vt 0 1
vt 0 0
vt 1 0
vt 1 1
vt 0 1
vt 1 1
vt 1 0
vt 0 0
vt 0 1
vt 0 0
vt 1 0
vt 1 1
vt 0 1
vt 0 0
vt 1 0
vt 1 1
vt 0 1
vt 0 0
vt 1 0
vt 1 1
vt 0 1
vt 0 0
vt 1 0
vt 1 1
vt 0 1
vt 0 0
vt 1 0
vt 1 1
vt 0 1
vt 1 1
vt 1 0
vt 0 0
vt 0 1
vt 0 0
vt 1 0
vt 1 1
vt 0 1
vt 1 1
vt 1 0
vt 0 0
vt 0 1
vt 0 0
vt 1 0
vt 1 1
vt 0 1
vt 0 0
vt 1 0
vt 1 1
vt 0 1
vt 0 0
vt 1 0
vt 1 1
vt 0 1
vt 0 0
vt 1 0
vt 1 1
vt 0 1
vt 0 0
vt 1 0
vt 1 1
vt 0 1
vt 1 1
vt 1 0
vt 0 0
vt 0 1
vt 0 0
vt 1 0
vt 1 1
vt 0 1
vt 1 1
vt 1 0
vt 0 0
vt 0 1
vt 0 0
vt 1 0
vt 1 1
vt 0 1
vt 0 0
vt 1 0
vt 1 1
vt 0 1
vt 0 0
vt 1 0
vt 1 1
vt 0 1
vt 0 0
vt 1 0
vt 1 1
vt 0 1
vt 0 0
vt 1 0
vt 1 1
vt 0 1
vt 1 1
vt 1 0
vt 0 0
vt 0 1
vt 0 0
vt 1 0
vt 1 1
vt 0 1
vt 0 0
vt 1 0
vt 1 1
vt 0 1
vt 0 0
vt 1 0
vt 1 1
vt 0 1
vt 0 0
vt 1 0
vt 1 1
vt 0 1
vt 0 0
vt 1 0
vt 1 1
vt 0 1
vt 0 0
vt 1 0
vt 1 1
vt 0 1
vt 0 0
vt 1 0
vt 1 1
vt 0 1
vt 1 1
vt 1 0
vt 0 0
vt 0 1
vt 0 0
vt 1 0
vt 1 1
vt 0 1
vt 1 1
vt 1 0
vt 0 0
vt 0 1
vt 0 0
vt 1 0
vt 1 1
vt 0 1
vt 0 0
vt 1 0
vt 1 1
vt 0 1
vt 0 0
vt 1 0
vt 1 1
vt 0 1
vt 0 0
vt 1 0
vt 1 1
vt 0 1
vt 0 0
vt 1 0
vt 1 1
vt 0 1
vt 1 1
vt 1 0
vt 0 0
vt 0 1
vt 0 0
vt 1 0
vt 1 1
vt 0 1
vt 1 1
vt 1 0
vt 0 0
vt 0 1
vt 0 0
vt 1 0
vt 1 1
vt 0 1
vt 0 0
vt 1 0
vt 1 1
vt 0 1
vt 1 1
vt 1 0
vt 0 0
vt 0 1
vt 1 1
vt 1 0
vt 0 0
vt 0 1
vt 1 1
vt 1 0
vt 0 0
vt 0 1
vt 1 1
vt 1 0
vt 0 0
vt 0 1
vt 1 1
vt 1 0
vt 0 0
vt 0 1
vt 1 1
vt 1 0
vt 0 0
vt 0 1
vt 1 1
vt 1 0
vt 0 0
vt 0 1
vt 1 1
vt 1 0
vt 0 0
vt 0 1
vt 1 1
vt 1 0
vt 0 0
vt 0 1
vt 1 1
vt 1 0
vt 0 0
vt 0 1
vt 1 1
vt 1 0
vt 0 0
vt 0 1
vt 1 1
vt 1 0
vt 0 0
vt 0 1
vt 1 1
vt 1 0
vt 0 0
vt 0 1
vt 1 1
vt 1 0
vt 0 0
vt 0 1
vt 1 1
vt 1 0
vt 0 0
vt 0 1
vt 1 1
vt 1 0
vt 0 0
vt 0 1
vt 1 1
vt 1 0
vt 0 0
vt 0 1
vt 1 1
vt 1 0
vt 0 0
vt 0 1
vt 1 1
vt 1 0
vt 0 0
vt 0 1
vt 1 1
vt 1 0
vt 0 0
vt 0 1
vt 0 0
vt 1 0
vt 1 1
vt 0 1
vt 1 1
vt 1 0
vt 0 0
vt 0 1
vt 0 0
vt 1 0
vt 1 1
vt 0 1
vt 0 0
vt 1 0
vt 1 1
vt 0 1
vt 0 0
vt 1 0
vt 1 1
vt 0 1
vt 0 0
vt 1 0
vt 1 1
vt 0 1
vt 0 0
vt 1 0
vt 1 1
vt 0 1
vt 0 0
vt 1 0
vt 1 1
vt 0 1
vt 0 0
vt 1 0
vt 1 1
vt 0 1
vt 0 0
vt 1 0
vt 1 1
vt 0 1
vt 0 0
vt 1 0
vt 1 1
vt 0 1
vt 0 0
vt 1 0
vt 1 1
vt 0 1
vt 0 0
vt 1 0
vt 1 1
vt 0 1
vt 0 0
vt 1 0
vt 1 1
vt 0 1
vt 0 0
vt 1 0
vt 1 1
vt 0 1
vt 0 0
vt 1 0
vt 1 1
vt 0 1
vt 0 0
vt 1 0
vt 1 1
vt 0 1
vt 0 0
vt 1 0
vt 1 1
vt 0 0
vt 1 0
vt 0 1
vt 1 0
vt 0 0
vt 0 1
vt 1 1
vt 0 1
vt 1 1
vt 1 0
vt 0 0
vt 0 1
vt 1 1
vt 1 0
vt 0 0
vt 0 1
vt 1 1
vt 1 0
vt 0 0
vt 0 1
vt 1 1
vt 1 0
vt 0 0
vt 0 1
vt 0 0
vt 1 0
vt 1 1
vt 0 1
vt 1 1
vt 1 0
vt 0 0
vt 1 0
vt 0 0
vt 0 1
vt 1 1
vt 0 1
vt 1 1
vt 1 0
vt 0 0
vt 0 1
vt 1 1
vt 1 0
vt 0 0
vt 0 1
vt 1 1
vt 1 0
vt 0 0
vt 0 1
vt 1 1
vt 1 0
vt 0 0
vt 0 1
vt 1 1
vt 1 0
vt 0 0
vt 0 1
vt 1 1
vt 1 0
vt 0 0
vt 0 1
vt 1 1
vt 1 0
vt 0 0
vt 0 1
vt 1 1
vt 1 0
vt 0 0
vt 0 1
vt 1 1
vt 1 0
vt 0 0
vt 0 1
vt 1 1
vt 1 0
vt 0 0
vt 0 1
vt 1 1
vt 1 0
vt 0 0
vt 0 1
vt 1 1
vt 1 0
vt 0 0
vt 0 1
vt 1 1
vt 1 0
vt 0 0
vt 1 0
vt 0 0
vt 0 1
vt 1 0
vt 0 0
vt 0 1
vt 0 1
vt 1 0
vt 0 0
vt 0 1
vt 1 0
vt 0 0
vt 0 1
vt 1 0
vt 0 0
vt 0 1
vt 1 0
vt 0 0
vt 0 1
vt 1 1
vt 1 0
vt 0 0
vt 0 1
vt 1 1
vt 1 0
vt 0 0
vt 0 1
vt 1 1
vt 1 0
vt 0 0
vt 0 1
vt 1 1
vt 1 0
vt 0 0
vt 0 1
vt 1 1
vt 1 0
vt 0 0
vt 0 1
vt 1 1
vt 1 0
vt 0 0
vt 0 1
vt 1 1
vt 1 0
vt 0 0
vt 0 1
vt 1 1
vt 1 0
vt 0 0
vt 0 1
vt 1 1
vt 1 0
vt 0 0
vt 0 1
vt 1 1
vt 1 0
vt 0 0
vt 0 1
vt 1 1
vt 1 0
vt 0 0
vt 0 1
vt 1 1
vt 1 0
vt 0 0
vt 0 1
vt 1 1
vt 1 0
vt 0 0
vt 0 1
vt 1 1
vt 1 0
vt 0 0
vt 0 1
vt 1 1
vt 1 0
vt 0 0
vt 0 1
vt 0 0
vt 1 0
vt 0 1
vt 0 0
vt 1 0
vt 1 0
vt 1 1
vt 0 1
vt 0 0
vt 1 0
vt 1 1
vt 0 1
vt 0 0
vt 0 1
vt 0 0
vt 1 0
vt 1 1
vt 0 1
vt 0 0
vt 1 0
vt 1 1
vt 0 1
vt 0 0
vt 1 0
vt 0 1
vt 0 0
vt 1 0
vt 0 1
vt 0 0
vt 1 0
vt 0 1
vt 0 0
vt 1 0
vt 0 1
vt 1 0
vt 0 0
vt 0 1
vt 0 0
vt 1 0
vt 1 1
vt 0 1
vt 0 0
vt 1 0
vt 1 1
vt 0 1
vt 0 0
vt 1 0
vt 1 1
vt 0 1
vt 0 0
vt 1 0
vt 0 1
vt 1 1
vt 1 0
vt 0 0
vt 0 1
vt 1 0
vt 0 0
vt 1 0
vt 1 1
vt 0 1
vt 0 0
vt 1 0
vt 1 1
vt 0 1
vt 0 0
vt 0 1
vt 0 0
vt 1 0
vt 1 1
vt 0 1
vt 0 0
vt 1 0
vt 1 1
vt 0 1
vt 0 0
vt 1 0
vt 1 1
vt 0 1
vt 0 0
vt 1 0
vt 1 1
vt 0 1
vt 0 0
vt 1 0
vt 1 1
vt 0 1
vt 0 0
vt 1 0
vt 1 1
vt 0 1
vt 0 0
vt 1 0
vt 1 1
vt 0 1
vt 0 0
vt 1 0
vt 1 1
vt 0 1
vt 0 0
vt 1 0
vt 1 1
vt 0 1
vt 0 0
vt 1 0
vt 1 1
vt 0 1
vt 0 0
vt 1 0
vt 1 1
vt 0 1
vt 0 0
vt 1 0
vt 1 1
vt 0 1
vt 0 0
vt 1 0
vt 1 1
vt 0 1
vt 0 0
vt 1 0
vt 1 1
vt 0 1
vt 0 0
vt 1 0
vt 1 1
vt 0 1
vt 0 0
vt 1 0
vt 1 1
vt 0 1
vt 0 0
vt 1 0
vt 1 1
vt 0 1
vt 0 0
vt 1 0
vt 1 1
vt 0 1
vt 0 0
vt 1 0
vt 1 1
vt 0 1
vt 0 0
vt 1 0
vt 1 1
vt 0 1
vt 0 0
vt 1 0
vt 1 1
vt 0 1
vt 0 0
vt 1 0
vt 1 1
vt 0 1
vt 0 0
vt 1 0
vt 1 1
vt 0 1
vt 0 0
vt 1 0
vt 1 1
vt 0 1
vt 0 0
vt 1 0
vt 1 1
vt 0 1
vt 0 0
vt 1 0
vt 1 1
vt 0 1
vt 0 0
vt 1 0
vt 1 1
vt 0 1
vt 0 0
vt 1 0
vt 1 1
vt 0 1
vt 0 0
vt 1 0
vt 1 1
vt 0 1
vt 0 0
vt 1 0
vt 1 1
vt 0 1
vt 0 0
vt 1 0
vt 1 1
vt 0 1
vt 0 0
vt 1 0
vt 1 1
vt 0 1
vt 0 0
vt 1 0
vt 1 1
vt 0 1
vt 0 0
vt 1 0
vt 1 1
vt 0 1
vt 0 0
vt 1 0
vt 1 1
vt 0 1
vt 0 0
vt 1 0
vt 1 1
vt 0 1
vt 0 0
vt 1 0
vt 1 1
vt 0 1
vt 0 0
vt 1 0
vt 1 1
vt 0 1
vt 0 0
vt 1 0
vt 1 1
vt 0 1
vt 0 0
vt 1 0
vt 1 1
vt 0 1
vt 0 0
vt 1 0
vt 1 1
vt 0 1
vt 0 0
vt 1 0
vt 1 1
vt 0 1
vt 0 0
vt 1 0
vt 1 1
vt 0 1
vt 0 0
vt 1 0
vt 1 1
vt 0 1
vt 0 0
vt 1 0
vt 1 1
vt 0 1
vt 0 0
vt 1 0
vt 1 1
vt 0 1
vt 0 0
vt 1 0
vt 1 1
vt 0 1
vt 0 0
vt 1 0
vt 1 1
vt 0 1
vt 0 0
vt 1 0
vt 1 1
vt 0 1
vt 0 0
vt 1 0
vt 1 1
vt 0 1
vt 0 0
vt 1 0
vt 1 1
vt 0 1
vt 0 0
vt 1 0
vt 1 1
vt 0 1
vt 0 0
vt 1 0
vt 1 1
vt 0 1
vt 0 0
vt 1 0
vt 1 1
vt 0 1
vt 0 0
vt 1 0
vt 1 1
vt 0 1
vt 0 0
vt 1 0
vt 1 1
vt 0 1
vt 0 0
vt 1 0
vt 1 1
vt 0 1
vt 0 0
vt 1 0
vt 1 1
vt 0 1
vt 0 0
vt 1 0
vt 1 1
vt 0 1
vt 0 0
vt 1 0
vt 1 1
vt 0 1
vt 0 0
vt 1 0
vt 1 1
vt 0 1
vt 0 0
vt 1 0
vt 1 1
vt 0 1
vt 0 0
vt 1 0
vt 1 1
vt 0 1
vt 0 0
vt 1 0
vt 1 1
vt 0 1
vt 0 0
vt 1 0
vt 1 1
vt 0 1
vt 0 0
vt 1 0
vt 1 1
vt 0 1
vt 0 0
vt 1 0
vt 1 1
vt 0 1
vt 0 0
vt 1 0
vt 1 1
vt 0 1
vt 0 0
vt 1 0
vt 1 1
vt 0 1
vt 0 0
vt 1 0
vt 1 1
vt 0 1
vt 0 0
vt 1 0
vt 1 1
vt 0 1
vt 0 0
vt 1 0
vt 1 1
vt 0 1
vt 0 0
vt 1 0
vt 1 1
vt 0 1
vt 0 0
vt 1 0
vt 1 1
vt 0 1
vt 0 0
vt 1 0
vt 1 1
vt 0 1
vt 0 0
vt 1 0
vt 1 1
vt 0 1
vt 0 0
vt 1 0
vt 1 1
vt 0 1
vt 0 0
vt 1 0
vt 1 1
vt 0 1
vt 0 0
vt 1 0
vt 1 1
vt 0 1
vt 0 0
vt 1 0
vt 1 1
vt 0 1
vt 0 0
vt 1 0
vt 1 1
vt 0 1
vt 0 0
vt 1 0
vt 1 1
vt 0 1
vt 0 0
vt 1 0
vt 1 1
vt 0 1
vt 0 0
vt 1 0
vt 1 1
vt 0 1
vt 0 0
vt 1 0
vt 1 1
vt 0 1
vt 0 0
vt 1 0
vt 1 1
vt 0 1
vt 0 0
vt 1 0
vt 1 1
vt 0 1
vt 0 0
vt 1 0
vt 1 1
vt 0 1
vt 0 0
vt 1 0
vt 1 1
vt 0 1
vt 0 0
vt 1 0
vt 1 1
vt 0 1
vt 0 0
vt 1 0
vt 1 1
vt 0 1
vt 0 0
vt 1 0
vt 1 1
vt 0 1
vt 0 0
vt 1 0
vt 1 1
vt 0 1
vt 0 0
vt 1 0
vt 1 1
vt 0 1
vt 0 0
vt 1 0
vt 1 1
vt 0 1
vt 0 0
vt 1 0
vt 1 1
vt 0 1
vt 0 0
vt 1 0
vt 1 1
vt 0 1
vt 0 0
vt 1 0
vt 1 1
vt 0 1
vt 0 0
vt 1 0
vt 1 1
vt 0 1
vt 0 0
vt 1 0
vt 1 1
vt 0 1
vt 0 0
vt 1 0
vt 1 1
vt 0 1
vt 0 0
vt 1 0
vt 1 1
vt 0 1
vt 0 0
vt 1 0
vt 1 1
vt 0 1
vt 0 0
vt 1 0
vt 1 1
vt 0 1
vt 0 0
vt 1 0
vt 1 1
vt 0 1
vt 0 0
vt 1 0
vt 1 1
vt 0 1
vt 0 0
vt 1 0
vt 1 1
vt 0 1
vt 0 0
vt 1 0
vt 1 1
vt 0 1
vt 0 0
vt 1 0
vt 1 1
vt 0 1
vt 0 0
vt 1 0
vt 1 1
vt 0 1
vt 0 0
vt 1 0
vt 1 1
vt 0 1
vt 0 0
vt 1 0
vt 1 1
vt 0 1
vt 0 0
vt 1 0
vt 1 1
vt 0 1
vt 0 0
vt 1 0
vt 1 1
vt 0 1
vt 0 0
vt 1 0
vt 1 1
vt 0 1
vt 0 0
vt 1 0
vt 1 1
vt 0 1
vt 0 0
vt 1 0
vt 1 1
vt 0 1
vt 0 0
vt 1 0
vt 1 1
vt 0 1
vt 0 0
vt 1 0
vt 1 1
vt 0 1
vt 0 0
vt 1 0
vt 1 1
vt 0 1
vt 0 0
vt 1 0
vt 1 1
vt 0 1
vt 0 0
vt 1 0
vt 1 1
vt 0 1
vt 0 0
vt 1 0
vt 1 1
vt 0 1
vt 0 0
vt 1 0
vt 1 1
vt 0 1
vt 0 0
vt 1 0
vt 1 1
vt 0 1
vt 1 1
vt 1 0
vt 0 0
vt 1 0
vt 1 1
vt 0 1
vt 0 0
vt 0 1
vt 0 0
vt 1 0
vt 1 1
vt 0 1
vt 0 0
vt 1 0
vt 1 1
vt 0 1
vt 0 0
vt 1 0
vt 1 1
vt 0 1
vt 0 0
vt 1 0
vt 1 1
vt 0 1
vt 0 0
vt 1 0
vt 1 1
vt 0 1
vt 0 0
vt 1 0
vt 1 1
vt 0 1
vt 0 0
vt 1 0
vt 1 1
vt 0 1
vt 0 0
vt 1 0
vt 1 1
vt 0 1
vt 0 0
vt 1 0
vt 1 1
vt 0 1
vt 0 0
vt 1 0
vt 1 1
vt 0 1
vt 0 0
vt 1 0
vt 1 1
vt 0 1
vt 0 0
vt 1 0
vt 1 1
vt 0 1
vt 0 0
vt 1 0
vt 1 1
vt 0 1
vt 0 0
vt 1 0
vt 1 1
vt 0 1
vt 0 0
vt 1 0
vt 1 1
vt 0 1
vt 0 0
vt 1 0
vt 1 1
vt 0 1
vt 0 0
vt 1 0
vt 1 1
vt 0 1
vt 0 0
vt 1 0
vt 1 1
vt 0 1
vt 0 0
vt 1 0
vt 1 1
vt 0 1
vt 0 0
vt 1 0
vt 1 1
vt 0 1
vt 0 0
vt 1 0
vt 1 1
vt 0 1
vt 0 0
vt 1 0
vt 1 1
vt 0 1
vt 0 0
vt 1 0
vt 1 1
vt 0 1
vt 0 0
vt 1 0
vt 1 1
vt 0 1
vt 0 0
vt 1 0
vt 1 1
vt 0 1
vt 0 0
vt 1 0
vt 1 1
vt 0 1
vt 0 0
vt 1 0
vt 1 1
vt 0 1
vt 0 0
vt 1 0
vt 1 1
vt 0 1
vt 0 0
vt 1 0
vt 1 1
vt 1 0
vt 0 0
vt 0 1
vt 1 1
vt 0 1
vt 0 0
vt 1 0
vt 1 1
vt 0 1
vt 0 0
vt 1 0
vt 1 1
vt 0 1
vt 0 0
vt 1 0
vt 1 1
vt 0 1
vt 0 0
vt 1 0
vt 1 1
vt 0 1
vt 0 0
vt 1 0
vt 1 1
vt 0 1
vt 0 0
vt 1 0
vt 1 1
vt 0 1
vt 0 0
vt 1 0
vt 1 1
vt 0 1
vt 0 0
vt 1 0
vt 1 1
vt 0 1
vt 0 0
vt 1 0
vt 1 1
vt 0 1
vt 0 0
vt 1 0
vt 1 1
vt 0 1
vt 0 0
vt 1 0
vt 1 1
vt 0 1
vt 0 0
vt 1 0
vt 1 1
vt 0 1
vt 0 0
vt 1 0
vt 1 1
vt 0 1
vt 0 0
vt 1 0
vt 1 1
vt 0 1
vt 0 0
vt 1 0
vt 1 1
vt 0 1
vt 1 1
vt 1 0
vt 0 0
vt 0 1
vt 0 0
vt 1 0
vt 1 1
vt 0 1
vt 0 0
vt 1 0
vt 1 1
vt 0 1
vt 0 0
vt 1 0
vt 1 1
vt 0 1
vt 0 0
vt 1 0
vt 1 1
vt 0 1
vt 0 0
vt 1 0
vt 1 1
vt 0 1
vt 0 0
vt 1 0
vt 1 1
vt 0 1
vt 0 0
vt 1 0
vt 1 1
vt 0 1
vt 0 0
vt 1 0
vt 1 1
vt 0 1
vt 0 0
vt 1 0
vt 1 1
vt 0 1
vt 0 0
vt 1 0
vt 1 1
vt 0 1
vt 0 0
vt 1 0
vt 1 1
vt 0 1
vt 0 0
vt 1 0
vt 1 1
vt 0 1
vt 0 0
vt 1 0
vt 1 1
vt 0 1
vt 0 0
vt 1 0
vt 1 1
vt 0 1
vt 0 0
vt 1 0
vt 1 1
vt 0 1
vt 1 1
vt 1 0
vt 0 0
vt 0 1
vt 0 0
vt 1 0
vt 1 1
vt 0 1
vt 0 0
vt 1 0
vt 1 1
vt 0 1
vt 0 0
vt 1 0
vt 1 1
vt 0 1
vt 0 0
vt 1 0
vt 1 1
vt 0 1
vt 0 0
vt 1 0
vt 1 1
vt 0 1
vt 0 0
vt 1 0
vt 1 1
vt 0 1
vt 0 0
vt 1 0
vt 1 1
vt 0 1
vt 0 0
vt 1 0
vt 1 1
vt 0 1
vt 0 0
vt 1 0
vt 1 1
vt 0 1
vt 0 0
vt 1 0
vt 1 1
vt 0 1
vt 0 0
vt 1 0
vt 1 1
vt 0 1
vt 0 0
vt 1 0
vt 1 1
vt 0 1
vt 0 0
vt 1 0
vt 1 1
vt 0 1
vt 0 0
vt 1 0
vt 1 1
vt 0 1
vt 0 0
vt 1 0
vt 1 1
vt 0 1
vt 1 1
vt 1 0
vt 0 0
vt 0 1
vt 0 0
vt 1 0
vt 1 1
vt 0 1
vt 0 0
vt 1 0
vt 1 1
vt 0 1
vt 0 0
vt 1 0
vt 1 1
vt 0 1
vt 0 0
vt 1 0
vt 1 1
vt 0 1
vt 0 0
vt 1 0
vt 1 1
vt 0 1
vt 0 0
vt 1 0
vt 1 1
vt 0 1
vt 0 0
vt 1 0
vt 1 1
vt 0 1
vt 0 0
vt 1 0
vt 1 1
vt 0 1
vt 0 0
vt 1 0
vt 1 1
vt 0 1
vt 0 0
vt 1 0
vt 1 1
vt 0 1
vt 0 0
vt 1 0
vt 1 1
vt 0 1
vt 0 0
vt 1 0
vt 1 1
vt 0 1
vt 0 0
vt 1 0
vt 1 1
vt 0 1
vt 0 0
vt 1 0
vt 1 1
vt 0 1
vt 0 0
vt 1 0
vt 1 1
vt 1 0
vt 0 0
vt 0 1
vt 1 1
vt 0 1
vt 0 0
vt 1 0
vt 1 1
vt 0 1
vt 0 0
vt 1 0
vt 1 1
vt 0 1
vt 0 0
vt 1 0
vt 1 1
vt 0 1
vt 0 0
vt 1 0
vt 1 1
vt 0 1
vt 0 0
vt 1 0
vt 1 1
vt 0 1
vt 0 0
vt 1 0
vt 1 1
vt 0 1
vt 0 0
vt 1 0
vt 1 1
vt 0 1
vt 0 0
vt 1 0
vt 1 1
vt 0 1
vt 0 0
vt 1 0
vt 1 1
vt 0 1
vt 0 0
vt 1 0
vt 1 1
vt 0 1
vt 0 0
vt 1 0
vt 1 1
vt 0 1
vt 0 0
vt 1 0
vt 1 1
vt 0 1
vt 0 0
vt 1 0
vt 1 1
vt 0 1
vt 0 0
vt 1 0
vt 1 1
vt 0 1
vt 0 0
vt 1 0
vt 1 1
vt 0 1
vt 0 0
vt 1 0
vt 1 1
g Plane
f 1/1 2/2 3/3 4/4
f 5/5 8/6 7/7 6/8
f 1/9 5/10 6/11 2/12
f 3/13 7/14 8/15 4/16
f 11/17 9/18 10/19 12/20
f 12/21 13/22 14/23 11/24
f 13/25 16/26 15/27 14/28
f 16/29 17/30 18/31 15/32
f 17/33 20/34 19/35 18/36
f 20/37 21/38 22/39 19/40
f 21/41 24/42 23/43 22/44
f 24/45 25/46 26/47 23/48
f 25/49 28/50 27/51 26/52
f 28/53 29/54 30/55 27/56
f 29/57 32/58 31/59 30/60
f 32/61 33/62 34/63 31/64
f 33/65 36/66 35/67 34/68
f 36/69 37/70 38/71 35/72
f 37/73 40/74 39/75 38/76
f 9/77 39/78 40/79 10/80
f 73/81 58/82 57/83
f 73/84 59/85 58/86
f 73/87 60/88 59/89
f 73/90 61/91 60/92
f 73/93 62/94 61/95
f 73/96 63/97 62/98
f 73/99 64/100 63/101
f 73/102 65/103 64/104
f 73/105 66/106 65/107
f 73/108 67/109 66/110
f 73/111 68/112 67/113
f 73/114 69/115 68/116
f 73/117 70/118 69/119
f 73/120 71/121 70/122
f 73/123 72/124 71/125
f 73/126 57/127 72/128
f 41/129 57/130 58/131 42/132
f 42/133 58/134 59/135 43/136
f 43/137 59/138 60/139 44/140
f 44/141 60/142 61/143 45/144
f 45/145 61/146 62/147 46/148
f 46/149 62/150 63/151 47/152
f 47/153 63/154 64/155 48/156
f 48/157 64/158 65/159 49/160
f 49/161 65/162 66/163 50/164
f 50/165 66/166 67/167 51/168
f 51/169 67/170 68/171 52/172
f 52/173 68/174 69/175 53/176
f 53/177 69/178 70/179 54/180
f 54/181 70/182 71/183 55/184
f 55/185 71/186 72/187 56/188
f 56/189 72/190 57/191 41/192
f 20/193 52/194 53/195 21/196
f 21/197 53/198 54/199 24/200
f 24/201 54/202 55/203 25/204
f 25/205 55/206 56/207 28/208
f 28/209 56/210 41/211 29/212
f 29/213 41/214 42/215 32/216
f 32/217 42/218 43/219 33/220
f 33/221 43/222 44/223 36/224
f 36/225 44/226 45/227 37/228
f 37/229 45/230 46/231 40/232
f 40/233 46/234 47/235 10/236
f 10/237 47/238 48/239 12/240
f 12/241 48/242 49/243 13/244
f 13/245 49/246 50/247 16/248
f 16/249 50/250 51/251 17/252
f 17/253 51/254 52/255 20/256
f 11/257 14/258 75/259 74/260
f 14/261 15/262 76/263 75/264
f 15/265 18/266 77/267 76/268
f 18/269 19/270 78/271 77/272
f 19/273 22/274 79/275 78/276
f 22/277 23/278 80/279 79/280
f 23/281 26/282 81/283 80/284
f 26/285 27/286 82/287 81/288
f 27/289 30/290 83/291 82/292
f 30/293 31/294 84/295 83/296
f 31/297 34/298 85/299 84/300
f 34/301 35/302 86/303 85/304
f 35/305 38/306 87/307 86/308
f 38/309 39/310 88/311 87/312
f 39/313 9/314 89/315 88/316
f 9/317 11/318 74/319 89/320
f 95/321 91/322 90/323 94/324
f 97/325 93/326 92/327 96/328
f 93/329 90/330 91/331 92/332
f 97/333 96/334 95/335 94/336
f 105/337 104/338 100/339 101/340
f 103/341 102/342 98/343 99/344
f 104/345 105/346 102/347 103/348
f 100/349 99/350 98/351 101/352
f 111/353 107/354 106/355 110/356
f 113/357 109/358 108/359 112/360
f 109/361 106/362 107/363 108/364
f 113/365 112/366 111/367 110/368
f 121/369 120/370 116/371 117/372
f 119/373 118/374 114/375 115/376
f 120/377 121/378 118/379 119/380
f 116/381 115/382 114/383 117/384
f 127/385 123/386 122/387 126/388
f 129/389 125/390 124/391 128/392
f 125/393 122/394 123/395 124/396
f 129/397 128/398 127/399 126/400
f 137/401 136/402 132/403 133/404
f 135/405 134/406 130/407 131/408
f 136/409 137/410 134/411 135/412
f 132/413 131/414 130/415 133/416
f 143/417 139/418 138/419 142/420
f 145/421 141/422 140/423 144/424
f 141/425 138/426 139/427 140/428
f 145/429 144/430 143/431 142/432
f 153/433 152/434 148/435 149/436
f 151/437 150/438 146/439 147/440
f 152/441 153/442 150/443 151/444
f 148/445 147/446 146/447 149/448
f 159/449 158/450 154/451 155/452
f 161/453 160/454 156/455 157/456
f 157/457 156/458 155/459 154/460
f 161/461 158/462 159/463 160/464
f 169/465 165/466 164/467 168/468
f 167/469 163/470 162/471 166/472
f 168/473 167/474 166/475 169/476
f 164/477 165/478 162/479 163/480
f 175/481 174/482 170/483 171/484
f 177/485 176/486 172/487 173/488
f 173/489 172/490 171/491 170/492
f 177/493 174/494 175/495 176/496
f 185/497 181/498 180/499 184/500
f 183/501 179/502 178/503 182/504
f 184/505 183/506 182/507 185/508
f 180/509 181/510 178/511 179/512
f 191/513 190/514 186/515 187/516
f 193/517 192/518 188/519 189/520
f 189/521 188/522 187/523 186/524
f 193/525 190/526 191/527 192/528
f 201/529 197/530 196/531 200/532
f 199/533 195/534 194/535 198/536
f 200/537 199/538 198/539 201/540
f 196/541 197/542 194/543 195/544
f 207/545 206/546 202/547 203/548
f 209/549 208/550 204/551 205/552
f 205/553 204/554 203/555 202/556
f 209/557 206/558 207/559 208/560
f 217/561 213/562 212/563 216/564
f 215/565 211/566 210/567 214/568
f 216/569 215/570 214/571 217/572
f 212/573 213/574 210/575 211/576
g Cube.004
f 218/577 219/578 220/579 221/580
f 222/581 225/582 224/583 223/584
f 218/585 222/586 223/587 219/588
f 219/589 223/590 224/591 220/592
f 220/593 224/594 225/595 221/596
f 222/597 218/598 221/599 225/600
f 226/601 227/602 228/603 229/604
f 230/605 233/606 232/607 231/608
f 226/609 230/610 231/611 227/612
f 227/613 231/614 232/615 228/616
f 228/617 232/618 233/619 229/620
f 230/621 226/622 229/623 233/624
f 234/625 235/626 236/627 237/628
f 238/629 241/630 240/631 239/632
f 234/633 238/634 239/635 235/636
f 235/637 239/638 240/639 236/640
f 236/641 240/642 241/643 237/644
f 238/645 234/646 237/647 241/648
f 242/649 243/650 244/651 245/652
f 246/653 249/654 248/655 247/656
f 242/657 246/658 247/659 243/660
f 243/661 247/662 248/663 244/664
f 244/665 248/666 249/667 245/668
f 246/669 242/670 245/671 249/672
f 250/673 251/674 252/675 253/676
f 254/677 257/678 256/679 255/680
f 250/681 254/682 255/683 251/684
f 251/685 255/686 256/687 252/688
f 252/689 256/690 257/691 253/692
f 254/693 250/694 253/695 257/696
f 258/697 259/698 260/699 261/700
f 262/701 265/702 264/703 263/704
f 258/705 262/706 263/707 259/708
f 259/709 263/710 264/711 260/712
f 260/713 264/714 265/715 261/716
f 262/717 258/718 261/719 265/720
g exhaust
f 267/721 266/722 282/723 283/724
f 268/725 267/726 283/727 284/728
f 269/729 268/730 284/731 285/732
f 270/733 269/734 285/735 286/736
f 271/737 270/738 286/739 287/740
f 271/741 287/742 288/743 272/744
f 273/745 272/746 288/747 289/748
f 273/749 289/750 290/751 274/752
f 275/753 274/754 290/755 291/756
f 276/757 275/758 291/759 292/760
f 277/761 276/762 292/763 293/764
f 278/765 277/766 293/767 294/768
f 279/769 278/770 294/771 295/772
f 279/773 295/774 296/775 280/776
f 281/777 280/778 296/779 297/780
f 282/781 266/782 281/783 297/784
f 283/785 282/786 299/787 298/788
f 284/789 283/790 298/791 300/792
f 285/793 284/794 300/795 301/796
f 286/797 285/798 301/799 302/800
f 287/801 286/802 302/803 303/804
f 287/805 303/806 304/807 288/808
f 289/809 288/810 304/811 305/812
f 289/813 305/814 306/815 290/816
f 291/817 290/818 306/819 307/820
f 292/821 291/822 307/823 308/824
f 293/825 292/826 308/827 309/828
f 294/829 293/830 309/831 310/832
f 295/833 294/834 310/835 311/836
f 295/837 311/838 312/839 296/840
f 297/841 296/842 312/843 313/844
f 297/845 313/846 299/847 282/848
f 298/849 299/850 314/851 315/852
f 300/853 298/854 315/855 316/856
f 301/857 300/858 316/859 317/860
f 302/861 301/862 317/863 318/864
f 303/865 302/866 318/867 319/868
f 303/869 319/870 320/871 304/872
f 305/873 304/874 320/875 321/876
f 305/877 321/878 322/879 306/880
f 307/881 306/882 322/883 323/884
f 308/885 307/886 323/887 324/888
f 309/889 308/890 324/891 325/892
f 310/893 309/894 325/895 326/896
f 311/897 310/898 326/899 327/900
f 311/901 327/902 328/903 312/904
f 313/905 312/906 328/907 329/908
f 313/909 329/910 314/911 299/912
f 315/913 314/914 330/915 331/916
f 316/917 315/918 331/919 332/920
f 317/921 316/922 332/923 333/924
f 318/925 317/926 333/927 334/928
f 319/929 318/930 334/931 335/932
f 319/933 335/934 336/935 320/936
f 321/937 320/938 336/939 337/940
f 321/941 337/942 338/943 322/944
f 323/945 322/946 338/947 339/948
f 324/949 323/950 339/951 340/952
f 325/953 324/954 340/955 341/956
f 326/957 325/958 341/959 342/960
f 327/961 326/962 342/963 343/964
f 327/965 343/966 344/967 328/968
f 329/969 328/970 344/971 345/972
f 329/973 345/974 330/975 314/976
f 331/977 330/978 347/979 346/980
f 332/981 331/982 346/983 348/984
f 333/985 332/986 348/987 349/988
f 334/989 333/990 349/991 350/992
f 335/993 334/994 350/995 351/996
f 335/997 351/998 352/999 336/1000
f 337/1001 336/1002 352/1003 353/1004
f 337/1005 353/1006 354/1007 338/1008
f 339/1009 338/1010 354/1011 355/1012
f 340/1013 339/1014 355/1015 356/1016
f 341/1017 340/1018 356/1019 357/1020
f 342/1021 341/1022 357/1023 358/1024
f 343/1025 342/1026 358/1027 359/1028
f 343/1029 359/1030 360/1031 344/1032
f 345/1033 344/1034 360/1035 361/1036
f 345/1037 361/1038 347/1039 330/1040
f 346/1041 347/1042 363/1043 362/1044
f 348/1045 346/1046 362/1047 364/1048
f 349/1049 348/1050 364/1051 365/1052
f 350/1053 349/1054 365/1055 366/1056
f 351/1057 350/1058 366/1059 367/1060
f 352/1061 351/1062 367/1063 368/1064
f 353/1065 352/1066 368/1067 369/1068
f 354/1069 353/1070 369/1071 370/1072
f 355/1073 354/1074 370/1075 371/1076
f 356/1077 355/1078 371/1079 372/1080
f 357/1081 356/1082 372/1083 373/1084
f 358/1085 357/1086 373/1087 374/1088
f 359/1089 358/1090 374/1091 375/1092
f 360/1093 359/1094 375/1095 376/1096
f 361/1097 360/1098 376/1099 377/1100
f 347/1101 361/1102 377/1103 363/1104
f 362/1105 363/1106 379/1107 378/1108
f 364/1109 362/1110 378/1111 380/1112
f 365/1113 364/1114 380/1115 381/1116
f 366/1117 365/1118 381/1119 382/1120
f 367/1121 366/1122 382/1123 383/1124
f 368/1125 367/1126 383/1127 384/1128
f 369/1129 368/1130 384/1131 385/1132
f 370/1133 369/1134 385/1135 386/1136
f 371/1137 370/1138 386/1139 387/1140
f 372/1141 371/1142 387/1143 388/1144
f 373/1145 372/1146 388/1147 389/1148
f 374/1149 373/1150 389/1151 390/1152
f 375/1153 374/1154 390/1155 391/1156
f 376/1157 375/1158 391/1159 392/1160
f 377/1161 376/1162 392/1163 393/1164
f 363/1165 377/1166 393/1167 379/1168
f 378/1169 379/1170 394/1171 395/1172
f 380/1173 378/1174 395/1175 396/1176
f 381/1177 380/1178 396/1179 397/1180
f 382/1181 381/1182 397/1183 398/1184
f 383/1185 382/1186 398/1187 399/1188
f 384/1189 383/1190 399/1191 400/1192
f 385/1193 384/1194 400/1195 401/1196
f 386/1197 385/1198 401/1199 402/1200
f 387/1201 386/1202 402/1203 403/1204
f 388/1205 387/1206 403/1207 404/1208
f 389/1209 388/1210 404/1211 405/1212
f 390/1213 389/1214 405/1215 406/1216
f 391/1217 390/1218 406/1219 407/1220
f 392/1221 391/1222 407/1223 408/1224
f 393/1225 392/1226 408/1227 409/1228
f 379/1229 393/1230 409/1231 394/1232
f 274/1233 275/1234 276/1235 410/1236
f 272/1237 273/1238 274/1239 410/1240
f 270/1241 271/1242 272/1243 410/1244
f 268/1245 269/1246 270/1247 410/1248
f 266/1249 267/1250 268/1251 410/1252
f 266/1253 410/1254 280/1255 281/1256
f 278/1257 279/1258 280/1259 410/1260
f 276/1261 277/1262 278/1263 410/1264
f 395/1265 394/1266 411/1267 412/1268
f 396/1269 395/1270 412/1271 413/1272
f 397/1273 396/1274 413/1275 414/1276
f 398/1277 397/1278 414/1279 415/1280
f 399/1281 398/1282 415/1283 416/1284
f 400/1285 399/1286 416/1287 417/1288
f 401/1289 400/1290 417/1291 418/1292
f 402/1293 401/1294 418/1295 419/1296
f 403/1297 402/1298 419/1299 420/1300
f 404/1301 403/1302 420/1303 421/1304
f 405/1305 404/1306 421/1307 422/1308
f 406/1309 405/1310 422/1311 423/1312
f 407/1313 406/1314 423/1315 424/1316
f 408/1317 407/1318 424/1319 425/1320
f 409/1321 408/1322 425/1323 426/1324
f 394/1325 409/1326 426/1327 411/1328
f 411/1329 426/1330 428/1331 443/1332
f 426/1333 425/1334 429/1335 428/1336
f 425/1337 424/1338 430/1339 429/1340
f 424/1341 423/1342 431/1343 430/1344
f 423/1345 422/1346 432/1347 431/1348
f 422/1349 421/1350 433/1351 432/1352
f 421/1353 420/1354 434/1355 433/1356
f 420/1357 419/1358 435/1359 434/1360
f 419/1361 418/1362 436/1363 435/1364
f 418/1365 417/1366 437/1367 436/1368
f 417/1369 416/1370 438/1371 437/1372
f 416/1373 415/1374 439/1375 438/1376
f 415/1377 414/1378 440/1379 439/1380
f 414/1381 413/1382 441/1383 440/1384
f 413/1385 412/1386 442/1387 441/1388
f 412/1389 411/1390 443/1391 442/1392
f 441/1393 427/1394 439/1395 440/1396
f 439/1397 427/1398 437/1399 438/1400
f 437/1401 427/1402 435/1403 436/1404
f 435/1405 427/1406 433/1407 434/1408
f 433/1409 427/1410 431/1411 432/1412
f 431/1413 427/1414 429/1415 430/1416
f 443/1417 428/1418 429/1419 427/1420
f 443/1421 427/1422 441/1423 442/1424
g shroud
f 445/1425 444/1426 460/1427 461/1428
f 446/1429 445/1430 461/1431 462/1432
f 447/1433 446/1434 462/1435 463/1436
f 448/1437 447/1438 463/1439 464/1440
f 449/1441 448/1442 464/1443 465/1444
f 450/1445 449/1446 465/1447 466/1448
f 451/1449 450/1450 466/1451 467/1452
f 452/1453 451/1454 467/1455 468/1456
f 453/1457 452/1458 468/1459 469/1460
f 454/1461 453/1462 469/1463 470/1464
f 455/1465 454/1466 470/1467 471/1468
f 456/1469 455/1470 471/1471 472/1472
f 457/1473 456/1474 472/1475 473/1476
f 458/1477 457/1478 473/1479 474/1480
f 459/1481 458/1482 474/1483 475/1484
f 444/1485 459/1486 475/1487 460/1488
g cone
f 477/1489 476/1490 478/1491
f 476/1492 477/1493 484/1494 483/1495
f 485/1496 484/1497 477/1498 479/1499
f 486/1500 485/1501 479/1502 480/1503
f 487/1504 486/1505 480/1506 481/1507
f 488/1508 487/1509 481/1510 482/1511
f 490/1512 489/1513 488/1514 482/1515
f 506/1516 491/1517 505/1518 520/1519
f 491/1520 506/1521 507/1522 492/1523
f 508/1524 493/1525 492/1526 507/1527
f 509/1528 494/1529 493/1530 508/1531
f 510/1532 495/1533 494/1534 509/1535
f 511/1536 496/1537 495/1538 510/1539
f 512/1540 497/1541 496/1542 511/1543
f 513/1544 498/1545 497/1546 512/1547
f 514/1548 499/1549 498/1550 513/1551
f 515/1552 500/1553 499/1554 514/1555
f 516/1556 501/1557 489/1558 490/1559
f 517/1560 502/1561 501/1562 516/1563
f 518/1564 503/1565 502/1566 517/1567
f 519/1568 504/1569 503/1570 518/1571
f 520/1572 505/1573 504/1574 519/1575
f 478/1576 520/1577 519/1578
f 506/1579 520/1580 478/1581
f 516/1582 490/1583 478/1584
f 517/1585 516/1586 478/1587
f 518/1588 517/1589 478/1590
f 519/1591 518/1592 478/1593
f 505/1594 521/1595 522/1596 504/1597
f 504/1598 522/1599 523/1600 503/1601
f 503/1602 523/1603 524/1604 502/1605
f 502/1606 524/1607 525/1608 501/1609
f 501/1610 525/1611 526/1612 489/1613
f 500/1614 527/1615 528/1616 499/1617
f 499/1618 528/1619 529/1620 498/1621
f 498/1622 529/1623 530/1624 497/1625
f 497/1626 530/1627 531/1628 496/1629
f 496/1630 531/1631 532/1632 495/1633
f 495/1634 532/1635 533/1636 494/1637
f 494/1638 533/1639 534/1640 493/1641
f 493/1642 534/1643 535/1644 492/1645
f 492/1646 535/1647 536/1648 491/1649
f 491/1650 536/1651 521/1652 505/1653
f 507/1654 506/1655 478/1656
f 508/1657 507/1658 478/1659
f 478/1660 476/1661 509/1662 508/1663
f 476/1664 483/1665 510/1666 509/1667
f 511/1668 510/1669 483/1670 484/1671
f 512/1672 511/1673 484/1674 485/1675
f 478/1676 479/1677 477/1678
f 478/1679 480/1680 479/1681
f 478/1682 481/1683 480/1684
f 478/1685 482/1686 481/1687
f 490/1688 482/1689 478/1690
f 513/1691 512/1692 485/1693 486/1694
f 514/1695 513/1696 486/1697 487/1698
f 515/1699 514/1700 487/1701 488/1702
f 500/1703 526/1704 527/1705
f 515/1706 488/1707 489/1708 526/1709
f 515/1710 526/1711 500/1712
g cone2
f 551/1713 537/1714 553/1715 568/1716
f 537/1717 538/1718 554/1719 553/1720
f 555/1721 554/1722 538/1723 539/1724
f 556/1725 555/1726 539/1727 540/1728
f 557/1729 556/1730 540/1731 541/1732
f 558/1733 557/1734 541/1735 542/1736
f 559/1737 558/1738 542/1739 543/1740
f 560/1741 559/1742 543/1743 544/1744
f 561/1745 560/1746 544/1747 545/1748
f 562/1749 561/1750 545/1751 546/1752
f 563/1753 562/1754 546/1755 547/1756
f 564/1757 563/1758 547/1759 548/1760
f 565/1761 564/1762 548/1763 549/1764
f 566/1765 565/1766 549/1767 550/1768
f 567/1769 566/1770 550/1771 552/1772
f 568/1773 567/1774 552/1775 551/1776
g blades
f 570/1777 569/1778 573/1779 574/1780
f 571/1781 570/1782 574/1783 575/1784
f 572/1785 571/1786 575/1787 576/1788
f 581/1789 582/1790 578/1791 577/1792
f 582/1793 583/1794 579/1795 578/1796
f 583/1797 584/1798 580/1799 579/1800
f 586/1801 585/1802 589/1803 590/1804
f 587/1805 586/1806 590/1807 591/1808
f 588/1809 587/1810 591/1811 592/1812
f 597/1813 598/1814 594/1815 593/1816
f 598/1817 599/1818 595/1819 594/1820
f 599/1821 600/1822 596/1823 595/1824
f 602/1825 601/1826 605/1827 606/1828
f 603/1829 602/1830 606/1831 607/1832
f 604/1833 603/1834 607/1835 608/1836
f 613/1837 614/1838 610/1839 609/1840
f 614/1841 615/1842 611/1843 610/1844
f 615/1845 616/1846 612/1847 611/1848
f 618/1849 617/1850 621/1851 622/1852
f 619/1853 618/1854 622/1855 623/1856
f 620/1857 619/1858 623/1859 624/1860
f 629/1861 630/1862 626/1863 625/1864
f 630/1865 631/1866 627/1867 626/1868
f 631/1869 632/1870 628/1871 627/1872
f 634/1873 633/1874 637/1875 638/1876
f 635/1877 634/1878 638/1879 639/1880
f 636/1881 635/1882 639/1883 640/1884
f 645/1885 646/1886 642/1887 641/1888
f 646/1889 647/1890 643/1891 642/1892
f 647/1893 648/1894 644/1895 643/1896
f 650/1897 649/1898 653/1899 654/1900
f 651/1901 650/1902 654/1903 655/1904
f 652/1905 651/1906 655/1907 656/1908
f 661/1909 662/1910 658/1911 657/1912
f 662/1913 663/1914 659/1915 658/1916
f 663/1917 664/1918 660/1919 659/1920
f 666/1921 665/1922 669/1923 670/1924
f 667/1925 666/1926 670/1927 671/1928
f 668/1929 667/1930 671/1931 672/1932
f 677/1933 678/1934 674/1935 673/1936
f 678/1937 679/1938 675/1939 674/1940
f 679/1941 680/1942 676/1943 675/1944
f 682/1945 681/1946 685/1947 686/1948
f 683/1949 682/1950 686/1951 687/1952
f 684/1953 683/1954 687/1955 688/1956
f 693/1957 694/1958 690/1959 689/1960
f 694/1961 695/1962 691/1963 690/1964
f 695/1965 696/1966 692/1967 691/1968
f 698/1969 697/1970 701/1971 702/1972
f 699/1973 698/1974 702/1975 703/1976
f 700/1977 699/1978 703/1979 704/1980
f 709/1981 710/1982 706/1983 705/1984
f 710/1985 711/1986 707/1987 706/1988
f 711/1989 712/1990 708/1991 707/1992
f 714/1993 713/1994 717/1995 718/1996
f 715/1997 714/1998 718/1999 719/2000
f 716/2001 715/2002 719/2003 720/2004
f 725/2005 726/2006 722/2007 721/2008
f 726/2009 727/2010 723/2011 722/2012
f 727/2013 728/2014 724/2015 723/2016
f 730/2017 729/2018 733/2019 734/2020
f 731/2021 730/2022 734/2023 735/2024
f 732/2025 731/2026 735/2027 736/2028
f 741/2029 742/2030 738/2031 737/2032
f 742/2033 743/2034 739/2035 738/2036
f 743/2037 744/2038 740/2039 739/2040
f 746/2041 745/2042 749/2043 750/2044
f 747/2045 746/2046 750/2047 751/2048
f 748/2049 747/2050 751/2051 752/2052
f 757/2053 758/2054 754/2055 753/2056
f 758/2057 759/2058 755/2059 754/2060
f 759/2061 760/2062 756/2063 755/2064
f 762/2065 761/2066 765/2067 766/2068
f 763/2069 762/2070 766/2071 767/2072
f 764/2073 763/2074 767/2075 768/2076
f 773/2077 774/2078 770/2079 769/2080
f 774/2081 775/2082 771/2083 770/2084
f 775/2085 776/2086 772/2087 771/2088
f 778/2089 777/2090 781/2091 782/2092
f 779/2093 778/2094 782/2095 783/2096
f 780/2097 779/2098 783/2099 784/2100
f 789/2101 790/2102 786/2103 785/2104
f 790/2105 791/2106 787/2107 786/2108
f 791/2109 792/2110 788/2111 787/2112
f 794/2113 793/2114 797/2115 798/2116
f 795/2117 794/2118 798/2119 799/2120
f 796/2121 795/2122 799/2123 800/2124
f 805/2125 806/2126 802/2127 801/2128
f 806/2129 807/2130 803/2131 802/2132
f 807/2133 808/2134 804/2135 803/2136
f 810/2137 809/2138 813/2139 814/2140
f 811/2141 810/2142 814/2143 815/2144
f 812/2145 811/2146 815/2147 816/2148
f 821/2149 822/2150 818/2151 817/2152
f 822/2153 823/2154 819/2155 818/2156
f 823/2157 824/2158 820/2159 819/2160
f 826/2161 825/2162 829/2163 830/2164
f 827/2165 826/2166 830/2167 831/2168
f 828/2169 827/2170 831/2171 832/2172
f 837/2173 838/2174 834/2175 833/2176
f 838/2177 839/2178 835/2179 834/2180
f 839/2181 840/2182 836/2183 835/2184
f 842/2185 841/2186 845/2187 846/2188
f 843/2189 842/2190 846/2191 847/2192
f 844/2193 843/2194 847/2195 848/2196
f 853/2197 854/2198 850/2199 849/2200
f 854/2201 855/2202 851/2203 850/2204
f 855/2205 856/2206 852/2207 851/2208
f 858/2209 857/2210 861/2211 862/2212
f 859/2213 858/2214 862/2215 863/2216
f 860/2217 859/2218 863/2219 864/2220
g fanWheel
f 881/2221 865/2222 879/2223 895/2224
f 866/2225 865/2226 881/2227 882/2228
f 882/2229 883/2230 867/2231 866/2232
f 883/2233 884/2234 868/2235 867/2236
f 884/2237 885/2238 869/2239 868/2240
f 885/2241 886/2242 870/2243 869/2244
f 886/2245 887/2246 871/2247 870/2248
f 887/2249 888/2250 872/2251 871/2252
f 888/2253 889/2254 873/2255 872/2256
f 889/2257 890/2258 874/2259 873/2260
f 890/2261 891/2262 875/2263 874/2264
f 891/2265 892/2266 876/2267 875/2268
f 892/2269 893/2270 877/2271 876/2272
f 893/2273 894/2274 878/2275 877/2276
f 894/2277 896/2278 880/2279 878/2280
f 896/2281 895/2282 879/2283 880/2284
g casing
f 898/2285 897/2286 913/2287 914/2288
f 899/2289 898/2290 914/2291 915/2292
f 900/2293 899/2294 915/2295 916/2296
f 901/2297 900/2298 916/2299 917/2300
f 902/2301 901/2302 917/2303 918/2304
f 903/2305 902/2306 918/2307 919/2308
f 904/2309 903/2310 919/2311 920/2312
f 905/2313 904/2314 920/2315 921/2316
f 906/2317 905/2318 921/2319 922/2320
f 907/2321 906/2322 922/2323 923/2324
f 908/2325 907/2326 923/2327 924/2328
f 909/2329 908/2330 924/2331 925/2332
f 910/2333 909/2334 925/2335 926/2336
f 911/2337 910/2338 926/2339 927/2340
f 912/2341 911/2342 927/2343 928/2344
f 913/2345 897/2346 912/2347 928/2348
f 914/2349 913/2350 930/2351 929/2352
f 915/2353 914/2354 929/2355 931/2356
f 916/2357 915/2358 931/2359 932/2360
f 917/2361 916/2362 932/2363 933/2364
f 918/2365 917/2366 933/2367 934/2368
f 919/2369 918/2370 934/2371 935/2372
f 920/2373 919/2374 935/2375 936/2376
f 921/2377 920/2378 936/2379 937/2380
f 922/2381 921/2382 937/2383 938/2384
f 923/2385 922/2386 938/2387 939/2388
f 924/2389 923/2390 939/2391 940/2392
f 925/2393 924/2394 940/2395 941/2396
f 926/2397 925/2398 941/2399 942/2400
f 927/2401 926/2402 942/2403 943/2404
f 928/2405 927/2406 943/2407 944/2408
f 928/2409 944/2410 930/2411 913/2412
f 945/2413 946/2414 962/2415 961/2416
f 947/2417 945/2418 961/2419 963/2420
f 948/2421 947/2422 963/2423 964/2424
f 949/2425 948/2426 964/2427 965/2428
f 950/2429 949/2430 965/2431 966/2432
f 951/2433 950/2434 966/2435 967/2436
f 952/2437 951/2438 967/2439 968/2440
f 953/2441 952/2442 968/2443 969/2444
f 954/2445 953/2446 969/2447 970/2448
f 955/2449 954/2450 970/2451 971/2452
f 956/2453 955/2454 971/2455 972/2456
f 957/2457 956/2458 972/2459 973/2460
f 958/2461 957/2462 973/2463 974/2464
f 959/2465 958/2466 974/2467 975/2468
f 960/2469 959/2470 975/2471 976/2472
f 960/2473 976/2474 962/2475 946/2476
f 961/2477 962/2478 978/2479 977/2480
f 963/2481 961/2482 977/2483 979/2484
f 964/2485 963/2486 979/2487 980/2488
f 965/2489 964/2490 980/2491 981/2492
f 966/2493 965/2494 981/2495 982/2496
f 967/2497 966/2498 982/2499 983/2500
f 968/2501 967/2502 983/2503 984/2504
f 969/2505 968/2506 984/2507 985/2508
f 970/2509 969/2510 985/2511 986/2512
f 971/2513 970/2514 986/2515 987/2516
f 972/2517 971/2518 987/2519 988/2520
f 973/2521 972/2522 988/2523 989/2524
f 974/2525 973/2526 989/2527 990/2528
f 975/2529 974/2530 990/2531 991/2532
f 976/2533 975/2534 991/2535 992/2536
f 962/2537 976/2538 992/2539 978/2540
f 897/2541 898/2542 994/2543 993/2544
f 898/2545 899/2546 995/2547 994/2548
f 899/2549 900/2550 996/2551 995/2552
f 900/2553 901/2554 997/2555 996/2556
f 901/2557 902/2558 998/2559 997/2560
f 902/2561 903/2562 999/2563 998/2564
f 903/2565 904/2566 1000/2567 999/2568
f 904/2569 905/2570 1001/2571 1000/2572
f 905/2573 906/2574 1002/2575 1001/2576
f 906/2577 907/2578 1003/2579 1002/2580
f 907/2581 908/2582 1004/2583 1003/2584
f 908/2585 909/2586 1005/2587 1004/2588
f 909/2589 910/2590 1006/2591 1005/2592
f 910/2593 911/2594 1007/2595 1006/2596
f 911/2597 912/2598 1008/2599 1007/2600
f 912/2601 897/2602 993/2603 1008/2604
f 991/2605 1007/2606 1008/2607 992/2608
f 990/2609 1006/2610 1007/2611 991/2612
f 989/2613 1005/2614 1006/2615 990/2616
f 988/2617 1004/2618 1005/2619 989/2620
f 987/2621 1003/2622 1004/2623 988/2624
f 986/2625 1002/2626 1003/2627 987/2628
f 985/2629 1001/2630 1002/2631 986/2632
f 984/2633 1000/2634 1001/2635 985/2636
f 983/2637 999/2638 1000/2639 984/2640
f 982/2641 998/2642 999/2643 983/2644
f 981/2645 997/2646 998/2647 982/2648
f 980/2649 996/2650 997/2651 981/2652
f 979/2653 995/2654 996/2655 980/2656
f 977/2657 994/2658 995/2659 979/2660
f 977/2661 978/2662 993/2663 994/2664
f 978/2665 992/2666 1008/2667 993/2668
