# Converted from a320src/A320-family-master/Models/a320.hstab.ac by simengine's ac3d_to_obj tool
# NOTE: materials/textures are not exported — see tools/ac3d_to_obj/main.cpp LIMITATIONS.
v 1.19871 0.865953 1.4981
v 1.60136 0.899596 1.4981
v 1.20341 0.709361 1.4981
v 1.60136 0.641391 1.4981
v 3.79668 1.2962 5.4981
v 3.58077 1.2131 5.4981
v 1.36562 0.859058 1.06855
v 1.08692 0.858582 1.28538
v 1.22485 0.865429 1.41276
v 0.326051 0.82982 1.30131
v 0.655092 0.828686 1.28981
v 0.571556 0.849882 1.24373
v 0.32599 0.82865 1.30132
v 0.640553 0.808716 1.30928
v 0.326505 0.826346 1.30118
v 0.649987 0.801793 1.31408
v 0.870914 0.793341 1.40845
v 0.86444 0.800199 1.40573
v 0.636132 0.814851 1.30317
v 0.329099 0.82233 1.30054
v 0.33686 0.815834 1.29866
v 0.406745 0.785651 1.28188
v 0.728142 0.769059 1.32163
v 0.357589 0.804649 1.29366
v 0.5063 0.755722 1.25835
v 0.706964 0.706341 1.21161
v 0.931658 0.763237 1.4171
v 1.36632 0.585645 1.06984
v 1.02694 0.761374 1.4981
v 0.972112 0.78667 1.4981
v 0.956657 0.798455 1.4981
v 0.950555 0.809405 1.4981
v 0.952372 0.804047 1.4981
v 0.862234 0.806559 1.40282
v 0.954689 0.819344 1.4981
v 0.865734 0.813561 1.39996
v 0.951329 0.814506 1.4981
v 0.968647 0.828274 1.4981
v 0.879934 0.821916 1.39779
v 0.638775 0.821321 1.29637
v 0.954805 0.839353 1.39842
v 1.02177 0.843485 1.4981
v 0.748035 0.842515 1.28243
v 3.99634 1.32908 5.83719
v 3.81717 1.31835 5.79893
v 4.0236 1.34692 6.07715
v 4.19458 1.35878 6.19093
v 4.19458 1.36197 6.17384
v 3.5038 1.26699 5.4981
v 3.75565 1.31229 5.81821
v 3.57305 1.27959 5.4981
v 3.71338 1.30343 5.83146
v 3.98379 1.34237 6.11191
v 3.48139 1.25554 5.4981
v 3.69704 1.29487 5.83639
v 3.48566 1.25955 5.4981
v 3.69481 1.29079 5.8369
v 3.9434 1.32597 6.14704
v 3.95493 1.33434 6.13716
v 3.48054 1.25346 5.4981
v 3.48147 1.24916 5.4981
v 3.69509 1.28753 5.83663
v 3.48057 1.25133 5.4981
v 3.69718 1.2838 5.83575
v 3.94207 1.31854 6.1478
v 3.94184 1.32187 6.1482
v 3.48322 1.24694 5.4981
v 3.50979 1.2329 5.4981
v 3.70579 1.27635 5.8326
v 3.48911 1.24239 5.4981
v 3.8446 1.22778 5.78514
v 3.94959 1.3069 6.14053
v 3.94357 1.3147 6.14626
v 3.79668 1.17562 5.4981
v 4.19458 1.25724 6.17467
v 4.03928 1.25637 6.05775
v 3.90776 1.19827 5.68698
v 4.11913 1.26297 6.13636
v 4.19458 1.27918 6.20828
v 4.19458 1.26524 6.19315
v 4.0739 1.30788 6.20028
v 4.07088 1.31534 6.2046
v 4.19458 1.31649 6.2231
v 4.19458 1.29719 6.21906
v 4.19458 1.33329 6.21853
v 4.07081 1.32667 6.20508
v 4.19458 1.34831 6.20681
v 4.09105 1.34562 6.17697
v 4.11107 1.35235 6.14929
v 4.07658 1.3358 6.19713
v 4.07013 1.31912 6.20575
v 4.07002 1.32244 6.20603
v 4.82363 1.30153 6.22305
v 4.82363 1.29852 6.22305
v 4.81914 1.32315 6.21024
v 4.82224 1.31319 6.21908
v 4.60248 1.3401 6.20359
v 4.81092 1.33171 6.18676
v 4.60248 1.35194 6.18471
v 4.81511 1.32985 6.19872
v 4.60248 1.35501 6.16469
v 4.82228 1.28524 6.21921
v 4.60248 1.26089 6.20472
v 4.81926 1.27354 6.21059
v 4.81523 1.26486 6.19907
v 4.60248 1.23808 6.1646
v 4.81082 1.26062 6.18646
v 4.60248 1.24547 6.18598
v 4.38132 1.35903 6.18378
v 4.40318 1.36241 6.1625
v 4.38131 1.28508 6.21802
v 4.41181 1.23712 6.16268
v 4.38132 1.24715 6.18551
v 4.48386 1.23522 6.16187
v 4.49414 1.23515 6.16191
v 4.5736 1.23657 6.16331
v 4.58093 1.35649 6.16361
v 4.49472 1.36051 6.16169
v 4.48437 1.36082 6.16163
v 4.38132 1.26364 6.20456
v 4.23779 1.251 6.17072
v 4.27267 1.24691 6.16812
v 4.3335 1.24158 6.16502
v 4.32185 1.36309 6.16498
v 4.28126 1.36316 6.16698
v 4.25135 1.36299 6.16897
v 4.38132 1.2386 6.16347
v 4.38132 1.36265 6.16304
v 4.18811 1.30178 5.4981
v 4.37151 1.33062 5.83055
v 4.31153 1.18798 5.81659
v 4.18935 1.14574 5.4981
v 1.83295 0.580168 1.07822
v 1.56811 0.50729 0.520656
v 0.778122 0.445106 -0.0019
v 1.18729 0.435941 -0.0019
v 1.60138 0.444667 -0.0019
v 3.74034 1.06923 4.88778
v 3.18326 1.0267 4.38041
v 1.58242 0.896494 1.46359
v 0.778122 0.752539 -0.0019
v 1.63113 0.81351 -0.0019
v 1.77065 0.857334 0.498503
v 1.21006 0.795851 -0.0019
v 3.83127 1.24362 4.8436
v 2.46767 0.768502 -0.0019
v 2.46767 0.496164 -0.0019
v 2.05181 0.801684 -0.0019
v 2.03342 0.458323 -0.0019
v 4.56988 1.17655 5.4981
v 4.56988 1.26616 5.4981
v 2.94041 0.615248 0.842721
v 2.94042 0.829262 0.842746
v 2.46767 0.880096 0.898997
v 2.46767 0.576875 0.898997
v 2.46767 0.576875 -0.898997
v 2.46767 0.880096 -0.898997
v 2.94042 0.829262 -0.842746
v 2.94041 0.615248 -0.842721
v 4.56988 1.26616 -5.4981
v 4.56988 1.17655 -5.4981
v 2.03342 0.458323 0.0019
v 2.05181 0.801684 0.0019
v 2.46767 0.496164 0.0019
v 2.46767 0.768502 0.0019
v 3.83127 1.24362 -4.8436
v 1.21006 0.795851 0.0019
v 1.77065 0.857334 -0.498503
v 1.63113 0.81351 0.0019
v 0.778122 0.752539 0.0019
v 1.58242 0.896494 -1.46359
v 3.18326 1.0267 -4.38041
v 3.74034 1.06923 -4.88778
v 1.60138 0.444667 0.0019
v 1.18729 0.435941 0.0019
v 0.778122 0.445106 0.0019
v 1.56811 0.50729 -0.520656
v 1.83295 0.580168 -1.07822
v 4.18935 1.14574 -5.4981
v 4.31153 1.18798 -5.81659
v 4.37151 1.33062 -5.83055
v 4.18811 1.30178 -5.4981
v 4.38132 1.36265 -6.16304
v 4.38132 1.2386 -6.16347
v 4.25135 1.36299 -6.16897
v 4.28126 1.36316 -6.16698
v 4.32185 1.36309 -6.16498
v 4.3335 1.24158 -6.16502
v 4.27267 1.24691 -6.16812
v 4.23779 1.251 -6.17072
v 4.38132 1.26364 -6.20456
v 4.48437 1.36082 -6.16163
v 4.49472 1.36051 -6.16169
v 4.58093 1.35649 -6.16361
v 4.5736 1.23657 -6.16331
v 4.49414 1.23515 -6.16191
v 4.48386 1.23522 -6.16187
v 4.38132 1.24715 -6.18551
v 4.41181 1.23712 -6.16268
v 4.38131 1.28508 -6.21802
v 4.40318 1.36241 -6.1625
v 4.38132 1.35903 -6.18378
v 4.60248 1.24547 -6.18598
v 4.81082 1.26062 -6.18646
v 4.60248 1.23808 -6.1646
v 4.81523 1.26486 -6.19907
v 4.81926 1.27354 -6.21059
v 4.60248 1.26089 -6.20472
v 4.82228 1.28524 -6.21921
v 4.60248 1.35501 -6.16469
v 4.81511 1.32985 -6.19872
v 4.60248 1.35194 -6.18471
v 4.81092 1.33171 -6.18676
v 4.60248 1.3401 -6.20359
v 4.82224 1.31319 -6.21908
v 4.81914 1.32315 -6.21024
v 4.82363 1.29852 -6.22305
v 4.82363 1.30153 -6.22305
v 4.07002 1.32244 -6.20603
v 4.07013 1.31912 -6.20575
v 4.07658 1.3358 -6.19713
v 4.11107 1.35235 -6.14929
v 4.09105 1.34562 -6.17697
v 4.19458 1.34831 -6.20681
v 4.07081 1.32667 -6.20508
v 4.19458 1.33329 -6.21853
v 4.19458 1.29719 -6.21906
v 4.19458 1.31649 -6.2231
v 4.07088 1.31534 -6.2046
v 4.0739 1.30788 -6.20028
v 4.19458 1.26524 -6.19315
v 4.19458 1.27918 -6.20828
v 4.11913 1.26297 -6.13636
v 3.90776 1.19827 -5.68698
v 4.03928 1.25637 -6.05775
v 4.19458 1.25724 -6.17467
v 3.79668 1.17562 -5.4981
v 3.94357 1.3147 -6.14626
v 3.94959 1.3069 -6.14053
v 3.8446 1.22778 -5.78514
v 3.48911 1.24239 -5.4981
v 3.70579 1.27635 -5.8326
v 3.50979 1.2329 -5.4981
v 3.48322 1.24694 -5.4981
v 3.94184 1.32187 -6.1482
v 3.94207 1.31854 -6.1478
v 3.69718 1.2838 -5.83575
v 3.48057 1.25133 -5.4981
v 3.69509 1.28753 -5.83663
v 3.48147 1.24916 -5.4981
v 3.48054 1.25346 -5.4981
v 3.95493 1.33434 -6.13716
v 3.9434 1.32597 -6.14704
v 3.69481 1.29079 -5.8369
v 3.48566 1.25955 -5.4981
v 3.69704 1.29487 -5.83639
v 3.48139 1.25554 -5.4981
v 3.98379 1.34237 -6.11191
v 3.71338 1.30343 -5.83146
v 3.57305 1.27959 -5.4981
v 3.75565 1.31229 -5.81821
v 3.5038 1.26699 -5.4981
v 4.19458 1.36197 -6.17384
v 4.19458 1.35878 -6.19093
v 4.0236 1.34692 -6.07715
v 3.81717 1.31835 -5.79893
v 3.99634 1.32908 -5.83719
v 0.748035 0.842515 -1.28243
v 1.02177 0.843485 -1.4981
v 0.954805 0.839353 -1.39842
v 0.638775 0.821321 -1.29637
v 0.879934 0.821916 -1.39779
v 0.968647 0.828274 -1.4981
v 0.951329 0.814506 -1.4981
v 0.865734 0.813561 -1.39996
v 0.954689 0.819344 -1.4981
v 0.862234 0.806559 -1.40282
v 0.952372 0.804047 -1.4981
v 0.950555 0.809405 -1.4981
v 0.956657 0.798455 -1.4981
v 0.972112 0.78667 -1.4981
v 1.02694 0.761374 -1.4981
v 1.36632 0.585645 -1.06984
v 0.931658 0.763237 -1.4171
v 0.706964 0.706341 -1.21161
v 0.5063 0.755722 -1.25835
v 0.357589 0.804649 -1.29366
v 0.728142 0.769059 -1.32163
v 0.406745 0.785651 -1.28188
v 0.33686 0.815834 -1.29866
v 0.329099 0.82233 -1.30054
v 0.636132 0.814851 -1.30317
v 0.86444 0.800199 -1.40573
v 0.870914 0.793341 -1.40845
v 0.649987 0.801793 -1.31408
v 0.326505 0.826346 -1.30118
v 0.640553 0.808716 -1.30928
v 0.32599 0.82865 -1.30132
v 0.571556 0.849882 -1.24373
v 0.655092 0.828686 -1.28981
v 0.326051 0.82982 -1.30131
v 1.22485 0.865429 -1.41276
v 1.08692 0.858582 -1.28538
v 1.36562 0.859058 -1.06855
v 3.58077 1.2131 -5.4981
v 3.79668 1.2962 -5.4981
v 1.60136 0.641391 -1.4981
v 1.20341 0.709361 -1.4981
v 1.60136 0.899596 -1.4981
v 1.19871 0.865953 -1.4981
v 4.81082 1.26062 6.18646
v 4.99912 1.28283 6.21576
v 4.99912 1.30518 6.21356
v 4.99912 1.3045 6.21578
v 4.99912 1.29462 6.22341
v 4.99912 1.28925 6.22194
v 5.17413 1.29251 6.22168
v 4.99912 1.30177 6.21983
v 4.99912 1.29782 6.22268
v 5.17413 1.29185 6.22264
v 4.99912 1.29567 6.22333
v 4.99912 1.29352 6.22335
v 5.17413 1.29056 6.22308
v 5.17413 1.28905 6.22218
v 4.99912 1.28544 6.21912
v 5.17413 1.28855 6.2211
v 2.98158 0.840349 0.96034
v 2.98158 0.62922 0.96034
v 2.94041 0.615248 0.842721
v 3.86524 0.724099 0.734307
v 2.94042 0.829262 0.842746
v 4.99912 1.30524 6.21127
v 4.99912 1.2813 6.2112
v 5.00922 1.22184 5.4981
v 3.94171 0.747662 0.96034
v 4.03534 0.775624 1.22879
v 5.00922 1.21107 5.4981
v 4.57609 1.26523 5.4981
v 4.5751 1.17718 5.4981
v 4.82363 1.30143 6.22306
v 4.82275 1.28812 6.22055
v 4.82315 1.30779 6.2217
v 4.8199 1.27546 6.2124
v 4.81566 1.26555 6.20029
v 4.82212 1.31373 6.21874
v 4.81893 1.32364 6.20962
v 4.81495 1.33001 6.19828
v 4.81505 1.26114 6.18703
v 2.89839 0.663109 0.96034
v 2.87689 0.690485 0.96034
v 2.92682 0.643008 0.96034
v 2.9598 0.631854 0.96034
v 2.99459 0.630574 0.96034
v 2.98158 0.750592 0.96034
v 2.99205 0.838389 0.96034
v 4.81677 1.33085 6.18755
v 2.95785 0.835766 0.96034
v 2.92607 0.819414 0.96034
v 2.90478 0.794397 0.96034
v 2.89545 0.770554 0.96034
v 4.77585 1.29578 6.18187
v 4.77651 1.27994 6.1819
v 4.77817 1.30945 6.18224
v 4.78277 1.27179 6.1827
v 4.79104 1.26568 6.1838
v 4.78587 1.32092 6.18332
v 4.79741 1.3285 6.18491
v 4.81092 1.33124 6.18675
v 4.81082 1.26062 -6.18646
v 4.99912 1.28283 -6.21576
v 4.99912 1.30518 -6.21356
v 4.99912 1.3045 -6.21578
v 4.99912 1.29462 -6.22341
v 4.99912 1.28925 -6.22194
v 5.17413 1.29251 -6.22168
v 4.99912 1.30177 -6.21983
v 4.99912 1.29782 -6.22268
v 5.17413 1.29185 -6.22264
v 4.99912 1.29567 -6.22333
v 4.99912 1.29352 -6.22335
v 5.17413 1.29056 -6.22309
v 5.17413 1.28905 -6.22218
v 4.99912 1.28544 -6.21912
v 5.17413 1.28855 -6.2211
v 2.98158 0.840349 -0.96034
v 2.98158 0.62922 -0.96034
v 2.94041 0.615248 -0.842721
v 3.86524 0.724099 -0.734307
v 2.94042 0.829262 -0.842746
v 4.99912 1.30524 -6.21127
v 4.99912 1.2813 -6.2112
v 5.00922 1.22184 -5.4981
v 3.94171 0.747662 -0.96034
v 4.03534 0.775624 -1.22879
v 5.00922 1.21107 -5.4981
v 4.57609 1.26523 -5.4981
v 4.5751 1.17718 -5.4981
v 4.82363 1.30143 -6.22306
v 4.82275 1.28812 -6.22055
v 4.82315 1.30779 -6.2217
v 4.8199 1.27546 -6.2124
v 4.81566 1.26555 -6.20029
v 4.82212 1.31373 -6.21875
v 4.81893 1.32364 -6.20962
v 4.81495 1.33001 -6.19828
v 4.81505 1.26114 -6.18703
v 2.89839 0.663109 -0.96034
v 2.87689 0.690485 -0.96034
v 2.92682 0.643008 -0.96034
v 2.9598 0.631854 -0.96034
v 2.99459 0.630574 -0.96034
v 2.98158 0.750592 -0.96034
v 2.99205 0.838389 -0.96034
v 4.81677 1.33085 -6.18755
v 2.95785 0.835766 -0.96034
v 2.92607 0.819414 -0.96034
v 2.90478 0.794397 -0.96034
v 2.89545 0.770554 -0.96034
v 4.77585 1.29578 -6.18187
v 4.77651 1.27994 -6.1819
v 4.77817 1.30945 -6.18224
v 4.78277 1.27179 -6.1827
v 4.79104 1.26568 -6.1838
v 4.78587 1.32092 -6.18332
v 4.79741 1.3285 -6.18491
v 4.81092 1.33124 -6.18675
v 3.58077 1.2131 5.4981
v 3.48322 1.24694 5.4981
v 3.48147 1.24916 5.4981
v 3.48057 1.25133 5.4981
v 3.48054 1.25346 5.4981
v 3.5038 1.26699 5.4981
v 3.48139 1.25554 5.4981
v 3.48566 1.25955 5.4981
v 3.48911 1.24239 5.4981
v 3.50979 1.2329 5.4981
v 3.57305 1.27959 5.4981
v 1.20341 0.709361 1.4981
v 0.956657 0.798455 1.4981
v 0.952372 0.804047 1.4981
v 0.950555 0.809405 1.4981
v 0.951329 0.814506 1.4981
v 1.02177 0.843485 1.4981
v 0.954689 0.819344 1.4981
v 0.968647 0.828274 1.4981
v 0.972112 0.78667 1.4981
v 1.02694 0.761374 1.4981
v 1.19871 0.865953 1.4981
v 3.58077 1.2131 -5.4981
v 3.48322 1.24694 -5.4981
v 3.48147 1.24916 -5.4981
v 3.48057 1.25133 -5.4981
v 3.48054 1.25346 -5.4981
v 3.5038 1.26699 -5.4981
v 3.48139 1.25554 -5.4981
v 3.48566 1.25955 -5.4981
v 3.48911 1.24239 -5.4981
v 3.50979 1.2329 -5.4981
v 3.57305 1.27959 -5.4981
v 1.20341 0.709361 -1.4981
v 0.956657 0.798455 -1.4981
v 0.952372 0.804047 -1.4981
v 0.950555 0.809405 -1.4981
v 0.951329 0.814506 -1.4981
v 1.02177 0.843485 -1.4981
v 0.954689 0.819344 -1.4981
v 0.968647 0.828274 -1.4981
v 0.972112 0.78667 -1.4981
v 1.02694 0.761374 -1.4981
v 1.19871 0.865953 -1.4981
vt 0.655792 0.280994
vt 0.655792 0.295433
vt 0.525391 0.210288
vt 0.525391 0.210288
vt 0.525391 0.202269
vt 0.655792 0.280994
vt 0.655792 0.295264
vt 0.655792 0.280994
vt 0.525391 0.202269
vt 0.525391 0.202269
vt 0.525391 0.210011
vt 0.655792 0.295264
vt 0.655792 0.280994
vt 0.655792 0.280994
vt 0.525391 0.202269
vt 0.525391 0.202269
vt 0.525391 0.202269
vt 0.655792 0.280994
vt 0.655792 0.280994
vt 0.669795 0.289447
vt 0.662727 0.299442
vt 0.655792 0.280994
vt 0.662727 0.299442
vt 0.658574 0.294495
vt 0.658574 0.294495
vt 0.655792 0.295433
vt 0.655792 0.280994
vt 0.662207 0.326727
vt 0.662583 0.314927
vt 0.664085 0.317923
vt 0.662207 0.326729
vt 0.661948 0.315449
vt 0.662207 0.326727
vt 0.662207 0.326729
vt 0.662212 0.32671
vt 0.661948 0.315449
vt 0.661948 0.315449
vt 0.662212 0.32671
vt 0.661791 0.31511
vt 0.661948 0.315449
vt 0.661791 0.31511
vt 0.658715 0.307188
vt 0.661948 0.315449
vt 0.658715 0.307188
vt 0.658803 0.30742
vt 0.661948 0.315449
vt 0.658803 0.30742
vt 0.662147 0.315607
vt 0.661948 0.315449
vt 0.662147 0.315607
vt 0.662207 0.326727
vt 0.662212 0.32671
vt 0.662233 0.326617
vt 0.661791 0.31511
vt 0.662233 0.326617
vt 0.662294 0.326339
vt 0.661791 0.31511
vt 0.662841 0.323833
vt 0.661545 0.312308
vt 0.662457 0.325596
vt 0.662841 0.323833
vt 0.663608 0.320263
vt 0.661545 0.312308
vt 0.663608 0.320263
vt 0.665132 0.313067
vt 0.661545 0.312308
vt 0.661545 0.312308
vt 0.665132 0.313067
vt 0.655792 0.295264
vt 0.661545 0.312308
vt 0.655792 0.295264
vt 0.658433 0.305009
vt 0.661545 0.312308
vt 0.658433 0.305009
vt 0.661791 0.31511
vt 0.661545 0.312308
vt 0.661791 0.31511
vt 0.662457 0.325596
vt 0.655792 0.280994
vt 0.655792 0.295264
vt 0.669754 0.289422
vt 0.655792 0.295264
vt 0.655792 0.301593
vt 0.658433 0.305009
vt 0.655792 0.301593
vt 0.655792 0.303559
vt 0.658433 0.305009
vt 0.658433 0.305009
vt 0.655792 0.303559
vt 0.658715 0.307188
vt 0.658433 0.305009
vt 0.658715 0.307188
vt 0.661791 0.31511
vt 0.655792 0.303559
vt 0.655792 0.304113
vt 0.658715 0.307188
vt 0.655792 0.304332
vt 0.658803 0.30742
vt 0.655792 0.304267
vt 0.658803 0.30742
vt 0.655792 0.304332
vt 0.658898 0.307499
vt 0.658803 0.30742
vt 0.658898 0.307499
vt 0.662147 0.315607
vt 0.655792 0.304183
vt 0.658991 0.307373
vt 0.655792 0.304304
vt 0.655792 0.304183
vt 0.655792 0.303683
vt 0.658991 0.307373
vt 0.658991 0.307373
vt 0.655792 0.303683
vt 0.659062 0.306864
vt 0.658991 0.307373
vt 0.659062 0.306864
vt 0.662583 0.314927
vt 0.658991 0.307373
vt 0.662583 0.314927
vt 0.662369 0.315512
vt 0.658991 0.307373
vt 0.662369 0.315512
vt 0.658898 0.307499
vt 0.658991 0.307373
vt 0.658898 0.307499
vt 0.655792 0.304304
vt 0.655792 0.295433
vt 0.659042 0.304179
vt 0.655792 0.301778
vt 0.659042 0.304179
vt 0.655792 0.295433
vt 0.658574 0.294495
vt 0.659042 0.304179
vt 0.658574 0.294495
vt 0.662727 0.299442
vt 0.659042 0.304179
vt 0.662727 0.299442
vt 0.662823 0.311594
vt 0.659042 0.304179
vt 0.662823 0.311594
vt 0.659062 0.306864
vt 0.659042 0.304179
vt 0.659062 0.306864
vt 0.655792 0.301778
vt 0.669795 0.289447
vt 0.664085 0.317923
vt 0.662727 0.299442
vt 0.659062 0.306864
vt 0.662823 0.311594
vt 0.662583 0.314927
vt 0.658898 0.307499
vt 0.662369 0.315512
vt 0.662147 0.315607
vt 0.662583 0.314927
vt 0.662823 0.311594
vt 0.664085 0.317923
vt 0.664085 0.317923
vt 0.662823 0.311594
vt 0.662727 0.299442
vt 0.655792 0.304267
vt 0.658803 0.30742
vt 0.658715 0.307188
vt 0.655792 0.304267
vt 0.658715 0.307188
vt 0.655792 0.304113
vt 0.662147 0.315607
vt 0.662369 0.315512
vt 0.662207 0.326727
vt 0.655792 0.304304
vt 0.658898 0.307499
vt 0.655792 0.304332
vt 0.662294 0.326339
vt 0.662457 0.325596
vt 0.661791 0.31511
vt 0.655792 0.295264
vt 0.665132 0.313067
vt 0.669754 0.289422
vt 0.662207 0.326727
vt 0.662369 0.315512
vt 0.662583 0.314927
vt 0.655792 0.301778
vt 0.659062 0.306864
vt 0.655792 0.303683
vt 0.514336 0.195109
vt 0.525391 0.202269
vt 0.515584 0.201534
vt 0.514336 0.195109
vt 0.515584 0.201534
vt 0.506514 0.194132
vt 0.514336 0.195109
vt 0.506514 0.194132
vt 0.502805 0.188
vt 0.514336 0.195109
vt 0.502805 0.188
vt 0.503362 0.188
vt 0.525391 0.212772
vt 0.514956 0.20374
vt 0.525391 0.210288
vt 0.514956 0.20374
vt 0.525391 0.212772
vt 0.514523 0.205256
vt 0.514956 0.20374
vt 0.514523 0.205256
vt 0.505381 0.195559
vt 0.514956 0.20374
vt 0.505381 0.195559
vt 0.506514 0.194132
vt 0.514956 0.20374
vt 0.506514 0.194132
vt 0.515584 0.201534
vt 0.514956 0.20374
vt 0.515584 0.201534
vt 0.525391 0.210288
vt 0.525391 0.213575
vt 0.514363 0.205842
vt 0.525391 0.213422
vt 0.514363 0.205842
vt 0.525391 0.213575
vt 0.514346 0.205922
vt 0.514363 0.205842
vt 0.514346 0.205922
vt 0.504235 0.197007
vt 0.514363 0.205842
vt 0.504235 0.197007
vt 0.504557 0.196594
vt 0.514363 0.205842
vt 0.504557 0.196594
vt 0.514523 0.205256
vt 0.514363 0.205842
vt 0.514523 0.205256
vt 0.525391 0.213422
vt 0.525391 0.213575
vt 0.525391 0.213606
vt 0.514346 0.205922
vt 0.525391 0.213572
vt 0.514355 0.205912
vt 0.525391 0.213605
vt 0.514355 0.205912
vt 0.525391 0.213572
vt 0.514383 0.205837
vt 0.514355 0.205912
vt 0.514383 0.205837
vt 0.504211 0.197055
vt 0.514355 0.205912
vt 0.504211 0.197055
vt 0.504198 0.197063
vt 0.514355 0.205912
vt 0.504198 0.197063
vt 0.514346 0.205922
vt 0.514355 0.205912
vt 0.514346 0.205922
vt 0.525391 0.213605
vt 0.525391 0.213572
vt 0.525391 0.21351
vt 0.514383 0.205837
vt 0.525391 0.212557
vt 0.514486 0.205528
vt 0.525391 0.213298
vt 0.525391 0.212557
vt 0.525391 0.210011
vt 0.514486 0.205528
vt 0.514486 0.205528
vt 0.525391 0.210011
vt 0.516033 0.20055
vt 0.514486 0.205528
vt 0.516033 0.20055
vt 0.504447 0.196785
vt 0.514486 0.205528
vt 0.504447 0.196785
vt 0.504261 0.197001
vt 0.514486 0.205528
vt 0.504261 0.197001
vt 0.514383 0.205837
vt 0.514486 0.205528
vt 0.514383 0.205837
vt 0.525391 0.213298
vt 0.525391 0.210011
vt 0.525391 0.202269
vt 0.516033 0.20055
vt 0.503335 0.188
vt 0.507146 0.193569
vt 0.519233 0.198285
vt 0.507146 0.193569
vt 0.503335 0.188
vt 0.504584 0.190706
vt 0.507146 0.193569
vt 0.504584 0.190706
vt 0.502239 0.188
vt 0.507146 0.193569
vt 0.502239 0.188
vt 0.504447 0.196785
vt 0.507146 0.193569
vt 0.504447 0.196785
vt 0.516033 0.20055
vt 0.507146 0.193569
vt 0.516033 0.20055
vt 0.519233 0.198285
vt 0.503335 0.188
vt 0.502732 0.188
vt 0.504584 0.190706
vt 0.504447 0.196785
vt 0.502239 0.188
vt 0.5025 0.192328
vt 0.504447 0.196785
vt 0.5025 0.192328
vt 0.502359 0.192436
vt 0.504447 0.196785
vt 0.502359 0.192436
vt 0.504261 0.197001
vt 0.501756 0.188
vt 0.502359 0.192436
vt 0.501888 0.188
vt 0.501905 0.188
vt 0.502343 0.192439
vt 0.501756 0.188
vt 0.502287 0.188
vt 0.50326 0.191713
vt 0.501905 0.188
vt 0.50326 0.191713
vt 0.502287 0.188
vt 0.504162 0.190995
vt 0.50326 0.191713
vt 0.504162 0.190995
vt 0.505381 0.195559
vt 0.50326 0.191713
vt 0.505381 0.195559
vt 0.504557 0.196594
vt 0.50326 0.191713
vt 0.504557 0.196594
vt 0.502602 0.192232
vt 0.50326 0.191713
vt 0.502602 0.192232
vt 0.501905 0.188
vt 0.525391 0.21351
vt 0.525391 0.213298
vt 0.514383 0.205837
vt 0.504211 0.197055
vt 0.514383 0.205837
vt 0.504261 0.197001
vt 0.504211 0.197055
vt 0.504261 0.197001
vt 0.502322 0.192463
vt 0.504211 0.197055
vt 0.502322 0.192463
vt 0.502312 0.192467
vt 0.504211 0.197055
vt 0.502312 0.192467
vt 0.504198 0.197063
vt 0.525391 0.213606
vt 0.525391 0.213605
vt 0.514346 0.205922
vt 0.504235 0.197007
vt 0.514346 0.205922
vt 0.504198 0.197063
vt 0.504235 0.197007
vt 0.504198 0.197063
vt 0.502343 0.192439
vt 0.504235 0.197007
vt 0.502343 0.192439
vt 0.502602 0.192232
vt 0.504235 0.197007
vt 0.502602 0.192232
vt 0.504557 0.196594
vt 0.525391 0.212772
vt 0.525391 0.213422
vt 0.514523 0.205256
vt 0.505381 0.195559
vt 0.514523 0.205256
vt 0.504557 0.196594
vt 0.525391 0.202269
vt 0.525391 0.210288
vt 0.515584 0.201534
vt 0.502343 0.192439
vt 0.501905 0.188
vt 0.502602 0.192232
vt 0.506514 0.194132
vt 0.505381 0.195559
vt 0.504162 0.190995
vt 0.506514 0.194132
vt 0.504162 0.190995
vt 0.502805 0.188
vt 0.502343 0.192439
vt 0.502312 0.192467
vt 0.501756 0.188
vt 0.502359 0.192436
vt 0.501756 0.188
vt 0.502322 0.192463
vt 0.502359 0.192436
vt 0.502322 0.192463
vt 0.504261 0.197001
vt 0.502312 0.192467
vt 0.502343 0.192439
vt 0.504198 0.197063
vt 0.502312 0.192467
vt 0.502322 0.192463
vt 0.501756 0.188
vt 0.502239 0.188
vt 0.501888 0.188
vt 0.5025 0.192328
vt 0.502732 0.188
vt 0.502239 0.188
vt 0.504584 0.190706
vt 0.501888 0.188
vt 0.502359 0.192436
vt 0.5025 0.192328
vt 0.502287 0.188
vt 0.502805 0.188
vt 0.504162 0.190995
vt 0.525391 0.202269
vt 0.519233 0.198285
vt 0.516033 0.20055
vt 0.501757 0.165442
vt 0.501756 0.188
vt 0.501757 0.165442
vt 0.501887 0.165492
vt 0.502175 0.165603
vt 0.502392 0.173373
vt 0.502941 0.165898
vt 0.503007 0.173373
vt 0.502551 0.165748
vt 0.502941 0.165898
vt 0.50366 0.173373
vt 0.503007 0.173373
vt 0.503007 0.173373
vt 0.502392 0.173373
vt 0.502551 0.165748
vt 0.502551 0.165748
vt 0.502392 0.173373
vt 0.502175 0.165603
vt 0.501887 0.165492
vt 0.501756 0.188
vt 0.501757 0.165442
vt 0.501757 0.165442
vt 0.501756 0.188
vt 0.501883 0.16549
vt 0.502355 0.173373
vt 0.502164 0.165599
vt 0.501883 0.16549
vt 0.502164 0.165599
vt 0.502355 0.173373
vt 0.502539 0.165743
vt 0.503663 0.173373
vt 0.50295 0.165902
vt 0.502966 0.173373
vt 0.50295 0.165902
vt 0.502539 0.165743
vt 0.502966 0.173373
vt 0.502966 0.173373
vt 0.502539 0.165743
vt 0.502355 0.173373
vt 0.50236 0.181304
vt 0.502355 0.173373
vt 0.501921 0.181304
vt 0.502355 0.173373
vt 0.50236 0.181304
vt 0.502966 0.173373
vt 0.503725 0.18021
vt 0.503752 0.177626
vt 0.502981 0.181304
vt 0.503752 0.177626
vt 0.503751 0.177258
vt 0.502981 0.181304
vt 0.502981 0.181304
vt 0.503751 0.177258
vt 0.502966 0.173373
vt 0.502981 0.181304
vt 0.502966 0.173373
vt 0.50236 0.181304
vt 0.503663 0.173373
vt 0.502966 0.173373
vt 0.503705 0.174408
vt 0.502355 0.173373
vt 0.501883 0.16549
vt 0.501921 0.181304
vt 0.501921 0.181304
vt 0.501883 0.16549
vt 0.501756 0.188
vt 0.502392 0.173373
vt 0.503007 0.173373
vt 0.503038 0.181304
vt 0.50366 0.173373
vt 0.503695 0.174145
vt 0.503007 0.173373
vt 0.503695 0.174145
vt 0.503758 0.177237
vt 0.503007 0.173373
vt 0.503007 0.173373
vt 0.503758 0.177237
vt 0.503038 0.181304
vt 0.503758 0.177237
vt 0.50376 0.177608
vt 0.503038 0.181304
vt 0.503731 0.18052
vt 0.503038 0.181304
vt 0.50376 0.177608
vt 0.503705 0.174408
vt 0.502966 0.173373
vt 0.503751 0.177258
vt 0.502287 0.188
vt 0.502392 0.173373
vt 0.502805 0.188
vt 0.502392 0.173373
vt 0.502287 0.188
vt 0.501887 0.165492
vt 0.502239 0.188
vt 0.50236 0.181304
vt 0.501888 0.188
vt 0.50236 0.181304
vt 0.502239 0.188
vt 0.502981 0.181304
vt 0.503335 0.188
vt 0.503464 0.186451
vt 0.502732 0.188
vt 0.503464 0.186451
vt 0.503548 0.1852
vt 0.502732 0.188
vt 0.502732 0.188
vt 0.503548 0.1852
vt 0.502981 0.181304
vt 0.502732 0.188
vt 0.502981 0.181304
vt 0.502239 0.188
vt 0.503548 0.1852
vt 0.503649 0.183019
vt 0.502981 0.181304
vt 0.50236 0.181304
vt 0.501921 0.181304
vt 0.501888 0.188
vt 0.501888 0.188
vt 0.501921 0.181304
vt 0.501756 0.188
vt 0.501756 0.188
vt 0.501887 0.165492
vt 0.501905 0.188
vt 0.501905 0.188
vt 0.501887 0.165492
vt 0.502287 0.188
vt 0.502392 0.173373
vt 0.503038 0.181304
vt 0.502805 0.188
vt 0.503731 0.18052
vt 0.50365 0.183436
vt 0.503038 0.181304
vt 0.50365 0.183436
vt 0.503585 0.184892
vt 0.503038 0.181304
vt 0.503038 0.181304
vt 0.503585 0.184892
vt 0.502805 0.188
vt 0.503585 0.184892
vt 0.503521 0.185964
vt 0.502805 0.188
vt 0.503362 0.188
vt 0.502805 0.188
vt 0.503521 0.185964
vt 0.502981 0.181304
vt 0.503649 0.183019
vt 0.503725 0.18021
vt 0.503362 0.188
vt 0.5037 0.181303
vt 0.503714 0.181303
vt 0.503335 0.188
vt 0.5037 0.181303
vt 0.503362 0.188
vt 0.503362 0.188
vt 0.525391 0.202269
vt 0.503335 0.188
vt 0.525391 0.202269
vt 0.525391 0.202269
vt 0.503335 0.188
vt 0.525391 0.188232
vt 0.525391 0.202269
vt 0.514553 0.181655
vt 0.525391 0.202269
vt 0.503362 0.188
vt 0.514553 0.181655
vt 0.503362 0.188
vt 0.503714 0.181303
vt 0.514553 0.181655
vt 0.503714 0.181303
vt 0.50366 0.173373
vt 0.514553 0.181655
vt 0.5037 0.181303
vt 0.503335 0.188
vt 0.515008 0.183806
vt 0.5037 0.181303
vt 0.515008 0.183806
vt 0.503663 0.173373
vt 0.503335 0.188
vt 0.525391 0.202269
vt 0.515008 0.183806
vt 0.525391 0.202269
vt 0.525391 0.188188
vt 0.515008 0.183806
vt 0.66948 0.272689
vt 0.545288 0.204289
vt 0.561828 0.224266
vt 0.66948 0.272689
vt 0.704692 0.310515
vt 0.687657 0.282186
vt 0.704692 0.310515
vt 0.704692 0.295842
vt 0.687657 0.282186
vt 0.525391 0.188188
vt 0.525391 0.202269
vt 0.545288 0.204289
vt 0.525391 0.202269
vt 0.561828 0.224266
vt 0.545288 0.204289
vt 0.561828 0.224266
vt 0.704692 0.310515
vt 0.66948 0.272689
vt 0.704692 0.280993
vt 0.687657 0.282186
vt 0.704692 0.295842
vt 0.704692 0.310515
vt 0.704692 0.310515
vt 0.656917 0.281673
vt 0.704692 0.310515
vt 0.561828 0.224266
vt 0.656917 0.281673
vt 0.525391 0.202269
vt 0.525391 0.202269
vt 0.561828 0.224266
vt 0.525391 0.202269
vt 0.656917 0.281673
vt 0.561828 0.224266
vt 0.704692 0.295026
vt 0.704692 0.310515
vt 0.688379 0.274923
vt 0.546728 0.201029
vt 0.688379 0.274923
vt 0.525391 0.202269
vt 0.525391 0.202269
vt 0.525391 0.188232
vt 0.546728 0.201029
vt 0.704692 0.295026
vt 0.688379 0.274923
vt 0.704692 0.279926
vt 0.704692 0.310515
vt 0.525391 0.202269
vt 0.688379 0.274923
vt 0.525391 0.174542
vt 0.525391 0.174542
vt 0.50295 0.165902
vt 0.502941 0.165898
vt 0.50295 0.165902
vt 0.525391 0.174542
vt 0.50366 0.173373
vt 0.502941 0.165898
vt 0.514553 0.181655
vt 0.525391 0.174542
vt 0.525391 0.188232
vt 0.514553 0.181655
vt 0.525391 0.174542
vt 0.514553 0.181655
vt 0.502941 0.165898
vt 0.50295 0.165902
vt 0.503663 0.173373
vt 0.525391 0.174542
vt 0.525391 0.174542
vt 0.503663 0.173373
vt 0.515008 0.183806
vt 0.525391 0.174542
vt 0.515008 0.183806
vt 0.525391 0.188188
vt 0.677158 0.232975
vt 0.677157 0.232975
vt 0.525391 0.174542
vt 0.677157 0.232975
vt 0.525391 0.174542
vt 0.525391 0.174542
vt 0.675323 0.249927
vt 0.675323 0.249927
vt 0.704692 0.249927
vt 0.675323 0.249927
vt 0.704692 0.249927
vt 0.704692 0.249927
vt 0.66948 0.272689
vt 0.687657 0.282186
vt 0.675323 0.249927
vt 0.66948 0.272689
vt 0.675323 0.249927
vt 0.545288 0.204289
vt 0.704692 0.249927
vt 0.675323 0.249927
vt 0.704692 0.2655
vt 0.525391 0.174542
vt 0.545288 0.204289
vt 0.677158 0.232975
vt 0.525391 0.174542
vt 0.525391 0.188188
vt 0.545288 0.204289
vt 0.675323 0.249927
vt 0.687657 0.282186
vt 0.704692 0.2655
vt 0.545288 0.204289
vt 0.675323 0.249927
vt 0.677158 0.232975
vt 0.704692 0.280993
vt 0.704692 0.2655
vt 0.687657 0.282186
vt 0.704692 0.249927
vt 0.704692 0.26484
vt 0.675323 0.249927
vt 0.704692 0.26484
vt 0.704692 0.279926
vt 0.675323 0.249927
vt 0.675323 0.249927
vt 0.704692 0.279926
vt 0.688379 0.274923
vt 0.525391 0.174542
vt 0.546728 0.201029
vt 0.525391 0.188232
vt 0.677157 0.232975
vt 0.675323 0.249927
vt 0.525391 0.174542
vt 0.525391 0.174542
vt 0.675323 0.249927
vt 0.688379 0.274923
vt 0.525391 0.174542
vt 0.688379 0.274923
vt 0.546728 0.201029
vt 0.474609 0.174542
vt 0.453272 0.201029
vt 0.311621 0.274923
vt 0.474609 0.174542
vt 0.311621 0.274923
vt 0.324677 0.249927
vt 0.322843 0.232975
vt 0.474609 0.174542
vt 0.324677 0.249927
vt 0.474609 0.174542
vt 0.474609 0.188232
vt 0.453272 0.201029
vt 0.324677 0.249927
vt 0.311621 0.274923
vt 0.295308 0.279926
vt 0.295308 0.26484
vt 0.324677 0.249927
vt 0.295308 0.279926
vt 0.295308 0.249927
vt 0.324677 0.249927
vt 0.295308 0.26484
vt 0.295308 0.280993
vt 0.312343 0.282186
vt 0.295308 0.2655
vt 0.454712 0.204289
vt 0.322842 0.232975
vt 0.324677 0.249927
vt 0.324677 0.249927
vt 0.295308 0.2655
vt 0.312343 0.282186
vt 0.474609 0.174542
vt 0.454712 0.204289
vt 0.474609 0.188188
vt 0.474609 0.174542
vt 0.322842 0.232975
vt 0.454712 0.204289
vt 0.295308 0.249927
vt 0.295308 0.2655
vt 0.324677 0.249927
vt 0.33052 0.272689
vt 0.454712 0.204289
vt 0.324677 0.249927
vt 0.33052 0.272689
vt 0.324677 0.249927
vt 0.312343 0.282186
vt 0.324677 0.249927
vt 0.295308 0.249927
vt 0.295308 0.249927
vt 0.324677 0.249927
vt 0.295308 0.249927
vt 0.324677 0.249927
vt 0.322843 0.232975
vt 0.474609 0.174542
vt 0.474609 0.174542
vt 0.322842 0.232975
vt 0.474609 0.174542
vt 0.322843 0.232975
vt 0.474609 0.174542
vt 0.474609 0.188188
vt 0.484992 0.183806
vt 0.474609 0.174542
vt 0.484992 0.183806
vt 0.496337 0.173373
vt 0.49705 0.165902
vt 0.474609 0.174542
vt 0.496337 0.173373
vt 0.474609 0.174542
vt 0.497059 0.165898
vt 0.485447 0.181655
vt 0.474609 0.174542
vt 0.485447 0.181655
vt 0.474609 0.188232
vt 0.49634 0.173373
vt 0.485447 0.181655
vt 0.497059 0.165898
vt 0.497059 0.165898
vt 0.474609 0.174542
vt 0.49705 0.165902
vt 0.474609 0.174542
vt 0.49705 0.165902
vt 0.474609 0.174542
vt 0.295308 0.310515
vt 0.311621 0.274923
vt 0.474609 0.202269
vt 0.295308 0.295026
vt 0.295308 0.279926
vt 0.311621 0.274923
vt 0.474609 0.202269
vt 0.453272 0.201029
vt 0.474609 0.188232
vt 0.453272 0.201029
vt 0.474609 0.202269
vt 0.311621 0.274923
vt 0.295308 0.295026
vt 0.311621 0.274923
vt 0.295308 0.310515
vt 0.474609 0.202269
vt 0.438172 0.224266
vt 0.343083 0.281673
vt 0.474609 0.202269
vt 0.438172 0.224266
vt 0.474609 0.202269
vt 0.295308 0.310515
vt 0.343083 0.281673
vt 0.438172 0.224266
vt 0.295308 0.310515
vt 0.343083 0.281673
vt 0.295308 0.310515
vt 0.295308 0.280993
vt 0.295308 0.295842
vt 0.312343 0.282186
vt 0.438172 0.224266
vt 0.33052 0.272689
vt 0.295308 0.310515
vt 0.474609 0.202269
vt 0.454712 0.204289
vt 0.438172 0.224266
vt 0.474609 0.188188
vt 0.454712 0.204289
vt 0.474609 0.202269
vt 0.295308 0.310515
vt 0.312343 0.282186
vt 0.295308 0.295842
vt 0.33052 0.272689
vt 0.312343 0.282186
vt 0.295308 0.310515
vt 0.33052 0.272689
vt 0.438172 0.224266
vt 0.454712 0.204289
vt 0.474609 0.202269
vt 0.484992 0.183806
vt 0.474609 0.188188
vt 0.496665 0.188
vt 0.484992 0.183806
vt 0.474609 0.202269
vt 0.4963 0.181303
vt 0.496337 0.173373
vt 0.484992 0.183806
vt 0.4963 0.181303
vt 0.484992 0.183806
vt 0.496665 0.188
vt 0.496286 0.181303
vt 0.485447 0.181655
vt 0.49634 0.173373
vt 0.496638 0.188
vt 0.485447 0.181655
vt 0.496286 0.181303
vt 0.474609 0.202269
vt 0.485447 0.181655
vt 0.496638 0.188
vt 0.474609 0.188232
vt 0.485447 0.181655
vt 0.474609 0.202269
vt 0.474609 0.202269
vt 0.496665 0.188
vt 0.474609 0.202269
vt 0.496638 0.188
vt 0.496665 0.188
vt 0.474609 0.202269
vt 0.496665 0.188
vt 0.496638 0.188
vt 0.4963 0.181303
vt 0.496638 0.188
vt 0.496286 0.181303
vt 0.4963 0.181303
vt 0.497019 0.181304
vt 0.496275 0.18021
vt 0.496351 0.183019
vt 0.496638 0.188
vt 0.496479 0.185964
vt 0.497195 0.188
vt 0.496415 0.184892
vt 0.497195 0.188
vt 0.496479 0.185964
vt 0.496962 0.181304
vt 0.497195 0.188
vt 0.496415 0.184892
vt 0.49635 0.183436
vt 0.496962 0.181304
vt 0.496415 0.184892
vt 0.496269 0.18052
vt 0.496962 0.181304
vt 0.49635 0.183436
vt 0.497608 0.173373
vt 0.497195 0.188
vt 0.496962 0.181304
vt 0.498095 0.188
vt 0.497713 0.188
vt 0.498113 0.165492
vt 0.498244 0.188
vt 0.498095 0.188
vt 0.498113 0.165492
vt 0.498112 0.188
vt 0.498244 0.188
vt 0.498079 0.181304
vt 0.49764 0.181304
vt 0.498112 0.188
vt 0.498079 0.181304
vt 0.496452 0.1852
vt 0.497019 0.181304
vt 0.496351 0.183019
vt 0.497268 0.188
vt 0.497761 0.188
vt 0.497019 0.181304
vt 0.497268 0.188
vt 0.497019 0.181304
vt 0.496452 0.1852
vt 0.496536 0.186451
vt 0.497268 0.188
vt 0.496452 0.1852
vt 0.496665 0.188
vt 0.497268 0.188
vt 0.496536 0.186451
vt 0.49764 0.181304
vt 0.497019 0.181304
vt 0.497761 0.188
vt 0.497761 0.188
vt 0.498112 0.188
vt 0.49764 0.181304
vt 0.497608 0.173373
vt 0.498113 0.165492
vt 0.497713 0.188
vt 0.497713 0.188
vt 0.497195 0.188
vt 0.497608 0.173373
vt 0.496295 0.174408
vt 0.496249 0.177258
vt 0.497034 0.173373
vt 0.496269 0.18052
vt 0.49624 0.177608
vt 0.496962 0.181304
vt 0.496242 0.177237
vt 0.496962 0.181304
vt 0.49624 0.177608
vt 0.496993 0.173373
vt 0.496962 0.181304
vt 0.496242 0.177237
vt 0.496305 0.174145
vt 0.496993 0.173373
vt 0.496242 0.177237
vt 0.49634 0.173373
vt 0.496993 0.173373
vt 0.496305 0.174145
vt 0.497608 0.173373
vt 0.496962 0.181304
vt 0.496993 0.173373
vt 0.498079 0.181304
vt 0.498244 0.188
vt 0.498117 0.16549
vt 0.497645 0.173373
vt 0.498079 0.181304
vt 0.498117 0.16549
vt 0.496337 0.173373
vt 0.496295 0.174408
vt 0.497034 0.173373
vt 0.497019 0.181304
vt 0.49764 0.181304
vt 0.497034 0.173373
vt 0.497019 0.181304
vt 0.497034 0.173373
vt 0.496249 0.177258
vt 0.496248 0.177626
vt 0.497019 0.181304
vt 0.496249 0.177258
vt 0.496275 0.18021
vt 0.497019 0.181304
vt 0.496248 0.177626
vt 0.497645 0.173373
vt 0.497034 0.173373
vt 0.49764 0.181304
vt 0.49764 0.181304
vt 0.498079 0.181304
vt 0.497645 0.173373
vt 0.497034 0.173373
vt 0.497645 0.173373
vt 0.497461 0.165743
vt 0.49705 0.165902
vt 0.497034 0.173373
vt 0.497461 0.165743
vt 0.496337 0.173373
vt 0.497034 0.173373
vt 0.49705 0.165902
vt 0.497836 0.165599
vt 0.497461 0.165743
vt 0.497645 0.173373
vt 0.497645 0.173373
vt 0.498117 0.16549
vt 0.497836 0.165599
vt 0.498243 0.165442
vt 0.498117 0.16549
vt 0.498244 0.188
vt 0.498113 0.165492
vt 0.498243 0.165442
vt 0.498244 0.188
vt 0.497449 0.165748
vt 0.497825 0.165603
vt 0.497608 0.173373
vt 0.496993 0.173373
vt 0.497449 0.165748
vt 0.497608 0.173373
vt 0.497059 0.165898
vt 0.496993 0.173373
vt 0.49634 0.173373
vt 0.497059 0.165898
vt 0.497449 0.165748
vt 0.496993 0.173373
vt 0.498113 0.165492
vt 0.497608 0.173373
vt 0.497825 0.165603
vt 0.498243 0.165442
vt 0.498243 0.165442
vt 0.498244 0.188
vt 0.474609 0.202269
vt 0.483967 0.20055
vt 0.480767 0.198285
vt 0.497713 0.188
vt 0.495838 0.190995
vt 0.497195 0.188
vt 0.498112 0.188
vt 0.4975 0.192328
vt 0.497641 0.192436
vt 0.497268 0.188
vt 0.495416 0.190706
vt 0.497761 0.188
vt 0.497761 0.188
vt 0.4975 0.192328
vt 0.498112 0.188
vt 0.497688 0.192467
vt 0.498244 0.188
vt 0.497678 0.192463
vt 0.497688 0.192467
vt 0.495802 0.197063
vt 0.497657 0.192439
vt 0.497641 0.192436
vt 0.495739 0.197001
vt 0.497678 0.192463
vt 0.497641 0.192436
vt 0.497678 0.192463
vt 0.498244 0.188
vt 0.497657 0.192439
vt 0.498244 0.188
vt 0.497688 0.192467
vt 0.493486 0.194132
vt 0.497195 0.188
vt 0.495838 0.190995
vt 0.493486 0.194132
vt 0.495838 0.190995
vt 0.494619 0.195559
vt 0.497657 0.192439
vt 0.497398 0.192232
vt 0.498095 0.188
vt 0.474609 0.202269
vt 0.484416 0.201534
vt 0.474609 0.210288
vt 0.494619 0.195559
vt 0.495443 0.196594
vt 0.485477 0.205256
vt 0.474609 0.212772
vt 0.485477 0.205256
vt 0.474609 0.213422
vt 0.495765 0.197007
vt 0.495443 0.196594
vt 0.497398 0.192232
vt 0.495765 0.197007
vt 0.497398 0.192232
vt 0.497657 0.192439
vt 0.495765 0.197007
vt 0.497657 0.192439
vt 0.495802 0.197063
vt 0.495765 0.197007
vt 0.495802 0.197063
vt 0.485654 0.205922
vt 0.474609 0.213606
vt 0.485654 0.205922
vt 0.474609 0.213605
vt 0.495789 0.197055
vt 0.495802 0.197063
vt 0.497688 0.192467
vt 0.495789 0.197055
vt 0.497688 0.192467
vt 0.497678 0.192463
vt 0.495789 0.197055
vt 0.497678 0.192463
vt 0.495739 0.197001
vt 0.495789 0.197055
vt 0.495739 0.197001
vt 0.485617 0.205837
vt 0.474609 0.21351
vt 0.485617 0.205837
vt 0.474609 0.213298
vt 0.49674 0.191713
vt 0.498095 0.188
vt 0.497398 0.192232
vt 0.49674 0.191713
vt 0.497398 0.192232
vt 0.495443 0.196594
vt 0.49674 0.191713
vt 0.495443 0.196594
vt 0.494619 0.195559
vt 0.49674 0.191713
vt 0.494619 0.195559
vt 0.495838 0.190995
vt 0.49674 0.191713
vt 0.495838 0.190995
vt 0.497713 0.188
vt 0.497713 0.188
vt 0.498095 0.188
vt 0.49674 0.191713
vt 0.498095 0.188
vt 0.498244 0.188
vt 0.497657 0.192439
vt 0.498244 0.188
vt 0.498112 0.188
vt 0.497641 0.192436
vt 0.495553 0.196785
vt 0.495739 0.197001
vt 0.497641 0.192436
vt 0.495553 0.196785
vt 0.497641 0.192436
vt 0.4975 0.192328
vt 0.495553 0.196785
vt 0.4975 0.192328
vt 0.497761 0.188
vt 0.496665 0.188
vt 0.495416 0.190706
vt 0.497268 0.188
vt 0.492854 0.193569
vt 0.480767 0.198285
vt 0.483967 0.20055
vt 0.492854 0.193569
vt 0.483967 0.20055
vt 0.495553 0.196785
vt 0.492854 0.193569
vt 0.495553 0.196785
vt 0.497761 0.188
vt 0.492854 0.193569
vt 0.497761 0.188
vt 0.495416 0.190706
vt 0.492854 0.193569
vt 0.495416 0.190706
vt 0.496665 0.188
vt 0.496665 0.188
vt 0.480767 0.198285
vt 0.492854 0.193569
vt 0.474609 0.210011
vt 0.483967 0.20055
vt 0.474609 0.202269
vt 0.485514 0.205528
vt 0.474609 0.213298
vt 0.485617 0.205837
vt 0.485514 0.205528
vt 0.485617 0.205837
vt 0.495739 0.197001
vt 0.485514 0.205528
vt 0.495739 0.197001
vt 0.495553 0.196785
vt 0.485514 0.205528
vt 0.495553 0.196785
vt 0.483967 0.20055
vt 0.485514 0.205528
vt 0.483967 0.20055
vt 0.474609 0.210011
vt 0.474609 0.212557
vt 0.485514 0.205528
vt 0.474609 0.210011
vt 0.474609 0.212557
vt 0.474609 0.213298
vt 0.485514 0.205528
vt 0.474609 0.213572
vt 0.485617 0.205837
vt 0.474609 0.21351
vt 0.485645 0.205912
vt 0.474609 0.213605
vt 0.485654 0.205922
vt 0.485645 0.205912
vt 0.485654 0.205922
vt 0.495802 0.197063
vt 0.485645 0.205912
vt 0.495802 0.197063
vt 0.495789 0.197055
vt 0.485645 0.205912
vt 0.495789 0.197055
vt 0.485617 0.205837
vt 0.485645 0.205912
vt 0.485617 0.205837
vt 0.474609 0.213572
vt 0.474609 0.213572
vt 0.474609 0.213605
vt 0.485645 0.205912
vt 0.474609 0.213575
vt 0.485654 0.205922
vt 0.474609 0.213606
vt 0.485637 0.205842
vt 0.474609 0.213422
vt 0.485477 0.205256
vt 0.485637 0.205842
vt 0.485477 0.205256
vt 0.495443 0.196594
vt 0.485637 0.205842
vt 0.495443 0.196594
vt 0.495765 0.197007
vt 0.485637 0.205842
vt 0.495765 0.197007
vt 0.485654 0.205922
vt 0.485637 0.205842
vt 0.485654 0.205922
vt 0.474609 0.213575
vt 0.474609 0.213575
vt 0.474609 0.213422
vt 0.485637 0.205842
vt 0.485044 0.20374
vt 0.474609 0.210288
vt 0.484416 0.201534
vt 0.485044 0.20374
vt 0.484416 0.201534
vt 0.493486 0.194132
vt 0.485044 0.20374
vt 0.493486 0.194132
vt 0.494619 0.195559
vt 0.485044 0.20374
vt 0.494619 0.195559
vt 0.485477 0.205256
vt 0.485044 0.20374
vt 0.485477 0.205256
vt 0.474609 0.212772
vt 0.474609 0.212772
vt 0.474609 0.210288
vt 0.485044 0.20374
vt 0.485664 0.195109
vt 0.496638 0.188
vt 0.497195 0.188
vt 0.485664 0.195109
vt 0.497195 0.188
vt 0.493486 0.194132
vt 0.485664 0.195109
vt 0.493486 0.194132
vt 0.484416 0.201534
vt 0.485664 0.195109
vt 0.484416 0.201534
vt 0.474609 0.202269
vt 0.344208 0.301778
vt 0.344208 0.303683
vt 0.340938 0.306864
vt 0.337793 0.326727
vt 0.337417 0.314927
vt 0.337631 0.315512
vt 0.344208 0.295264
vt 0.330246 0.289422
vt 0.334868 0.313067
vt 0.337706 0.326339
vt 0.338209 0.31511
vt 0.337543 0.325596
vt 0.344208 0.304304
vt 0.344208 0.304332
vt 0.341102 0.307499
vt 0.337853 0.315607
vt 0.337793 0.326727
vt 0.337631 0.315512
vt 0.344208 0.304267
vt 0.344208 0.304113
vt 0.341285 0.307188
vt 0.344208 0.304267
vt 0.341285 0.307188
vt 0.341197 0.30742
vt 0.335915 0.317923
vt 0.337273 0.299442
vt 0.337177 0.311594
vt 0.337417 0.314927
vt 0.335915 0.317923
vt 0.337177 0.311594
vt 0.341102 0.307499
vt 0.337853 0.315607
vt 0.337631 0.315512
vt 0.340938 0.306864
vt 0.337417 0.314927
vt 0.337177 0.311594
vt 0.330205 0.289447
vt 0.337273 0.299442
vt 0.335915 0.317923
vt 0.340958 0.304179
vt 0.344208 0.301778
vt 0.340938 0.306864
vt 0.340958 0.304179
vt 0.340938 0.306864
vt 0.337177 0.311594
vt 0.340958 0.304179
vt 0.337177 0.311594
vt 0.337273 0.299442
vt 0.340958 0.304179
vt 0.337273 0.299442
vt 0.341426 0.294495
vt 0.340958 0.304179
vt 0.341426 0.294495
vt 0.344208 0.295433
vt 0.344208 0.295433
vt 0.344208 0.301778
vt 0.340958 0.304179
vt 0.341009 0.307373
vt 0.344208 0.304304
vt 0.341102 0.307499
vt 0.341009 0.307373
vt 0.341102 0.307499
vt 0.337631 0.315512
vt 0.341009 0.307373
vt 0.337631 0.315512
vt 0.337417 0.314927
vt 0.341009 0.307373
vt 0.337417 0.314927
vt 0.340938 0.306864
vt 0.341009 0.307373
vt 0.340938 0.306864
vt 0.344208 0.303683
vt 0.344208 0.304183
vt 0.341009 0.307373
vt 0.344208 0.303683
vt 0.344208 0.304183
vt 0.344208 0.304304
vt 0.341009 0.307373
vt 0.341197 0.30742
vt 0.337853 0.315607
vt 0.341102 0.307499
vt 0.341197 0.30742
vt 0.341102 0.307499
vt 0.344208 0.304332
vt 0.344208 0.304332
vt 0.344208 0.304267
vt 0.341197 0.30742
vt 0.344208 0.303559
vt 0.341285 0.307188
vt 0.344208 0.304113
vt 0.341567 0.305009
vt 0.338209 0.31511
vt 0.341285 0.307188
vt 0.341567 0.305009
vt 0.341285 0.307188
vt 0.344208 0.303559
vt 0.344208 0.301593
vt 0.341567 0.305009
vt 0.344208 0.303559
vt 0.344208 0.295264
vt 0.341567 0.305009
vt 0.344208 0.301593
vt 0.344208 0.280994
vt 0.330246 0.289422
vt 0.344208 0.295264
vt 0.338455 0.312308
vt 0.337543 0.325596
vt 0.338209 0.31511
vt 0.338455 0.312308
vt 0.338209 0.31511
vt 0.341567 0.305009
vt 0.338455 0.312308
vt 0.341567 0.305009
vt 0.344208 0.295264
vt 0.338455 0.312308
vt 0.344208 0.295264
vt 0.334868 0.313067
vt 0.336392 0.320263
vt 0.338455 0.312308
vt 0.334868 0.313067
vt 0.337159 0.323833
vt 0.338455 0.312308
vt 0.336392 0.320263
vt 0.337159 0.323833
vt 0.337543 0.325596
vt 0.338455 0.312308
vt 0.337767 0.326617
vt 0.338209 0.31511
vt 0.337706 0.326339
vt 0.337788 0.32671
vt 0.338209 0.31511
vt 0.337767 0.326617
vt 0.338052 0.315449
vt 0.337793 0.326727
vt 0.337853 0.315607
vt 0.338052 0.315449
vt 0.337853 0.315607
vt 0.341197 0.30742
vt 0.338052 0.315449
vt 0.341197 0.30742
vt 0.341285 0.307188
vt 0.338052 0.315449
vt 0.341285 0.307188
vt 0.338209 0.31511
vt 0.338052 0.315449
vt 0.338209 0.31511
vt 0.337788 0.32671
vt 0.337793 0.326729
vt 0.338052 0.315449
vt 0.337788 0.32671
vt 0.337793 0.326729
vt 0.337793 0.326727
vt 0.338052 0.315449
vt 0.337793 0.326727
vt 0.335915 0.317923
vt 0.337417 0.314927
vt 0.341426 0.294495
vt 0.344208 0.280994
vt 0.344208 0.295433
vt 0.344208 0.280994
vt 0.341426 0.294495
vt 0.337273 0.299442
vt 0.344208 0.280994
vt 0.337273 0.299442
vt 0.330205 0.289447
vt 0.474609 0.202269
vt 0.344208 0.280994
vt 0.474609 0.202269
vt 0.344208 0.280994
vt 0.474609 0.202269
vt 0.344208 0.280994
vt 0.474609 0.202269
vt 0.344208 0.295264
vt 0.474609 0.210011
vt 0.344208 0.295264
vt 0.474609 0.202269
vt 0.344208 0.280994
vt 0.474609 0.210288
vt 0.344208 0.280994
vt 0.474609 0.202269
vt 0.344208 0.280994
vt 0.474609 0.210288
vt 0.344208 0.295433
vt 0.502105 0.165576
vt 0.501794 0.159149
vt 0.501839 0.165474
vt 0.501886 0.159149
vt 0.501794 0.159149
vt 0.502105 0.165576
vt 0.50295 0.165902
vt 0.501995 0.159149
vt 0.502499 0.165728
vt 0.501995 0.159149
vt 0.50295 0.165902
vt 0.502144 0.159149
vt 0.501886 0.159149
vt 0.502499 0.165728
vt 0.501995 0.159149
vt 0.502499 0.165728
vt 0.501886 0.159149
vt 0.502105 0.165576
vt 0.501746 0.159149
vt 0.501839 0.165474
vt 0.501794 0.159149
vt 0.501757 0.165442
vt 0.501839 0.165474
vt 0.501746 0.159149
vt 0.501802 0.165459
vt 0.501757 0.165442
vt 0.501746 0.159149
vt 0.501862 0.159149
vt 0.501898 0.165496
vt 0.50177 0.159149
vt 0.502195 0.165611
vt 0.501898 0.165496
vt 0.501862 0.159149
vt 0.502067 0.159149
vt 0.502565 0.165753
vt 0.501995 0.159149
vt 0.502941 0.165898
vt 0.502565 0.165753
vt 0.502067 0.159149
vt 0.502142 0.159149
vt 0.502941 0.165898
vt 0.502067 0.159149
vt 0.502195 0.165611
vt 0.501995 0.159149
vt 0.502565 0.165753
vt 0.501995 0.159149
vt 0.502195 0.165611
vt 0.501862 0.159149
vt 0.501802 0.165459
vt 0.50177 0.159149
vt 0.501898 0.165496
vt 0.50177 0.159149
vt 0.501802 0.165459
vt 0.501746 0.159149
vt 0.501886 0.159149
vt 0.501995 0.159149
vt 0.501786 0.152873
vt 0.501794 0.159149
vt 0.501886 0.159149
vt 0.501786 0.152873
vt 0.501748 0.159149
vt 0.501794 0.159149
vt 0.501786 0.152873
vt 0.50177 0.159149
vt 0.501748 0.159149
vt 0.501756 0.152873
vt 0.501995 0.159149
vt 0.501862 0.159149
vt 0.501771 0.152873
vt 0.502142 0.159149
vt 0.502067 0.159149
vt 0.501802 0.152873
vt 0.501995 0.159149
vt 0.501802 0.152873
vt 0.502067 0.159149
vt 0.501802 0.152873
vt 0.501995 0.159149
vt 0.501771 0.152873
vt 0.50177 0.159149
vt 0.501771 0.152873
vt 0.501862 0.159149
vt 0.501771 0.152873
vt 0.50177 0.159149
vt 0.501756 0.152873
vt 0.501748 0.159149
vt 0.501756 0.152873
vt 0.501748 0.159149
vt 0.501756 0.152873
vt 0.501748 0.159149
vt 0.501786 0.152873
vt 0.502144 0.159149
vt 0.501786 0.152873
vt 0.501995 0.159149
vt 0.501821 0.152873
vt 0.501786 0.152873
vt 0.502144 0.159149
vt 0.677157 0.232975
vt 0.673323 0.231499
vt 0.673323 0.197068
vt 0.680692 0.19981
vt 0.677157 0.232975
vt 0.673323 0.197068
vt 0.673323 0.231499
vt 0.673323 0.197068
vt 0.673323 0.231499
vt 0.673323 0.197068
vt 0.673323 0.231499
vt 0.677158 0.232975
vt 0.680692 0.19981
vt 0.673323 0.197068
vt 0.677158 0.232975
vt 0.677157 0.232975
vt 0.680692 0.19981
vt 0.677158 0.232975
vt 0.525391 0.174319
vt 0.502915 0.165688
vt 0.502142 0.159149
vt 0.525391 0.158787
vt 0.525391 0.174319
vt 0.502142 0.159149
vt 0.501802 0.152873
vt 0.525391 0.158787
vt 0.502142 0.159149
vt 0.525391 0.158787
vt 0.501821 0.152873
vt 0.502144 0.159149
vt 0.525391 0.174355
vt 0.525391 0.158787
vt 0.502144 0.159149
vt 0.502932 0.16575
vt 0.525391 0.174355
vt 0.502144 0.159149
vt 0.501821 0.152873
vt 0.525391 0.158787
vt 0.525391 0.158787
vt 0.501802 0.152873
vt 0.501821 0.152873
vt 0.525391 0.158787
vt 0.525391 0.158787
vt 0.525391 0.158787
vt 0.664572 0.193711
vt 0.673323 0.231123
vt 0.525391 0.174319
vt 0.664572 0.193711
vt 0.673323 0.197068
vt 0.673323 0.231123
vt 0.664572 0.193711
vt 0.525391 0.158787
vt 0.664572 0.193711
vt 0.525391 0.174319
vt 0.673323 0.197068
vt 0.673323 0.231032
vt 0.673323 0.231499
vt 0.673323 0.231123
vt 0.673323 0.197068
vt 0.673323 0.231499
vt 0.673323 0.231032
vt 0.673323 0.197068
vt 0.664572 0.193711
vt 0.525391 0.174355
vt 0.673323 0.231032
vt 0.664572 0.193711
vt 0.525391 0.158787
vt 0.525391 0.174355
vt 0.664572 0.193711
vt 0.501757 0.165442
vt 0.501802 0.165459
vt 0.503088 0.167072
vt 0.503088 0.167072
vt 0.5031 0.167156
vt 0.501757 0.165442
vt 0.502565 0.165753
vt 0.502941 0.165898
vt 0.502195 0.165611
vt 0.502941 0.165898
vt 0.503001 0.166382
vt 0.502195 0.165611
vt 0.503037 0.166611
vt 0.50295 0.165902
vt 0.502499 0.165728
vt 0.502499 0.165728
vt 0.50295 0.165902
vt 0.502565 0.165753
vt 0.50295 0.165902
vt 0.502941 0.165898
vt 0.502565 0.165753
vt 0.501839 0.165474
vt 0.501757 0.165442
vt 0.5031 0.167156
vt 0.5031 0.167156
vt 0.503099 0.167132
vt 0.501839 0.165474
vt 0.502105 0.165576
vt 0.501839 0.165474
vt 0.503099 0.167132
vt 0.503099 0.167132
vt 0.503073 0.166907
vt 0.502105 0.165576
vt 0.501802 0.165459
vt 0.501898 0.165496
vt 0.503053 0.166796
vt 0.503053 0.166796
vt 0.503088 0.167072
vt 0.501802 0.165459
vt 0.502499 0.165728
vt 0.502105 0.165576
vt 0.503073 0.166907
vt 0.503073 0.166907
vt 0.503037 0.166611
vt 0.502499 0.165728
vt 0.501898 0.165496
vt 0.502195 0.165611
vt 0.503001 0.166382
vt 0.503001 0.166382
vt 0.503053 0.166796
vt 0.501898 0.165496
vt 0.502932 0.16575
vt 0.50295 0.165902
vt 0.673323 0.231032
vt 0.673323 0.231032
vt 0.50295 0.165902
vt 0.673323 0.23228
vt 0.673323 0.233462
vt 0.673323 0.23228
vt 0.503037 0.166611
vt 0.673323 0.234482
vt 0.673323 0.233462
vt 0.503037 0.166611
vt 0.673323 0.235253
vt 0.673323 0.234482
vt 0.503073 0.166907
vt 0.503099 0.167132
vt 0.673323 0.235253
vt 0.503073 0.166907
vt 0.503073 0.166907
vt 0.673323 0.234482
vt 0.503037 0.166611
vt 0.673323 0.23228
vt 0.50295 0.165902
vt 0.503037 0.166611
vt 0.673323 0.234587
vt 0.673323 0.235253
vt 0.503099 0.167132
vt 0.5031 0.167156
vt 0.673323 0.234587
vt 0.503099 0.167132
vt 0.673323 0.234482
vt 0.673323 0.234587
vt 0.673323 0.233462
vt 0.673323 0.235253
vt 0.673323 0.234587
vt 0.673323 0.234482
vt 0.673323 0.231499
vt 0.673323 0.233462
vt 0.673323 0.234587
vt 0.673323 0.23228
vt 0.673323 0.233462
vt 0.673323 0.231499
vt 0.673323 0.231032
vt 0.673323 0.23228
vt 0.673323 0.231499
vt 0.673323 0.23235
vt 0.673323 0.231123
vt 0.673323 0.231499
vt 0.673323 0.233489
vt 0.673323 0.23235
vt 0.673323 0.231499
vt 0.673323 0.234253
vt 0.673323 0.233489
vt 0.673323 0.231499
vt 0.673323 0.234253
vt 0.673323 0.231499
vt 0.673323 0.234587
vt 0.503088 0.167072
vt 0.673323 0.234253
vt 0.5031 0.167156
vt 0.502941 0.165898
vt 0.673323 0.23235
vt 0.503001 0.166382
vt 0.673323 0.233489
vt 0.673323 0.234253
vt 0.503088 0.167072
vt 0.673323 0.23235
vt 0.502941 0.165898
vt 0.673323 0.231123
vt 0.673323 0.231123
vt 0.502941 0.165898
vt 0.502915 0.165688
vt 0.503053 0.166796
vt 0.503001 0.166382
vt 0.673323 0.23235
vt 0.673323 0.233489
vt 0.503053 0.166796
vt 0.673323 0.23235
vt 0.503053 0.166796
vt 0.673323 0.233489
vt 0.503088 0.167072
vt 0.673323 0.234587
vt 0.5031 0.167156
vt 0.673323 0.234253
vt 0.501757 0.165442
vt 0.502105 0.165576
vt 0.501802 0.165459
vt 0.502499 0.165728
vt 0.502565 0.165753
vt 0.502195 0.165611
vt 0.501839 0.165474
vt 0.502105 0.165576
vt 0.501757 0.165442
vt 0.501898 0.165496
vt 0.501802 0.165459
vt 0.502105 0.165576
vt 0.502499 0.165728
vt 0.501898 0.165496
vt 0.502105 0.165576
vt 0.501898 0.165496
vt 0.502499 0.165728
vt 0.502195 0.165611
vt 0.497895 0.165576
vt 0.498161 0.165474
vt 0.498206 0.159149
vt 0.498114 0.159149
vt 0.497895 0.165576
vt 0.498206 0.159149
vt 0.49705 0.165902
vt 0.497501 0.165728
vt 0.498005 0.159149
vt 0.497856 0.159149
vt 0.49705 0.165902
vt 0.498005 0.159149
vt 0.498114 0.159149
vt 0.498005 0.159149
vt 0.497501 0.165728
vt 0.497501 0.165728
vt 0.497895 0.165576
vt 0.498114 0.159149
vt 0.498254 0.159149
vt 0.498206 0.159149
vt 0.498161 0.165474
vt 0.498243 0.165442
vt 0.498254 0.159149
vt 0.498161 0.165474
vt 0.498198 0.165459
vt 0.498254 0.159149
vt 0.498243 0.165442
vt 0.498138 0.159149
vt 0.49823 0.159149
vt 0.498102 0.165496
vt 0.497805 0.165611
vt 0.498138 0.159149
vt 0.498102 0.165496
vt 0.497933 0.159149
vt 0.498005 0.159149
vt 0.497435 0.165753
vt 0.497059 0.165898
vt 0.497933 0.159149
vt 0.497435 0.165753
vt 0.497858 0.159149
vt 0.497933 0.159149
vt 0.497059 0.165898
vt 0.497805 0.165611
vt 0.497435 0.165753
vt 0.498005 0.159149
vt 0.498005 0.159149
vt 0.498138 0.159149
vt 0.497805 0.165611
vt 0.498198 0.165459
vt 0.498102 0.165496
vt 0.49823 0.159149
vt 0.49823 0.159149
vt 0.498254 0.159149
vt 0.498198 0.165459
vt 0.498114 0.159149
vt 0.498214 0.152873
vt 0.498005 0.159149
vt 0.498206 0.159149
vt 0.498214 0.152873
vt 0.498114 0.159149
vt 0.498252 0.159149
vt 0.498214 0.152873
vt 0.498206 0.159149
vt 0.49823 0.159149
vt 0.498244 0.152873
vt 0.498252 0.159149
vt 0.498005 0.159149
vt 0.498229 0.152873
vt 0.498138 0.159149
vt 0.497858 0.159149
vt 0.498198 0.152873
vt 0.497933 0.159149
vt 0.498005 0.159149
vt 0.497933 0.159149
vt 0.498198 0.152873
vt 0.498198 0.152873
vt 0.498229 0.152873
vt 0.498005 0.159149
vt 0.49823 0.159149
vt 0.498138 0.159149
vt 0.498229 0.152873
vt 0.498229 0.152873
vt 0.498244 0.152873
vt 0.49823 0.159149
vt 0.498252 0.159149
vt 0.498252 0.159149
vt 0.498244 0.152873
vt 0.498244 0.152873
vt 0.498214 0.152873
vt 0.498252 0.159149
vt 0.497856 0.159149
vt 0.498005 0.159149
vt 0.498214 0.152873
vt 0.498179 0.152873
vt 0.497856 0.159149
vt 0.498214 0.152873
vt 0.322843 0.232975
vt 0.326677 0.197068
vt 0.326677 0.231499
vt 0.319308 0.19981
vt 0.326677 0.197068
vt 0.322843 0.232975
vt 0.326677 0.231499
vt 0.326677 0.231499
vt 0.326677 0.197068
vt 0.326677 0.197068
vt 0.322842 0.232975
vt 0.326677 0.231499
vt 0.319308 0.19981
vt 0.322842 0.232975
vt 0.326677 0.197068
vt 0.322843 0.232975
vt 0.322842 0.232975
vt 0.319308 0.19981
vt 0.474609 0.174319
vt 0.497858 0.159149
vt 0.497085 0.165688
vt 0.474609 0.158787
vt 0.497858 0.159149
vt 0.474609 0.174319
vt 0.498198 0.152873
vt 0.497858 0.159149
vt 0.474609 0.158787
vt 0.474609 0.158787
vt 0.497856 0.159149
vt 0.498179 0.152873
vt 0.474609 0.174355
vt 0.497856 0.159149
vt 0.474609 0.158787
vt 0.497068 0.16575
vt 0.497856 0.159149
vt 0.474609 0.174355
vt 0.498179 0.152873
vt 0.474609 0.158787
vt 0.474609 0.158787
vt 0.498198 0.152873
vt 0.474609 0.158787
vt 0.498179 0.152873
vt 0.474609 0.158787
vt 0.335428 0.193711
vt 0.474609 0.158787
vt 0.326677 0.231123
vt 0.335428 0.193711
vt 0.474609 0.174319
vt 0.326677 0.197068
vt 0.335428 0.193711
vt 0.326677 0.231123
vt 0.474609 0.158787
vt 0.474609 0.174319
vt 0.335428 0.193711
vt 0.326677 0.197068
vt 0.326677 0.231499
vt 0.326677 0.231032
vt 0.326677 0.231123
vt 0.326677 0.231499
vt 0.326677 0.197068
vt 0.326677 0.231032
vt 0.335428 0.193711
vt 0.326677 0.197068
vt 0.474609 0.174355
vt 0.335428 0.193711
vt 0.326677 0.231032
vt 0.474609 0.158787
vt 0.335428 0.193711
vt 0.474609 0.174355
vt 0.498243 0.165442
vt 0.496912 0.167072
vt 0.498198 0.165459
vt 0.496912 0.167072
vt 0.498243 0.165442
vt 0.4969 0.167156
vt 0.497435 0.165753
vt 0.497805 0.165611
vt 0.497059 0.165898
vt 0.497059 0.165898
vt 0.497805 0.165611
vt 0.496999 0.166382
vt 0.497501 0.165728
vt 0.49705 0.165902
vt 0.496963 0.166611
vt 0.497435 0.165753
vt 0.49705 0.165902
vt 0.497501 0.165728
vt 0.49705 0.165902
vt 0.497435 0.165753
vt 0.497059 0.165898
vt 0.498161 0.165474
vt 0.4969 0.167156
vt 0.498243 0.165442
vt 0.4969 0.167156
vt 0.498161 0.165474
vt 0.496901 0.167132
vt 0.497895 0.165576
vt 0.496901 0.167132
vt 0.498161 0.165474
vt 0.496901 0.167132
vt 0.497895 0.165576
vt 0.496927 0.166907
vt 0.498198 0.165459
vt 0.496947 0.166796
vt 0.498102 0.165496
vt 0.496947 0.166796
vt 0.498198 0.165459
vt 0.496912 0.167072
vt 0.497501 0.165728
vt 0.496927 0.166907
vt 0.497895 0.165576
vt 0.496927 0.166907
vt 0.497501 0.165728
vt 0.496963 0.166611
vt 0.498102 0.165496
vt 0.496999 0.166382
vt 0.497805 0.165611
vt 0.496999 0.166382
vt 0.498102 0.165496
vt 0.496947 0.166796
vt 0.326677 0.231032
vt 0.49705 0.165902
vt 0.497068 0.16575
vt 0.326677 0.23228
vt 0.49705 0.165902
vt 0.326677 0.231032
vt 0.326677 0.233462
vt 0.496963 0.166611
vt 0.326677 0.23228
vt 0.326677 0.234482
vt 0.496963 0.166611
vt 0.326677 0.233462
vt 0.326677 0.235253
vt 0.496927 0.166907
vt 0.326677 0.234482
vt 0.496901 0.167132
vt 0.496927 0.166907
vt 0.326677 0.235253
vt 0.496927 0.166907
vt 0.496963 0.166611
vt 0.326677 0.234482
vt 0.496963 0.166611
vt 0.49705 0.165902
vt 0.326677 0.23228
vt 0.326677 0.234587
vt 0.496901 0.167132
vt 0.326677 0.235253
vt 0.4969 0.167156
vt 0.496901 0.167132
vt 0.326677 0.234587
vt 0.326677 0.234482
vt 0.326677 0.233462
vt 0.326677 0.234587
vt 0.326677 0.235253
vt 0.326677 0.234482
vt 0.326677 0.234587
vt 0.326677 0.231499
vt 0.326677 0.234587
vt 0.326677 0.233462
vt 0.326677 0.23228
vt 0.326677 0.231499
vt 0.326677 0.233462
vt 0.326677 0.231032
vt 0.326677 0.231499
vt 0.326677 0.23228
vt 0.326677 0.23235
vt 0.326677 0.231499
vt 0.326677 0.231123
vt 0.326677 0.233489
vt 0.326677 0.231499
vt 0.326677 0.23235
vt 0.326677 0.234253
vt 0.326677 0.231499
vt 0.326677 0.233489
vt 0.326677 0.234253
vt 0.326677 0.234587
vt 0.326677 0.231499
vt 0.496912 0.167072
vt 0.4969 0.167156
vt 0.326677 0.234253
vt 0.497059 0.165898
vt 0.496999 0.166382
vt 0.326677 0.23235
vt 0.326677 0.233489
vt 0.496912 0.167072
vt 0.326677 0.234253
vt 0.326677 0.23235
vt 0.326677 0.231123
vt 0.497059 0.165898
vt 0.326677 0.231123
vt 0.497085 0.165688
vt 0.497059 0.165898
vt 0.496947 0.166796
vt 0.326677 0.23235
vt 0.496999 0.166382
vt 0.326677 0.233489
vt 0.326677 0.23235
vt 0.496947 0.166796
vt 0.496947 0.166796
vt 0.496912 0.167072
vt 0.326677 0.233489
vt 0.326677 0.234587
vt 0.326677 0.234253
vt 0.4969 0.167156
vt 0.498243 0.165442
vt 0.498198 0.165459
vt 0.497895 0.165576
vt 0.497501 0.165728
vt 0.497805 0.165611
vt 0.497435 0.165753
vt 0.498161 0.165474
vt 0.498243 0.165442
vt 0.497895 0.165576
vt 0.498102 0.165496
vt 0.497895 0.165576
vt 0.498198 0.165459
vt 0.497501 0.165728
vt 0.497895 0.165576
vt 0.498102 0.165496
vt 0.498102 0.165496
vt 0.497805 0.165611
vt 0.497501 0.165728
vt 0.525391 0.210011
vt 0.525391 0.212557
vt 0.655792 0.301593
vt 0.655792 0.295264
vt 0.525391 0.210011
vt 0.655792 0.301593
vt 0.525391 0.210288
vt 0.655792 0.295433
vt 0.525391 0.212772
vt 0.655792 0.295433
vt 0.655792 0.301778
vt 0.525391 0.212772
vt 0.525391 0.213298
vt 0.525391 0.21351
vt 0.655792 0.304113
vt 0.655792 0.304113
vt 0.655792 0.303559
vt 0.525391 0.213298
vt 0.525391 0.21351
vt 0.525391 0.213572
vt 0.655792 0.304267
vt 0.655792 0.304267
vt 0.655792 0.304113
vt 0.525391 0.21351
vt 0.525391 0.213572
vt 0.525391 0.213605
vt 0.655792 0.304332
vt 0.655792 0.304332
vt 0.655792 0.304267
vt 0.525391 0.213572
vt 0.525391 0.213605
vt 0.525391 0.213606
vt 0.655792 0.304304
vt 0.655792 0.304304
vt 0.655792 0.304332
vt 0.525391 0.213605
vt 0.525391 0.213606
vt 0.525391 0.213575
vt 0.655792 0.304183
vt 0.655792 0.304183
vt 0.655792 0.304304
vt 0.525391 0.213606
vt 0.525391 0.213422
vt 0.525391 0.212772
vt 0.655792 0.301778
vt 0.655792 0.301778
vt 0.655792 0.303683
vt 0.525391 0.213422
vt 0.525391 0.213575
vt 0.525391 0.213422
vt 0.655792 0.303683
vt 0.655792 0.303683
vt 0.655792 0.304183
vt 0.525391 0.213575
vt 0.525391 0.212557
vt 0.525391 0.213298
vt 0.655792 0.303559
vt 0.655792 0.303559
vt 0.655792 0.301593
vt 0.525391 0.212557
vt 0.474609 0.210011
vt 0.344208 0.301593
vt 0.474609 0.212557
vt 0.344208 0.301593
vt 0.474609 0.210011
vt 0.344208 0.295264
vt 0.474609 0.210288
vt 0.474609 0.212772
vt 0.344208 0.295433
vt 0.344208 0.295433
vt 0.474609 0.212772
vt 0.344208 0.301778
vt 0.474609 0.213298
vt 0.344208 0.304113
vt 0.474609 0.21351
vt 0.344208 0.304113
vt 0.474609 0.213298
vt 0.344208 0.303559
vt 0.474609 0.21351
vt 0.344208 0.304267
vt 0.474609 0.213572
vt 0.344208 0.304267
vt 0.474609 0.21351
vt 0.344208 0.304113
vt 0.474609 0.213572
vt 0.344208 0.304332
vt 0.474609 0.213605
vt 0.344208 0.304332
vt 0.474609 0.213572
vt 0.344208 0.304267
vt 0.474609 0.213605
vt 0.344208 0.304304
vt 0.474609 0.213606
vt 0.344208 0.304304
vt 0.474609 0.213605
vt 0.344208 0.304332
vt 0.474609 0.213606
vt 0.344208 0.304183
vt 0.474609 0.213575
vt 0.344208 0.304183
vt 0.474609 0.213606
vt 0.344208 0.304304
vt 0.474609 0.213422
vt 0.344208 0.301778
vt 0.474609 0.212772
vt 0.344208 0.301778
vt 0.474609 0.213422
vt 0.344208 0.303683
vt 0.474609 0.213575
vt 0.344208 0.303683
vt 0.474609 0.213422
vt 0.344208 0.303683
vt 0.474609 0.213575
vt 0.344208 0.304183
vt 0.474609 0.212557
vt 0.344208 0.303559
vt 0.474609 0.213298
vt 0.344208 0.303559
vt 0.474609 0.212557
vt 0.344208 0.301593
g Hstabs
f 2/1 1/2 51/3
f 51/4 5/5 2/6
f 3/7 4/8 74/9
f 74/10 6/11 3/12
f 4/13 2/14 5/15
f 5/16 74/17 4/18
f 2/19 7/20 8/21
f 2/22 8/23 9/24
f 9/25 1/26 2/27
f 10/28 11/29 12/30
f 13/31 14/32 10/33
f 13/34 15/35 14/36
f 14/37 15/38 16/39
f 14/40 16/41 17/42
f 14/43 17/44 18/45
f 14/46 18/47 19/48
f 14/49 19/50 10/51
f 15/52 20/53 16/54
f 20/55 21/56 16/57
f 22/58 23/59 24/60
f 22/61 25/62 23/63
f 25/64 26/65 23/66
f 23/67 26/68 3/69
f 23/70 3/71 27/72
f 23/73 27/74 16/75
f 23/76 16/77 24/78
f 4/79 3/80 28/81
f 3/82 29/83 27/84
f 29/85 30/86 27/87
f 27/88 30/89 17/90
f 27/91 17/92 16/93
f 30/94 31/95 17/96
f 32/97 18/98 33/99
f 18/100 32/101 34/102
f 18/103 34/104 19/105
f 35/106 36/107 37/108
f 35/109 38/110 36/111
f 36/112 38/113 39/114
f 36/115 39/116 11/117
f 36/118 11/119 40/120
f 36/121 40/122 34/123
f 36/124 34/125 37/126
f 1/127 41/128 42/129
f 41/130 1/131 9/132
f 41/133 9/134 8/135
f 41/136 8/137 43/138
f 41/139 43/140 39/141
f 41/142 39/143 42/144
f 7/145 12/146 8/147
f 39/148 43/149 11/150
f 34/151 40/152 19/153
f 11/154 43/155 12/156
f 12/157 43/158 8/159
f 33/160 18/161 17/162
f 33/163 17/164 31/165
f 19/166 40/167 10/168
f 37/169 34/170 32/171
f 21/172 24/173 16/174
f 3/175 26/176 28/177
f 10/178 40/179 11/180
f 42/181 39/182 38/183
f 44/184 5/185 45/186
f 44/187 45/188 46/189
f 44/190 46/191 47/192
f 44/193 47/194 48/195
f 49/196 50/197 51/198
f 50/199 49/200 52/201
f 50/202 52/203 53/204
f 50/205 53/206 46/207
f 50/208 46/209 45/210
f 50/211 45/212 51/213
f 54/214 55/215 56/216
f 55/217 54/218 57/219
f 55/220 57/221 58/222
f 55/223 58/224 59/225
f 55/226 59/227 52/228
f 55/229 52/230 56/231
f 54/232 60/233 57/234
f 61/235 62/236 63/237
f 62/238 61/239 64/240
f 62/241 64/242 65/243
f 62/244 65/245 66/246
f 62/247 66/248 57/249
f 62/250 57/251 63/252
f 61/253 67/254 64/255
f 68/256 69/257 70/258
f 68/259 6/260 69/261
f 69/262 6/263 71/264
f 69/265 71/266 72/267
f 69/268 72/269 73/270
f 69/271 73/272 64/273
f 69/274 64/275 70/276
f 6/277 74/278 71/279
f 75/280 76/281 77/282
f 76/283 75/284 78/285
f 76/286 78/287 79/288
f 76/289 79/290 72/291
f 76/292 72/293 71/294
f 76/295 71/296 77/297
f 75/298 80/299 78/300
f 72/301 79/302 81/303
f 72/304 81/305 82/306
f 72/307 82/308 73/309
f 83/310 82/311 84/312
f 85/313 86/314 83/315
f 87/316 88/317 85/318
f 88/319 87/320 89/321
f 88/322 89/323 53/324
f 88/325 53/326 59/327
f 88/328 59/329 90/330
f 88/331 90/332 85/333
f 67/334 70/335 64/336
f 65/337 64/338 73/339
f 65/340 73/341 91/342
f 65/343 91/344 92/345
f 65/346 92/347 66/348
f 60/349 63/350 57/351
f 58/352 57/353 66/354
f 58/355 66/356 86/357
f 58/358 86/359 90/360
f 58/361 90/362 59/363
f 49/364 56/365 52/366
f 53/367 52/368 59/369
f 5/370 51/371 45/372
f 86/373 85/374 90/375
f 46/376 53/377 89/378
f 46/379 89/380 47/381
f 86/382 92/383 83/384
f 82/385 83/386 91/387
f 82/388 91/389 73/390
f 92/391 86/392 66/393
f 92/394 91/395 83/396
f 79/397 84/398 81/399
f 80/400 79/401 78/402
f 84/403 82/404 81/405
f 87/406 47/407 89/408
f 74/409 77/410 71/411
f 93/412 83/413 94/414
f 96/415 95/416 97/417
f 98/418 99/419 100/420
f 98/421 101/422 99/423
f 99/424 97/425 100/426
f 100/427 97/428 95/429
f 96/430 83/431 93/432
f 94/433 83/434 102/435
f 103/436 104/437 102/438
f 104/439 103/440 105/441
f 106/442 107/443 108/444
f 107/445 105/446 108/447
f 108/448 105/449 103/450
f 120/451 103/452 111/453
f 103/454 120/455 108/456
f 112/457 114/458 113/459
f 114/460 115/461 113/462
f 113/463 115/464 108/465
f 113/466 108/467 120/468
f 106/469 108/470 116/471
f 103/472 102/473 111/474
f 111/475 102/476 83/477
f 97/478 99/479 109/480
f 101/481 117/482 99/483
f 117/484 118/485 99/486
f 99/487 118/488 109/489
f 118/490 119/491 109/492
f 110/493 109/494 119/495
f 116/496 108/497 115/498
f 87/499 97/500 47/501
f 97/502 87/503 96/504
f 79/505 120/506 84/507
f 120/508 79/509 113/510
f 75/511 121/512 80/513
f 121/514 122/515 80/516
f 80/517 122/518 113/519
f 80/520 113/521 79/522
f 122/523 123/524 113/525
f 120/526 111/527 84/528
f 84/529 111/530 83/531
f 83/532 96/533 85/534
f 85/535 96/536 87/537
f 97/538 109/539 47/540
f 110/541 124/542 109/543
f 124/544 125/545 109/546
f 109/547 125/548 47/549
f 125/550 126/551 47/552
f 48/553 47/554 126/555
f 113/556 123/557 112/558
f 48/559 127/560 128/561
f 75/562 127/563 48/564
f 48/565 5/566 75/567
f 5/568 74/569 75/570
f 129/571 5/572 130/573
f 5/574 48/575 130/576
f 48/577 128/578 130/579
f 128/580 101/581 130/582
f 127/583 75/584 131/585
f 127/586 131/587 106/588
f 75/589 74/590 131/591
f 74/592 132/593 131/594
f 133/595 138/596 139/597
f 133/598 135/599 134/600
f 135/601 136/602 134/603
f 132/604 74/605 138/606
f 74/607 139/608 138/609
f 139/610 135/611 133/612
f 137/613 134/614 136/615
f 141/616 135/617 140/618
f 135/619 139/620 140/621
f 74/622 5/623 139/624
f 5/625 140/626 139/627
f 144/628 141/629 143/630
f 145/631 143/632 5/633
f 5/634 129/635 145/636
f 144/637 143/638 142/639
f 141/640 5/641 143/642
f 150/643 151/644 107/645
f 98/646 107/647 151/648
f 101/649 98/650 130/651
f 151/652 129/653 130/654
f 151/655 130/656 98/657
f 107/658 106/659 150/660
f 150/661 106/662 131/663
f 150/664 131/665 132/666
f 152/667 153/668 150/669
f 153/670 151/671 150/672
f 154/673 155/674 146/675
f 155/676 147/677 146/678
f 133/679 134/680 155/681
f 133/682 155/683 138/684
f 147/685 155/686 149/687
f 150/688 138/689 152/690
f 150/691 132/692 138/693
f 155/694 134/695 149/696
f 138/697 155/698 152/699
f 137/700 149/701 134/702
f 146/703 148/704 154/705
f 148/706 142/707 154/708
f 154/709 142/710 143/711
f 151/712 145/713 129/714
f 153/715 154/716 151/717
f 151/718 154/719 143/720
f 151/721 143/722 145/723
f 160/724 166/725 168/726
f 160/727 168/728 157/729
f 158/730 160/731 157/732
f 160/733 182/734 166/735
f 157/736 168/737 169/738
f 163/739 157/740 169/741
f 165/742 157/743 163/744
f 174/745 177/746 162/747
f 173/748 159/749 156/750
f 156/751 162/752 177/753
f 161/754 173/755 179/756
f 161/757 159/758 173/759
f 164/760 162/761 156/762
f 178/763 173/764 156/765
f 178/766 156/767 177/768
f 156/769 165/770 164/771
f 157/772 165/773 156/774
f 158/775 161/776 160/777
f 159/778 161/779 158/780
f 161/781 179/782 180/783
f 161/784 180/785 205/786
f 204/787 161/788 205/789
f 160/790 213/791 181/792
f 160/793 181/794 182/795
f 210/796 181/797 213/798
f 213/799 160/800 204/801
f 161/802 204/803 160/804
f 170/805 168/806 306/807
f 167/808 169/809 168/810
f 306/811 166/812 182/813
f 166/814 306/815 168/816
f 167/817 168/818 170/819
f 306/820 172/821 171/822
f 237/823 172/824 306/825
f 176/826 171/827 172/828
f 170/829 171/830 176/831
f 174/832 175/833 177/834
f 172/835 178/836 176/837
f 237/838 173/839 172/840
f 179/841 173/842 237/843
f 176/844 177/845 175/846
f 178/847 177/848 176/849
f 178/850 172/851 173/852
f 237/853 180/854 179/855
f 236/856 180/857 237/858
f 184/859 205/860 180/861
f 184/862 180/863 236/864
f 183/865 181/866 210/867
f 263/868 181/869 183/870
f 306/871 181/872 263/873
f 182/874 181/875 306/876
f 306/877 236/878 237/879
f 263/880 236/881 306/882
f 236/883 263/884 184/885
f 263/886 183/887 184/888
f 198/889 199/890 188/891
f 263/892 185/893 264/894
f 186/895 264/896 185/897
f 202/898 264/899 186/900
f 187/901 202/902 186/903
f 201/904 202/905 187/906
f 214/907 264/908 202/909
f 226/910 224/911 215/912
f 228/913 226/914 215/915
f 227/916 228/917 200/918
f 191/919 227/920 200/921
f 189/922 198/923 188/924
f 231/925 232/926 198/927
f 231/928 198/929 189/930
f 190/931 231/932 189/933
f 236/934 231/935 190/936
f 191/937 198/938 232/939
f 232/940 227/941 191/942
f 214/943 215/944 224/945
f 224/946 264/947 214/948
f 195/949 196/950 203/951
f 201/952 192/953 202/954
f 193/955 202/956 192/957
f 212/958 202/959 193/960
f 194/961 212/962 193/963
f 210/964 212/965 194/966
f 214/967 202/968 212/969
f 200/970 228/971 209/972
f 208/973 200/974 209/975
f 205/976 195/977 203/978
f 198/979 191/980 203/981
f 198/982 203/983 196/984
f 197/985 198/986 196/987
f 199/988 198/989 197/990
f 208/991 203/992 191/993
f 191/994 200/995 208/996
f 203/997 208/998 206/999
f 204/1000 203/1001 206/1002
f 205/1003 203/1004 204/1005
f 207/1006 206/1007 208/1008
f 208/1009 209/1010 207/1011
f 217/1012 209/1013 228/1014
f 215/1015 218/1016 228/1017
f 211/1018 216/1019 214/1020
f 212/1021 211/1022 214/1023
f 213/1024 212/1025 210/1026
f 213/1027 211/1028 212/1029
f 215/1030 214/1031 216/1032
f 218/1033 217/1034 228/1035
f 237/1036 240/1037 234/1038
f 224/1039 222/1040 264/1041
f 227/1042 230/1043 229/1044
f 231/1045 233/1046 232/1047
f 232/1048 230/1049 227/1050
f 219/1051 228/1052 220/1053
f 219/1054 245/1055 225/1056
f 229/1057 238/1058 220/1059
f 229/1060 220/1061 228/1062
f 225/1063 228/1064 219/1065
f 265/1066 264/1067 222/1068
f 265/1069 222/1070 258/1071
f 225/1072 221/1073 226/1074
f 306/1075 266/1076 260/1077
f 258/1078 252/1079 259/1080
f 262/1081 259/1082 255/1083
f 253/1084 252/1085 221/1086
f 253/1087 221/1088 225/1089
f 253/1090 225/1091 245/1092
f 253/1093 245/1094 254/1095
f 251/1096 254/1097 248/1098
f 246/1099 245/1100 219/1101
f 246/1102 219/1103 220/1104
f 246/1105 220/1106 238/1107
f 246/1108 238/1109 247/1110
f 244/1111 247/1112 241/1113
f 223/1114 226/1115 221/1116
f 223/1117 221/1118 252/1119
f 223/1120 252/1121 258/1122
f 223/1123 258/1124 222/1125
f 223/1126 222/1127 224/1128
f 224/1129 226/1130 223/1131
f 226/1132 228/1133 225/1134
f 228/1135 227/1136 229/1137
f 239/1138 238/1139 229/1140
f 239/1141 229/1142 230/1143
f 239/1144 230/1145 232/1146
f 236/1147 233/1148 231/1149
f 235/1150 234/1151 240/1152
f 235/1153 240/1154 239/1155
f 235/1156 239/1157 232/1158
f 235/1159 232/1160 233/1161
f 235/1162 233/1163 236/1164
f 236/1165 234/1166 235/1167
f 305/1168 240/1169 237/1170
f 242/1171 241/1172 247/1173
f 242/1174 247/1175 238/1176
f 242/1177 238/1178 239/1179
f 242/1180 239/1181 240/1182
f 242/1183 240/1184 305/1185
f 243/1186 242/1187 305/1188
f 243/1189 241/1190 242/1191
f 250/1192 247/1193 244/1194
f 249/1195 248/1196 254/1197
f 249/1198 254/1199 245/1200
f 249/1201 245/1202 246/1203
f 249/1204 246/1205 247/1206
f 249/1207 247/1208 250/1209
f 250/1210 248/1211 249/1212
f 257/1213 254/1214 251/1215
f 256/1216 255/1217 259/1218
f 256/1219 259/1220 252/1221
f 256/1222 252/1223 253/1224
f 256/1225 253/1226 254/1227
f 256/1228 254/1229 257/1230
f 257/1231 255/1232 256/1233
f 261/1234 260/1235 266/1236
f 261/1237 266/1238 265/1239
f 261/1240 265/1241 258/1242
f 261/1243 258/1244 259/1245
f 261/1246 259/1247 262/1248
f 262/1249 260/1250 261/1251
f 267/1252 263/1253 264/1254
f 267/1255 264/1256 265/1257
f 267/1258 265/1259 266/1260
f 267/1261 266/1262 306/1263
f 269/1264 273/1265 272/1266
f 301/1267 300/1268 271/1269
f 308/1270 283/1271 285/1272
f 290/1273 295/1274 287/1275
f 274/1276 279/1277 277/1278
f 292/1279 301/1280 271/1281
f 278/1282 280/1283 294/1284
f 278/1285 294/1286 293/1287
f 299/1288 303/1289 268/1290
f 300/1291 299/1292 268/1293
f 277/1294 292/1295 271/1296
f 272/1297 300/1298 268/1299
f 304/1300 303/1301 299/1302
f 270/1303 269/1304 272/1305
f 270/1306 272/1307 268/1308
f 270/1309 268/1310 303/1311
f 270/1312 303/1313 302/1314
f 270/1315 302/1316 310/1317
f 310/1318 269/1319 270/1320
f 275/1321 274/1322 277/1323
f 275/1324 277/1325 271/1326
f 275/1327 271/1328 300/1329
f 275/1330 300/1331 272/1332
f 275/1333 272/1334 273/1335
f 276/1336 275/1337 273/1338
f 276/1339 274/1340 275/1341
f 293/1342 292/1343 277/1344
f 293/1345 277/1346 279/1347
f 279/1348 278/1349 293/1350
f 281/1351 294/1352 280/1353
f 284/1354 295/1355 294/1356
f 284/1357 294/1358 281/1359
f 282/1360 284/1361 281/1362
f 308/1363 284/1364 282/1365
f 307/1366 283/1367 308/1368
f 288/1369 287/1370 295/1371
f 288/1372 295/1373 284/1374
f 288/1375 284/1376 308/1377
f 288/1378 308/1379 285/1380
f 286/1381 288/1382 285/1383
f 289/1384 288/1385 286/1386
f 289/1387 287/1388 288/1389
f 291/1390 295/1391 290/1392
f 296/1393 295/1394 291/1395
f 297/1396 301/1397 292/1398
f 297/1399 292/1400 293/1401
f 297/1402 293/1403 294/1404
f 297/1405 294/1406 295/1407
f 297/1408 295/1409 296/1410
f 298/1411 297/1412 296/1413
f 298/1414 301/1415 297/1416
f 301/1417 299/1418 300/1419
f 302/1420 309/1421 310/1422
f 309/1423 302/1424 303/1425
f 309/1426 303/1427 304/1428
f 306/1429 307/1430 237/1431
f 307/1432 306/1433 309/1434
f 237/1435 308/1436 305/1437
f 308/1438 237/1439 307/1440
f 260/1441 309/1442 306/1443
f 309/1444 260/1445 310/1446
g ElevatorL
f 343/1447 316/1448 341/1449
f 325/1450 316/1451 343/1452
f 311/1453 312/1454 344/1455
f 312/1456 311/1457 333/1458
f 325/1459 344/1460 312/1461
f 344/1462 325/1463 343/1464
f 315/1465 341/1466 316/1467
f 340/1468 341/1469 315/1470
f 342/1471 340/1472 315/1473
f 318/1474 345/1475 319/1476
f 346/1477 345/1478 318/1479
f 313/1480 347/1481 314/1482
f 368/1483 347/1484 313/1485
f 332/1486 368/1487 313/1488
f 346/1489 314/1490 347/1491
f 314/1492 346/1493 318/1494
f 342/1495 319/1496 345/1497
f 319/1498 342/1499 315/1500
f 325/1501 312/1502 324/1503
f 316/1504 325/1505 324/1506
f 322/1507 316/1508 324/1509
f 319/1510 321/1511 323/1512
f 314/1513 318/1514 320/1515
f 332/1516 313/1517 317/1518
f 314/1519 317/1520 313/1521
f 317/1522 314/1523 320/1524
f 319/1525 320/1526 318/1527
f 320/1528 319/1529 323/1530
f 322/1531 323/1532 321/1533
f 323/1534 322/1535 324/1536
f 333/1537 324/1538 312/1539
f 326/1540 324/1541 333/1542
f 331/1543 327/1544 335/1545
f 330/1546 331/1547 335/1548
f 328/1549 335/1550 327/1551
f 335/1552 328/1553 329/1554
f 330/1555 335/1556 329/1557
f 331/1558 330/1559 329/1560
f 338/1561 356/1562 332/1563
f 334/1564 338/1565 332/1566
f 317/1567 334/1568 332/1569
f 337/1570 326/1571 333/1572
f 339/1573 337/1574 333/1575
f 348/1576 339/1577 333/1578
f 326/1579 337/1580 334/1581
f 317/1582 326/1583 334/1584
f 334/1585 337/1586 336/1587
f 355/1588 338/1589 336/1590
f 335/1591 355/1592 336/1593
f 334/1594 336/1595 338/1596
f 335/1597 353/1598 354/1599
f 355/1600 335/1601 354/1602
f 353/1603 335/1604 336/1605
f 339/1606 353/1607 336/1608
f 337/1609 339/1610 336/1611
f 340/1612 342/1613 363/1614
f 363/1615 361/1616 340/1617
f 347/1618 368/1619 346/1620
f 368/1621 367/1622 346/1623
f 365/1624 311/1625 344/1626
f 344/1627 311/1628 347/1629
f 311/1630 368/1631 347/1632
f 341/1633 340/1634 361/1635
f 361/1636 362/1637 341/1638
f 343/1639 341/1640 362/1641
f 362/1642 364/1643 343/1644
f 342/1645 345/1646 366/1647
f 366/1648 363/1649 342/1650
f 344/1651 343/1652 364/1653
f 364/1654 365/1655 344/1656
f 345/1657 346/1658 367/1659
f 367/1660 366/1661 345/1662
f 348/1663 311/1664 353/1665
f 353/1666 311/1667 352/1668
f 351/1669 352/1670 365/1671
f 349/1672 351/1673 365/1674
f 350/1675 349/1676 364/1677
f 362/1678 350/1679 364/1680
f 364/1681 349/1682 365/1683
f 352/1684 311/1685 365/1686
f 360/1687 350/1688 362/1689
f 361/1690 360/1691 362/1692
f 349/1693 360/1694 351/1695
f 350/1696 360/1697 349/1698
f 354/1699 351/1700 360/1701
f 352/1702 351/1703 354/1704
f 353/1705 352/1706 354/1707
f 357/1708 355/1709 354/1710
f 358/1711 357/1712 354/1713
f 359/1714 358/1715 354/1716
f 359/1717 354/1718 360/1719
f 363/1720 359/1721 361/1722
f 368/1723 357/1724 367/1725
f 358/1726 359/1727 363/1728
f 357/1729 368/1730 355/1731
f 355/1732 368/1733 356/1734
f 366/1735 367/1736 357/1737
f 358/1738 366/1739 357/1740
f 366/1741 358/1742 363/1743
f 360/1744 361/1745 359/1746
f 340/1747 343/1748 342/1749
f 344/1750 347/1751 346/1752
f 341/1753 343/1754 340/1755
f 345/1756 342/1757 343/1758
f 344/1759 345/1760 343/1761
f 345/1762 344/1763 346/1764
g ElevatorR
f 401/1765 399/1766 374/1767
f 383/1768 401/1769 374/1770
f 369/1771 402/1772 370/1773
f 391/1774 369/1775 370/1776
f 383/1777 370/1778 402/1779
f 402/1780 401/1781 383/1782
f 373/1783 374/1784 399/1785
f 398/1786 373/1787 399/1788
f 400/1789 373/1790 398/1791
f 376/1792 377/1793 403/1794
f 404/1795 376/1796 403/1797
f 371/1798 372/1799 405/1800
f 426/1801 371/1802 405/1803
f 390/1804 371/1805 426/1806
f 404/1807 405/1808 372/1809
f 372/1810 376/1811 404/1812
f 400/1813 403/1814 377/1815
f 377/1816 373/1817 400/1818
f 383/1819 382/1820 370/1821
f 374/1822 382/1823 383/1824
f 380/1825 382/1826 374/1827
f 377/1828 381/1829 379/1830
f 372/1831 378/1832 376/1833
f 390/1834 375/1835 371/1836
f 372/1837 371/1838 375/1839
f 375/1840 378/1841 372/1842
f 377/1843 376/1844 378/1845
f 378/1846 381/1847 377/1848
f 380/1849 379/1850 381/1851
f 381/1852 382/1853 380/1854
f 391/1855 370/1856 382/1857
f 384/1858 391/1859 382/1860
f 389/1861 393/1862 385/1863
f 388/1864 393/1865 389/1866
f 386/1867 385/1868 393/1869
f 393/1870 387/1871 386/1872
f 388/1873 387/1874 393/1875
f 389/1876 387/1877 388/1878
f 396/1879 390/1880 414/1881
f 392/1882 390/1883 396/1884
f 375/1885 390/1886 392/1887
f 395/1888 391/1889 384/1890
f 397/1891 391/1892 395/1893
f 406/1894 391/1895 397/1896
f 384/1897 392/1898 395/1899
f 375/1900 392/1901 384/1902
f 392/1903 394/1904 395/1905
f 413/1906 394/1907 396/1908
f 393/1909 394/1910 413/1911
f 392/1912 396/1913 394/1914
f 393/1915 412/1916 411/1917
f 413/1918 412/1919 393/1920
f 411/1921 394/1922 393/1923
f 397/1924 394/1925 411/1926
f 395/1927 394/1928 397/1929
f 398/1930 421/1931 400/1932
f 421/1933 398/1934 419/1935
f 405/1936 404/1937 426/1938
f 426/1939 404/1940 425/1941
f 402/1942 369/1943 423/1944
f 405/1945 369/1946 402/1947
f 369/1948 405/1949 426/1950
f 399/1951 419/1952 398/1953
f 419/1954 399/1955 420/1956
f 401/1957 420/1958 399/1959
f 420/1960 401/1961 422/1962
f 400/1963 424/1964 403/1965
f 424/1966 400/1967 421/1968
f 402/1969 422/1970 401/1971
f 422/1972 402/1973 423/1974
f 403/1975 425/1976 404/1977
f 425/1978 403/1979 424/1980
f 411/1981 369/1982 406/1983
f 410/1984 369/1985 411/1986
f 409/1987 423/1988 410/1989
f 407/1990 423/1991 409/1992
f 408/1993 422/1994 407/1995
f 420/1996 422/1997 408/1998
f 422/1999 423/2000 407/2001
f 423/2002 369/2003 410/2004
f 418/2005 420/2006 408/2007
f 419/2008 420/2009 418/2010
f 407/2011 409/2012 418/2013
f 408/2014 407/2015 418/2016
f 412/2017 418/2018 409/2019
f 410/2020 412/2021 409/2022
f 411/2023 412/2024 410/2025
f 415/2026 412/2027 413/2028
f 416/2029 412/2030 415/2031
f 417/2032 412/2033 416/2034
f 417/2035 418/2036 412/2037
f 421/2038 419/2039 417/2040
f 426/2041 425/2042 415/2043
f 416/2044 421/2045 417/2046
f 415/2047 413/2048 426/2049
f 413/2050 414/2051 426/2052
f 424/2053 415/2054 425/2055
f 416/2056 415/2057 424/2058
f 424/2059 421/2060 416/2061
f 418/2062 417/2063 419/2064
f 398/2065 400/2066 401/2067
f 402/2068 404/2069 405/2070
f 399/2071 398/2072 401/2073
f 403/2074 401/2075 400/2076
f 402/2077 401/2078 403/2079
f 403/2080 404/2081 402/2082
g HstabFlapL
f 427/2083 436/2084 447/2085
f 438/2086 427/2087 447/2088
f 437/2089 448/2090 432/2091
f 448/2092 443/2093 432/2094
f 435/2095 428/2096 439/2097
f 439/2098 446/2099 435/2100
f 428/2101 429/2102 440/2103
f 440/2104 439/2105 428/2106
f 429/2107 430/2108 441/2109
f 441/2110 440/2111 429/2112
f 430/2113 431/2114 442/2115
f 442/2116 441/2117 430/2118
f 431/2119 433/2120 444/2121
f 444/2122 442/2123 431/2124
f 434/2125 432/2126 443/2127
f 443/2128 445/2129 434/2130
f 433/2131 434/2132 445/2133
f 445/2134 444/2135 433/2136
f 436/2137 435/2138 446/2139
f 446/2140 447/2141 436/2142
g HstabFlapR
f 449/2143 469/2144 458/2145
f 469/2146 449/2147 460/2148
f 459/2149 454/2150 470/2151
f 470/2152 454/2153 465/2154
f 457/2155 461/2156 450/2157
f 461/2158 457/2159 468/2160
f 450/2161 462/2162 451/2163
f 462/2164 450/2165 461/2166
f 451/2167 463/2168 452/2169
f 463/2170 451/2171 462/2172
f 452/2173 464/2174 453/2175
f 464/2176 452/2177 463/2178
f 453/2179 466/2180 455/2181
f 466/2182 453/2183 464/2184
f 456/2185 465/2186 454/2187
f 465/2188 456/2189 467/2190
f 455/2191 467/2192 456/2193
f 467/2194 455/2195 466/2196
f 458/2197 468/2198 457/2199
f 468/2200 458/2201 469/2202
