# Converted from a320src/A320-family-master/Engines/Models/a320.pylon.cfm.right.ac by simengine's ac3d_to_obj tool
# NOTE: materials/textures are not exported — see tools/ac3d_to_obj/main.cpp LIMITATIONS.
v 0.755 1.0259 -0.068585
v 0.70748 1.02164 -0.042246
v 0.755 1.02819 0
v 0.686968 1.01959 -0.024252
v 0.679523 1.01881 -0.013006
v 0.676389 1.01846 0
v 0.755 1.04283 0
v 0.755 1.0259 0.068585
v 0.70748 1.02164 0.042246
v 0.679523 1.01881 0.013006
v 0.686968 1.01959 0.024252
v 5.86969 0.601321 0
v 7.44092 1.5755 0
v 6.05353 1.1804 -0.078352
v 5.3035 0.601321 -0.081318
v 7.32496 1.57064 -0.010552
v 7.24487 1.56658 -0.017646
v 7.22961 1.5657 -0.018973
v 7.16854 1.56214 -0.024243
v 6.97217 1.5494 -0.040623
v 6.85846 1.54104 -0.049668
v 6.25996 1.43736 -0.087324
v 5.77367 1.35939 -0.114235
v 5.3035 1.02978 -0.124923
v 5.89074 1.37433 -0.10797
v 5.61402 1.34213 -0.122289
v 5.27939 1.31875 -0.136716
v 4.96822 1.31675 -0.14639
v 4.3217 1.22732 -0.154023
v 4.72633 1.3257 -0.151104
v 4.30318 1.35767 -0.154023
v 4.46399 1.3448 -0.153631
v 3.8654 1.31914 -0.154023
v 3.85991 1.31803 -0.154023
v 3.85655 1.40541 -0.154023
v 4.31231 1.29341 0.154023
v 4.45001 1.28255 0.153705
v 4.3217 1.22732 0.154023
v 4.51532 1.27786 0.153319
v 4.5513 1.27539 0.153037
v 4.63709 1.27049 0.152159
v 5.00434 1.26502 0.144878
v 5.3035 1.02978 0.124923
v 5.32708 1.28012 0.133734
v 5.88024 1.34716 0.106841
v 5.98631 1.25499 0.091805
v 5.62787 1.31135 0.120064
v 6.24159 1.41406 0.086603
v 6.43615 1.45077 0.074964
v 6.59034 1.48078 0.065533
v 6.68245 1.49904 0.059836
v 6.88254 1.52984 0.046131
v 7.05507 1.5457 0.032538
v 7.15495 1.5541 0.02437
v 7.22553 1.55987 0.018502
v 5.3035 0.601321 0.081318
v 6.74321 1.51074 0.056002
v 6.69421 1.50139 0.059106
v 3.695 1.28485 0.154023
v 3.69203 1.36225 0.154023
v 3.8654 1.31914 0.154023
v 3.95065 1.32853 0.154023
v 4.10643 1.31197 0.154023
v 2.32316 1.00882 0.154023
v 2.30114 1.16381 0.154023
v 2.69902 1.28874 0.151759
v 2.29169 1.23028 0.151856
v 2.28246 1.2953 0.123957
v 3.38982 1.42849 0.138448
v 3.45279 1.40673 0.149492
v 2.29105 1.2348 -0.151011
v 2.74105 1.34473 -0.134059
v 2.28211 1.29775 -0.122094
v 2.75723 1.23087 -0.154024
v 3.59173 1.44832 -0.142393
v 3.45684 1.48451 -0.104092
v 2.32316 1.00882 -0.154023
v 3.579 0.452574 -0.278956
v 4.25362 0.351892 -0.187285
v 3.579 0.577506 -0.154023
v 4.874 0.254358 -0.107931
v 4.60886 0.297889 -0.139999
v 4.874 0.275869 -0.086421
v 4.71433 0.287993 -0.119822
v 4.44931 0.329357 -0.154023
v 4.41066 0.601321 -0.154023
v 3.579 0.601321 -0.154023
v 3.96019 0.561774 -0.154023
v 4.874 0.257629 -0.099874
v 4.874 0.260644 -0.091718
v 4.874 0.2634 -0.083471
v 5.37663 0.295619 0
v 4.90467 0.432548 -0.11095
v 4.25362 0.351892 0.187285
v 4.60886 0.297889 0.139999
v 4.874 0.254358 0.107931
v 3.579 0.452574 0.278956
v 3.579 0.577506 0.154023
v 4.44931 0.329357 0.154023
v 4.71433 0.287993 0.119822
v 4.874 0.275869 0.086421
v 3.579 0.522652 0.097336
v 3.579 0.601321 0.154023
v 3.579 0.522652 -0.097336
v 4.41066 0.601321 0.154023
v 4.874 0.2634 0.083471
v 4.874 0.260644 0.091718
v 4.874 0.257629 0.099874
v 4.874 0.274866 0.028216
v 4.874 0.274866 -0.028216
v 2.27597 1.3409 0.069447
v 2.68613 1.37943 0.099081
v 2.27365 1.35728 0
v 3.36535 1.51242 0
v 3.33639 1.49676 0.058204
v 3.33015 1.48057 0.086493
v 3.33236 1.47076 0.09967
v 3.33888 1.46077 0.111162
v 3.36136 1.44285 0.12797
v 2.733 1.40138 -0.077583
v 3.40298 1.50505 -0.060978
v 2.27588 1.34159 -0.068059
v 1.06295 1.04259 -0.144153
v 1.03706 1.0566 -0.134069
v 1.43664 1.15935 -0.134069
v 1.42896 1.21606 -0.077591
v 1.01864 1.11079 -0.077591
v 2.062 1.02429 -0.154023
v 1.86832 1.10408 -0.154024
v 1.39121 1.04864 -0.154023
v 2.31117 1.00641 -0.154023
v 2.29829 1.18385 -0.154023
v 1.85761 1.21927 -0.134069
v 1.85231 1.27625 -0.077591
v 2.062 1.3272 0
v 1.39811 1.23282 0
v 1.39121 1.04864 0.154023
v 1.86339 1.16969 0.151836
v 2.062 1.02429 0.154023
v 1.44553 1.11016 0.151836
v 1.43327 1.20125 0.099261
v 1.85488 1.2612 0.099261
v 1.02684 1.09744 0.099261
v 1.06295 1.04259 0.144153
v 2.31117 1.00641 0.154023
v 2.062 1.01606 -0.201328
v 1.40837 1.04019 -0.201328
v 1.20122 1.0452 -0.161298
v 0.755 1.00829 -0.201328
v 2.062 1.01606 0.201328
v 2.062 1.03581 0
v 0.755 1.00829 0.201328
v 1.62259 1.04388 0.161167
v 1.40837 1.04019 0.201328
v 3.579 1.26151 0.154023
v 3.579 0.875572 0.154023
v 3.248 0.862658 0.154023
v 2.82133 0.945226 0.154023
v 3.248 0.862658 -0.154023
v 3.579 0.875572 -0.154023
v 2.82133 0.945226 -0.154023
vt 0 0
vt 0 0
vt 0 0
vt 0 0
vt 0 0
vt 0 0
vt 0 0
vt 0 0
vt 0 0
vt 0 0
vt 0 0
vt 0 0
vt 0 0
vt 0 0
vt 0 0
vt 0 0
vt 0 0
vt 0 0
vt 0 0
vt 0 0
vt 0 0
vt 0 0
vt 0 0
vt 0 0
vt 0 0
vt 0 0
vt 0 0
vt 0 0
vt 0 0
vt 0 0
vt 0 0
vt 0 0
vt 0 0
vt 0 0
vt 0 0
vt 0 0
vt 0 0
vt 0 0
vt 0 0
vt 0 0
vt 0 0
vt 0 0
vt 0 0
vt 0 0
vt 0 0
vt 0 0
vt 0 0
vt 0 0
vt 0 0
vt 0 0
vt 0 0
vt 0 0
vt 0 0
vt 0 0
vt 0 0
vt 0 0
vt 0 0
vt 0 0
vt 0 0
vt 0 0
vt 0 0
vt 0 0
vt 0 0
vt 0 0
vt 0 0
vt 0 0
vt 0 0
vt 0 0
vt 0 0
vt 0 0
vt 0 0
vt 0 0
vt 0 0
vt 0 0
vt 0 0
vt 0 0
vt 0 0
vt 0 0
vt 0 0
vt 0 0
vt 0 0
vt 0 0
vt 0 0
vt 0 0
vt 0 0
vt 0 0
vt 0 0
vt 0 0
vt 0 0
vt 0 0
vt 0 0
vt 0 0
vt 0 0
vt 0 0
vt 0 0
vt 0 0
vt 0 0
vt 0 0
vt 0 0
vt 0 0
vt 0 0
vt 0 0
vt 0 0
vt 0 0
vt 0 0
vt 0 0
vt 0 0
vt 0 0
vt 0 0
vt 0 0
vt 0 0
vt 0 0
vt 0 0
vt 0 0
vt 0 0
vt 0 0
vt 0 0
vt 0 0
vt 0 0
vt 0 0
vt 0 0
vt 0 0
vt 0 0
vt 0 0
vt 0 0
vt 0 0
vt 0 0
vt 0 0
vt 0 0
vt 0 0
vt 0 0
vt 0 0
vt 0 0
vt 0 0
vt 0 0
vt 0 0
vt 0 0
vt 0 0
vt 0 0
vt 0 0
vt 0 0
vt 0 0
vt 0 0
vt 0 0
vt 0 0
vt 0 0
vt 0 0
vt 0 0
vt 0 0
vt 0 0
vt 0 0
vt 0 0
vt 0 0
vt 0 0
vt 0 0
vt 0 0
vt 0 0
vt 0 0
vt 0 0
vt 0 0
vt 0 0
vt 0 0
vt 0 0
vt 0 0
vt 0 0
vt 0 0
vt 0 0
vt 0 0
vt 0 0
vt 0 0
vt 0 0
vt 0 0
vt 0 0
vt 0 0
vt 0 0
vt 0 0
vt 0 0
vt 0 0
vt 0 0
vt 0 0
vt 0 0
vt 0 0
vt 0 0
vt 0 0
vt 0 0
vt 0 0
vt 0 0
vt 0 0
vt 0 0
vt 0 0
vt 0 0
vt 0 0
vt 0 0
vt 0 0
vt 0 0
vt 0 0
vt 0 0
vt 0 0
vt 0 0
vt 0 0
vt 0 0
vt 0 0
vt 0 0
vt 0 0
vt 0 0
vt 0 0
vt 0 0
vt 0 0
vt 0 0
vt 0 0
vt 0 0
vt 0 0
vt 0 0
vt 0 0
vt 0 0
vt 0 0
vt 0 0
vt 0 0
vt 0 0
vt 0 0
vt 0 0
vt 0 0
vt 0 0
vt 0 0
vt 0 0
vt 0 0
vt 0 0
vt 0 0
vt 0 0
vt 0 0
vt 0 0
vt 0 0
vt 0 0
vt 0 0
vt 0 0
vt 0 0
vt 0 0
vt 0 0
vt 0 0
vt 0 0
vt 0 0
vt 0 0
vt 0 0
vt 0 0
vt 0 0
vt 0 0
vt 0 0
vt 0 0
vt 0 0
vt 0 0
vt 0 0
vt 0 0
vt 0 0
vt 0 0
vt 0 0
vt 0 0
vt 0 0
vt 0 0
vt 0 0
vt 0 0
vt 0 0
vt 0 0
vt 0 0
vt 0 0
vt 0 0
vt 0 0
vt 0 0
vt 0 0
vt 0 0
vt 0 0
vt 0 0
vt 0 0
vt 0 0
vt 0 0
vt 0 0
vt 0 0
vt 0 0
vt 0 0
vt 0 0
vt 0 0
vt 0 0
vt 0 0
vt 0 0
vt 0 0
vt 0 0
vt 0 0
vt 0 0
vt 0 0
vt 0 0
vt 0 0
vt 0 0
vt 0 0
vt 0 0
vt 0 0
vt 0 0
vt 0 0
vt 0 0
vt 0 0
vt 0 0
vt 0 0
vt 0 0
vt 0 0
vt 0 0
vt 0 0
vt 0 0
vt 0 0
vt 0 0
vt 0 0
vt 0 0
vt 0 0
vt 0 0
vt 0 0
vt 0 0
vt 0 0
vt 0 0
vt 0 0
vt 0 0
vt 0 0
vt 0 0
vt 0 0
vt 0 0
vt 0 0
vt 0 0
vt 0 0
vt 0 0
vt 0 0
vt 0 0
vt 0 0
vt 0 0
vt 0 0
vt 0 0
vt 0 0
vt 0 0
vt 0 0
vt 0 0
vt 0 0
vt 0 0
vt 0 0
vt 0 0
vt 0 0
vt 0 0
vt 0 0
vt 0 0
vt 0 0
vt 0 0
vt 0 0
vt 0 0
vt 0 0
vt 0 0
vt 0 0
vt 0 0
vt 0 0
vt 0 0
vt 0 0
vt 0 0
vt 0 0
vt 0 0
vt 0 0
vt 0 0
vt 0 0
vt 0 0
vt 0 0
vt 0 0
vt 0 0
vt 0 0
vt 0 0
vt 0 0
vt 0 0
vt 0 0
vt 0 0
vt 0 0
vt 0 0
vt 0 0
vt 0 0
vt 0 0
vt 0 0
vt 0 0
vt 0 0
vt 0 0
vt 0 0
vt 0 0
vt 0 0
vt 0 0
vt 0 0
vt 0 0
vt 0 0
vt 0 0
vt 0 0
vt 0 0
vt 0 0
vt 0 0
vt 0 0
vt 0 0
vt 0 0
vt 0 0
vt 0 0
vt 0 0
vt 0 0
vt 0 0
vt 0 0
vt 0 0
vt 0 0
vt 0 0
vt 0 0
vt 0 0
vt 0 0
vt 0 0
vt 0 0
vt 0 0
vt 0 0
vt 0 0
vt 0 0
vt 0 0
vt 0 0
vt 0 0
vt 0 0
vt 0 0
vt 0 0
vt 0 0
vt 0 0
vt 0 0
vt 0 0
vt 0 0
vt 0 0
vt 0 0
vt 0 0
vt 0 0
vt 0 0
vt 0 0
vt 0 0
vt 0 0
vt 0 0
vt 0 0
vt 0 0
vt 0 0
vt 0 0
vt 0 0
vt 0 0
vt 0 0
vt 0 0
vt 0 0
vt 0 0
vt 0 0
vt 0 0
vt 0 0
vt 0 0
vt 0 0
vt 0 0
vt 0 0
vt 0 0
vt 0 0
vt 0 0
vt 0 0
vt 0 0
vt 0 0
vt 0 0
vt 0 0
vt 0 0
vt 0 0
vt 0 0
vt 0 0
vt 0 0
vt 0 0
vt 0 0
vt 0 0
vt 0 0
vt 0 0
vt 0 0
vt 0 0
vt 0 0
vt 0 0
vt 0 0
vt 0 0
vt 0 0
vt 0 0
vt 0 0
vt 0 0
vt 0 0
vt 0 0
vt 0 0
vt 0 0
vt 0 0
vt 0 0
vt 0 0
vt 0 0
vt 0 0
vt 0 0
vt 0 0
vt 0 0
vt 0 0
vt 0 0
vt 0 0
vt 0 0
vt 0 0
vt 0 0
vt 0 0
vt 0 0
vt 0 0
vt 0 0
vt 0 0
vt 0 0
vt 0 0
vt 0 0
vt 0 0
vt 0 0
vt 0 0
vt 0 0
vt 0 0
vt 0 0
vt 0 0
vt 0 0
vt 0 0
vt 0 0
vt 0 0
vt 0 0
vt 0 0
vt 0 0
vt 0 0
vt 0 0
vt 0 0
vt 0 0
vt 0 0
vt 0 0
vt 0 0
vt 0 0
vt 0 0
vt 0 0
vt 0 0
vt 0 0
vt 0 0
vt 0 0
vt 0 0
vt 0 0
vt 0 0
vt 0 0
vt 0 0
vt 0 0
vt 0 0
vt 0 0
vt 0 0
vt 0 0
vt 0 0
vt 0 0
vt 0 0
vt 0 0
vt 0 0
vt 0 0
vt 0 0
vt 0 0
vt 0 0
vt 0 0
vt 0 0
vt 0 0
vt 0 0
vt 0 0
vt 0 0
vt 0 0
vt 0 0
vt 0 0
vt 0 0
vt 0 0
vt 0 0
vt 0 0
vt 0 0
vt 0 0
vt 0 0
vt 0 0
vt 0 0
vt 0 0
vt 0 0
vt 0 0
vt 0 0
vt 0 0
vt 0 0
vt 0 0
vt 0 0
vt 0 0
vt 0 0
vt 0 0
vt 0 0
vt 0 0
vt 0 0
vt 0 0
vt 0 0
vt 0 0
vt 0 0
vt 0 0
vt 0 0
vt 0 0
vt 0 0
vt 0 0
vt 0 0
vt 0 0
vt 0 0
vt 0 0
vt 0 0
vt 0 0
vt 0 0
vt 0 0
vt 0 0
vt 0 0
vt 0 0
vt 0 0
vt 0 0
vt 0 0
vt 0 0
vt 0 0
vt 0 0
vt 0 0
vt 0 0
vt 0 0
vt 0 0
vt 0 0
vt 0 0
vt 0 0
vt 0 0
vt 0 0
vt 0 0
vt 0 0
vt 0 0
vt 0 0
vt 0 0
vt 0 0
vt 0 0
vt 0 0
vt 0 0
vt 0 0
vt 0 0
vt 0 0
vt 0 0
vt 0 0
vt 0 0
vt 0 0
vt 0 0
vt 0 0
vt 0 0
vt 0 0
vt 0 0
vt 0 0
vt 0 0
vt 0 0
vt 0 0
vt 0 0
vt 0 0
vt 0 0
vt 0 0
vt 0 0
vt 0 0
vt 0 0
vt 0 0
vt 0 0
vt 0 0
vt 0 0
vt 0 0
vt 0 0
vt 0 0
vt 0 0
vt 0 0
vt 0 0
vt 0 0
vt 0 0
vt 0 0
vt 0 0
vt 0 0
vt 0 0
vt 0 0
vt 0 0
vt 0 0
vt 0 0
vt 0 0
vt 0 0
vt 0 0
vt 0 0
vt 0 0
vt 0 0
vt 0 0
vt 0 0
vt 0 0
vt 0 0
vt 0 0
vt 0 0
vt 0 0
vt 0 0
vt 0 0
vt 0 0
vt 0 0
vt 0 0
vt 0 0
vt 0 0
vt 0 0
vt 0 0
vt 0 0
vt 0 0
vt 0 0
vt 0 0
vt 0 0
vt 0 0
vt 0 0
vt 0 0
vt 0 0
vt 0 0
vt 0 0
vt 0 0
vt 0 0
vt 0 0
vt 0 0
vt 0 0
vt 0 0
vt 0 0
vt 0 0
vt 0 0
vt 0 0
vt 0 0
vt 0 0
vt 0 0
vt 0 0
vt 0 0
vt 0 0
vt 0 0
vt 0 0
vt 0 0
vt 0 0
vt 0 0
vt 0 0
vt 0 0
vt 0 0
vt 0 0
vt 0 0
vt 0 0
vt 0 0
vt 0 0
vt 0 0
vt 0 0
vt 0 0
vt 0 0
vt 0 0
vt 0 0
vt 0 0
vt 0 0
vt 0 0
vt 0 0
vt 0 0
vt 0 0
vt 0 0
vt 0 0
vt 0 0
vt 0 0
vt 0 0
vt 0 0
vt 0 0
vt 0 0
vt 0 0
vt 0 0
vt 0 0
vt 0 0
vt 0 0
vt 0 0
vt 0 0
vt 0 0
vt 0 0
vt 0 0
vt 0 0
vt 0 0
vt 0 0
vt 0 0
vt 0 0
vt 0 0
vt 0 0
vt 0 0
vt 0 0
vt 0 0
vt 0 0
vt 0 0
vt 0 0
g Pylon
f 1/1 3/2 2/3
f 2/4 3/5 4/6
f 4/7 3/8 5/9
f 5/10 3/11 6/12
f 6/13 7/14 5/15
f 5/16 7/17 4/18
f 4/19 7/20 2/21
f 7/22 1/23 2/24
f 8/25 9/26 3/27
f 6/28 3/29 10/30
f 10/31 3/32 11/33
f 11/34 3/35 9/36
f 8/37 7/38 9/39
f 9/40 7/41 11/42
f 11/43 7/44 10/45
f 10/46 7/47 6/48
f 8/49 3/50 7/51
f 3/52 1/53 7/54
f 12/55 14/56 13/57
f 12/58 15/59 14/60
f 13/61 14/62 16/63
f 16/64 14/65 17/66
f 17/67 14/68 18/69
f 18/70 14/71 19/72
f 19/73 14/74 20/75
f 20/76 14/77 21/78
f 21/79 14/80 22/81
f 23/82 25/83 24/84
f 23/85 24/86 26/87
f 26/88 24/89 27/90
f 27/91 24/92 28/93
f 24/94 29/95 28/96
f 28/97 29/98 30/99
f 31/100 32/101 29/102
f 25/103 14/104 24/105
f 25/106 22/107 14/108
f 24/109 14/110 15/111
f 32/112 30/113 29/114
f 29/115 33/116 31/117
f 34/118 35/119 33/120
f 33/121 35/122 31/123
f 36/124 38/125 37/126
f 37/127 38/128 39/129
f 39/130 38/131 40/132
f 40/133 38/134 41/135
f 41/136 38/137 42/138
f 38/139 43/140 42/141
f 42/142 43/143 44/144
f 45/145 47/146 46/147
f 45/148 46/149 48/150
f 48/151 46/152 49/153
f 49/154 46/155 50/156
f 50/157 46/158 51/159
f 46/160 52/161 51/162
f 46/163 53/164 52/165
f 46/166 54/167 53/168
f 46/169 55/170 54/171
f 46/172 12/173 55/174
f 56/175 12/176 46/177
f 46/178 43/179 56/180
f 46/181 47/182 43/183
f 57/184 58/185 52/186
f 55/187 12/188 13/189
f 43/190 47/191 44/192
f 58/193 51/194 52/195
f 59/196 61/197 60/198
f 60/199 61/200 62/201
f 36/202 63/203 38/204
f 38/205 63/206 61/207
f 63/208 62/209 61/210
f 64/211 59/212 65/213
f 59/214 66/215 65/216
f 59/217 60/218 66/219
f 65/220 66/221 67/222
f 69/223 66/224 70/225
f 70/226 66/227 60/228
f 67/229 66/230 68/231
f 71/232 73/233 72/234
f 72/235 74/236 71/237
f 72/238 75/239 74/240
f 72/241 76/242 75/243
f 71/244 74/245 132/246
f 132/247 74/248 77/249
f 77/250 74/251 34/252
f 34/253 74/254 35/255
f 35/256 74/257 75/258
f 78/259 80/260 79/261
f 81/262 79/263 82/264
f 83/265 81/266 84/267
f 84/268 81/269 82/270
f 82/271 79/272 85/273
f 85/274 79/275 80/276
f 86/277 88/278 87/279
f 86/280 85/281 88/282
f 87/283 88/284 80/285
f 80/286 88/287 85/288
f 81/289 83/290 89/291
f 89/292 83/293 90/294
f 90/295 83/296 91/297
f 91/298 83/299 92/300
f 12/301 92/302 15/303
f 92/304 93/305 15/306
f 92/307 83/308 93/309
f 15/310 93/311 86/312
f 86/313 93/314 85/315
f 85/316 93/317 82/318
f 82/319 93/320 84/321
f 84/322 93/323 83/324
f 94/325 96/326 95/327
f 97/328 94/329 98/330
f 98/331 94/332 99/333
f 99/334 94/335 95/336
f 95/337 96/338 100/339
f 100/340 96/341 101/342
f 97/343 98/344 102/345
f 98/346 80/347 102/348
f 98/349 87/350 80/351
f 98/352 103/353 87/354
f 78/355 104/356 80/357
f 104/358 102/359 80/360
f 103/361 98/362 105/363
f 105/364 98/365 99/366
f 106/367 101/368 107/369
f 107/370 101/371 108/372
f 108/373 101/374 96/375
f 12/376 56/377 92/378
f 92/379 56/380 106/381
f 106/382 56/383 101/384
f 95/385 100/386 105/387
f 95/388 105/389 99/390
f 105/391 100/392 56/393
f 100/394 101/395 56/396
f 106/397 109/398 92/399
f 91/400 92/401 110/402
f 110/403 92/404 109/405
f 97/406 102/407 94/408
f 96/409 94/410 108/411
f 108/412 94/413 107/414
f 94/415 102/416 107/417
f 107/418 102/419 106/420
f 110/421 109/422 104/423
f 110/424 104/425 91/426
f 91/427 104/428 90/429
f 104/430 79/431 90/432
f 104/433 78/434 79/435
f 81/436 89/437 79/438
f 104/439 109/440 102/441
f 109/442 106/443 102/444
f 89/445 90/446 79/447
f 111/448 68/449 112/450
f 111/451 112/452 113/453
f 113/454 112/455 114/456
f 114/457 112/458 115/459
f 115/460 112/461 116/462
f 116/463 112/464 117/465
f 117/466 112/467 118/468
f 118/469 112/470 119/471
f 112/472 66/473 119/474
f 68/475 66/476 112/477
f 119/478 66/479 69/480
f 114/481 120/482 113/483
f 114/484 121/485 120/486
f 113/487 120/488 122/489
f 72/490 120/491 76/492
f 72/493 73/494 120/495
f 76/496 120/497 121/498
f 122/499 120/500 73/501
f 123/502 1/503 124/504
f 124/505 125/506 123/507
f 124/508 126/509 125/510
f 124/511 127/512 126/513
f 124/514 1/515 127/516
f 128/517 130/518 129/519
f 131/520 128/521 77/522
f 77/523 128/524 132/525
f 128/526 129/527 132/528
f 73/529 71/530 133/531
f 133/532 134/533 73/534
f 133/535 125/536 134/537
f 133/538 129/539 125/540
f 133/541 71/542 129/543
f 113/544 122/545 135/546
f 122/547 134/548 135/549
f 122/550 73/551 134/552
f 7/553 136/554 127/555
f 127/556 1/557 7/558
f 127/559 136/560 126/561
f 135/562 134/563 136/564
f 136/565 134/566 126/567
f 134/568 125/569 126/570
f 132/571 129/572 71/573
f 130/574 125/575 129/576
f 130/577 123/578 125/579
f 137/580 139/581 138/582
f 138/583 140/584 137/585
f 138/586 141/587 140/588
f 138/589 142/590 141/591
f 138/592 68/593 142/594
f 138/595 67/596 68/597
f 138/598 65/599 67/600
f 138/601 139/602 65/603
f 8/604 144/605 143/606
f 8/607 143/608 7/609
f 7/610 143/611 136/612
f 135/613 136/614 142/615
f 113/616 135/617 111/618
f 135/619 142/620 111/621
f 65/622 139/623 64/624
f 64/625 139/626 145/627
f 111/628 142/629 68/630
f 143/631 141/632 136/633
f 143/634 144/635 141/636
f 136/637 141/638 142/639
f 137/640 140/641 144/642
f 144/643 140/644 141/645
f 146/646 147/647 128/648
f 123/649 130/650 148/651
f 1/652 123/653 149/654
f 123/655 148/656 149/657
f 128/658 147/659 130/660
f 149/661 148/662 147/663
f 148/664 130/665 147/666
f 149/667 147/668 146/669
f 150/670 146/671 151/672
f 139/673 150/674 151/675
f 151/676 146/677 128/678
f 8/679 152/680 144/681
f 144/682 152/683 137/684
f 139/685 137/686 153/687
f 139/688 153/689 150/690
f 150/691 153/692 154/693
f 153/694 137/695 154/696
f 152/697 154/698 137/699
f 150/700 154/701 152/702
f 8/703 7/704 152/705
f 152/706 7/707 149/708
f 1/709 149/710 7/711
f 149/712 146/713 152/714
f 152/715 146/716 150/717
f 87/718 33/719 86/720
f 86/721 33/722 29/723
f 29/724 24/725 86/726
f 15/727 86/728 24/729
f 38/730 61/731 105/732
f 105/733 61/734 103/735
f 56/736 43/737 105/738
f 105/739 43/740 38/741
f 157/742 156/743 155/744
f 157/745 155/746 158/747
f 158/748 155/749 145/750
f 159/751 34/752 160/753
f 131/754 34/755 161/756
f 161/757 34/758 159/759
f 61/760 156/761 103/762
f 156/763 59/764 155/765
f 156/766 61/767 59/768
f 160/769 34/770 87/771
f 87/772 34/773 33/774
