# Converted from a320src/A320-family-master/Engines/Models/a320.pylon.cfm.left.ac by simengine's ac3d_to_obj tool
# NOTE: materials/textures are not exported — see tools/ac3d_to_obj/main.cpp LIMITATIONS.
v 0.755 1.0259 0.068585
v 0.70748 1.02164 0.042246
v 0.755 1.02819 0
v 0.686968 1.01959 0.024252
v 0.679523 1.01881 0.013006
v 0.676389 1.01846 0
v 0.755 1.04283 0
v 0.755 1.0259 -0.068585
v 0.70748 1.02164 -0.042246
v 0.679523 1.01881 -0.013006
v 0.686968 1.01959 -0.024252
v 5.86969 0.601321 0
v 7.44092 1.5755 0
v 6.05353 1.1804 0.078352
v 5.3035 0.601321 0.081318
v 7.32496 1.57064 0.010552
v 7.24487 1.56658 0.017646
v 7.22961 1.5657 0.018973
v 7.16854 1.56214 0.024243
v 6.97217 1.5494 0.040623
v 6.85846 1.54104 0.049668
v 6.25996 1.43736 0.087324
v 5.77367 1.35939 0.114235
v 5.3035 1.02978 0.124923
v 5.89074 1.37433 0.10797
v 5.61402 1.34213 0.122289
v 5.27939 1.31875 0.136716
v 4.96822 1.31675 0.14639
v 4.3217 1.22732 0.154023
v 4.72633 1.3257 0.151104
v 4.30318 1.35767 0.154023
v 4.46399 1.3448 0.153631
v 3.8654 1.31914 0.154023
v 3.85991 1.31803 0.154023
v 3.85655 1.40541 0.154023
v 4.31231 1.29341 -0.154023
v 4.45001 1.28255 -0.153705
v 4.3217 1.22732 -0.154023
v 4.51532 1.27786 -0.153319
v 4.5513 1.27539 -0.153037
v 4.63709 1.27049 -0.152159
v 5.00434 1.26502 -0.144878
v 5.3035 1.02978 -0.124923
v 5.32708 1.28012 -0.133734
v 5.88024 1.34716 -0.106841
v 5.98631 1.25499 -0.091805
v 5.62787 1.31135 -0.120064
v 6.24159 1.41406 -0.086603
v 6.43615 1.45077 -0.074964
v 6.59034 1.48078 -0.065533
v 6.68245 1.49904 -0.059836
v 6.88254 1.52984 -0.046131
v 7.05507 1.5457 -0.032538
v 7.15495 1.5541 -0.02437
v 7.22553 1.55987 -0.018502
v 5.3035 0.601321 -0.081318
v 6.74321 1.51074 -0.056002
v 6.69421 1.50139 -0.059106
v 3.695 1.28485 -0.154023
v 3.69203 1.36225 -0.154023
v 3.8654 1.31914 -0.154023
v 3.95065 1.32853 -0.154023
v 4.10643 1.31197 -0.154023
v 2.32316 1.00882 -0.154023
v 2.30114 1.16381 -0.154023
v 2.69902 1.28874 -0.151759
v 2.29169 1.23028 -0.151856
v 2.28246 1.2953 -0.123957
v 3.38982 1.42849 -0.138448
v 3.45279 1.40673 -0.149492
v 2.29105 1.2348 0.151011
v 2.74105 1.34473 0.134059
v 2.28211 1.29775 0.122094
v 2.75723 1.23087 0.154024
v 3.59173 1.44832 0.142393
v 3.45684 1.48451 0.104092
v 2.29829 1.18385 0.154023
v 2.32316 1.00882 0.154023
v 3.579 0.452574 0.278956
v 4.25362 0.351892 0.187285
v 3.579 0.577506 0.154023
v 4.874 0.254358 0.107931
v 4.60886 0.297889 0.139999
v 4.874 0.275869 0.086421
v 4.71433 0.287993 0.119822
v 4.44931 0.329357 0.154023
v 4.41066 0.601321 0.154023
v 3.579 0.601321 0.154023
v 3.96019 0.561774 0.154023
v 4.874 0.257629 0.099874
v 4.874 0.260644 0.091718
v 4.874 0.2634 0.083471
v 5.37663 0.295619 0
v 4.90467 0.432548 0.11095
v 4.25362 0.351892 -0.187285
v 4.60886 0.297889 -0.139999
v 4.874 0.254358 -0.107931
v 3.579 0.452574 -0.278956
v 3.579 0.577506 -0.154023
v 4.44931 0.329357 -0.154023
v 4.71433 0.287993 -0.119822
v 4.874 0.275869 -0.086421
v 3.579 0.522652 -0.097336
v 3.579 0.601321 -0.154023
v 3.579 0.522652 0.097336
v 4.41066 0.601321 -0.154023
v 4.874 0.2634 -0.083471
v 4.874 0.260644 -0.091718
v 4.874 0.257629 -0.099874
v 4.874 0.274866 -0.028216
v 4.874 0.274866 0.028216
v 2.27597 1.3409 -0.069447
v 2.68613 1.37943 -0.099081
v 2.27365 1.35728 0
v 3.36535 1.51242 0
v 3.33639 1.49676 -0.058204
v 3.33015 1.48057 -0.086493
v 3.33236 1.47076 -0.09967
v 3.33888 1.46077 -0.111162
v 3.36136 1.44285 -0.12797
v 2.733 1.40138 0.077583
v 3.40298 1.50505 0.060978
v 2.27588 1.34159 0.068059
v 1.06295 1.04259 0.144153
v 1.03706 1.0566 0.134069
v 1.43664 1.15935 0.134069
v 1.42896 1.21606 0.077591
v 1.01864 1.11079 0.077591
v 2.062 1.02429 0.154023
v 1.86832 1.10408 0.154024
v 1.39121 1.04864 0.154023
v 2.31117 1.00641 0.154023
v 1.85761 1.21927 0.134069
v 1.85231 1.27625 0.077591
v 2.062 1.3272 0
v 1.39811 1.23282 0
v 1.39121 1.04864 -0.154023
v 1.86339 1.16969 -0.151836
v 2.062 1.02429 -0.154023
v 1.44553 1.11016 -0.151836
v 1.43327 1.20125 -0.099261
v 1.85488 1.2612 -0.099261
v 1.02684 1.09744 -0.099261
v 1.06295 1.04259 -0.144153
v 2.31117 1.00641 -0.154023
v 2.062 1.01606 0.201328
v 1.40837 1.04019 0.201328
v 1.20122 1.0452 0.161298
v 0.755 1.00829 0.201328
v 2.062 1.01606 -0.201328
v 2.062 1.03581 0
v 0.755 1.00829 -0.201328
v 1.62259 1.04388 -0.161167
v 1.40837 1.04019 -0.201328
v 3.579 1.26151 -0.154023
v 3.579 0.875572 -0.154023
v 3.248 0.862658 -0.154023
v 2.82133 0.945226 -0.154023
v 3.248 0.862658 0.154023
v 3.579 0.875572 0.154023
v 2.82133 0.945226 0.154023
vt 0 0
vt 0 0
vt 0 0
vt 0 0
vt 0 0
vt 0 0
vt 0 0
vt 0 0
vt 0 0
vt 0 0
vt 0 0
vt 0 0
vt 0 0
vt 0 0
vt 0 0
vt 0 0
vt 0 0
vt 0 0
vt 0 0
vt 0 0
vt 0 0
vt 0 0
vt 0 0
vt 0 0
vt 0 0
vt 0 0
vt 0 0
vt 0 0
vt 0 0
vt 0 0
vt 0 0
vt 0 0
vt 0 0
vt 0 0
vt 0 0
vt 0 0
vt 0 0
vt 0 0
vt 0 0
vt 0 0
vt 0 0
vt 0 0
vt 0 0
vt 0 0
vt 0 0
vt 0 0
vt 0 0
vt 0 0
vt 0 0
vt 0 0
vt 0 0
vt 0 0
vt 0 0
vt 0 0
vt 0 0
vt 0 0
vt 0 0
vt 0 0
vt 0 0
vt 0 0
vt 0 0
vt 0 0
vt 0 0
vt 0 0
vt 0 0
vt 0 0
vt 0 0
vt 0 0
vt 0 0
vt 0 0
vt 0 0
vt 0 0
vt 0 0
vt 0 0
vt 0 0
vt 0 0
vt 0 0
vt 0 0
vt 0 0
vt 0 0
vt 0 0
vt 0 0
vt 0 0
vt 0 0
vt 0 0
vt 0 0
vt 0 0
vt 0 0
vt 0 0
vt 0 0
vt 0 0
vt 0 0
vt 0 0
vt 0 0
vt 0 0
vt 0 0
vt 0 0
vt 0 0
vt 0 0
vt 0 0
vt 0 0
vt 0 0
vt 0 0
vt 0 0
vt 0 0
vt 0 0
vt 0 0
vt 0 0
vt 0 0
vt 0 0
vt 0 0
vt 0 0
vt 0 0
vt 0 0
vt 0 0
vt 0 0
vt 0 0
vt 0 0
vt 0 0
vt 0 0
vt 0 0
vt 0 0
vt 0 0
vt 0 0
vt 0 0
vt 0 0
vt 0 0
vt 0 0
vt 0 0
vt 0 0
vt 0 0
vt 0 0
vt 0 0
vt 0 0
vt 0 0
vt 0 0
vt 0 0
vt 0 0
vt 0 0
vt 0 0
vt 0 0
vt 0 0
vt 0 0
vt 0 0
vt 0 0
vt 0 0
vt 0 0
vt 0 0
vt 0 0
vt 0 0
vt 0 0
vt 0 0
vt 0 0
vt 0 0
vt 0 0
vt 0 0
vt 0 0
vt 0 0
vt 0 0
vt 0 0
vt 0 0
vt 0 0
vt 0 0
vt 0 0
vt 0 0
vt 0 0
vt 0 0
vt 0 0
vt 0 0
vt 0 0
vt 0 0
vt 0 0
vt 0 0
vt 0 0
vt 0 0
vt 0 0
vt 0 0
vt 0 0
vt 0 0
vt 0 0
vt 0 0
vt 0 0
vt 0 0
vt 0 0
vt 0 0
vt 0 0
vt 0 0
vt 0 0
vt 0 0
vt 0 0
vt 0 0
vt 0 0
vt 0 0
vt 0 0
vt 0 0
vt 0 0
vt 0 0
vt 0 0
vt 0 0
vt 0 0
vt 0 0
vt 0 0
vt 0 0
vt 0 0
vt 0 0
vt 0 0
vt 0 0
vt 0 0
vt 0 0
vt 0 0
vt 0 0
vt 0 0
vt 0 0
vt 0 0
vt 0 0
vt 0 0
vt 0 0
vt 0 0
vt 0 0
vt 0 0
vt 0 0
vt 0 0
vt 0 0
vt 0 0
vt 0 0
vt 0 0
vt 0 0
vt 0 0
vt 0 0
vt 0 0
vt 0 0
vt 0 0
vt 0 0
vt 0 0
vt 0 0
vt 0 0
vt 0 0
vt 0 0
vt 0 0
vt 0 0
vt 0 0
vt 0 0
vt 0 0
vt 0 0
vt 0 0
vt 0 0
vt 0 0
vt 0 0
vt 0 0
vt 0 0
vt 0 0
vt 0 0
vt 0 0
vt 0 0
vt 0 0
vt 0 0
vt 0 0
vt 0 0
vt 0 0
vt 0 0
vt 0 0
vt 0 0
vt 0 0
vt 0 0
vt 0 0
vt 0 0
vt 0 0
vt 0 0
vt 0 0
vt 0 0
vt 0 0
vt 0 0
vt 0 0
vt 0 0
vt 0 0
vt 0 0
vt 0 0
vt 0 0
vt 0 0
vt 0 0
vt 0 0
vt 0 0
vt 0 0
vt 0 0
vt 0 0
vt 0 0
vt 0 0
vt 0 0
vt 0 0
vt 0 0
vt 0 0
vt 0 0
vt 0 0
vt 0 0
vt 0 0
vt 0 0
vt 0 0
vt 0 0
vt 0 0
vt 0 0
vt 0 0
vt 0 0
vt 0 0
vt 0 0
vt 0 0
vt 0 0
vt 0 0
vt 0 0
vt 0 0
vt 0 0
vt 0 0
vt 0 0
vt 0 0
vt 0 0
vt 0 0
vt 0 0
vt 0 0
vt 0 0
vt 0 0
vt 0 0
vt 0 0
vt 0 0
vt 0 0
vt 0 0
vt 0 0
vt 0 0
vt 0 0
vt 0 0
vt 0 0
vt 0 0
vt 0 0
vt 0 0
vt 0 0
vt 0 0
vt 0 0
vt 0 0
vt 0 0
vt 0 0
vt 0 0
vt 0 0
vt 0 0
vt 0 0
vt 0 0
vt 0 0
vt 0 0
vt 0 0
vt 0 0
vt 0 0
vt 0 0
vt 0 0
vt 0 0
vt 0 0
vt 0 0
vt 0 0
vt 0 0
vt 0 0
vt 0 0
vt 0 0
vt 0 0
vt 0 0
vt 0 0
vt 0 0
vt 0 0
vt 0 0
vt 0 0
vt 0 0
vt 0 0
vt 0 0
vt 0 0
vt 0 0
vt 0 0
vt 0 0
vt 0 0
vt 0 0
vt 0 0
vt 0 0
vt 0 0
vt 0 0
vt 0 0
vt 0 0
vt 0 0
vt 0 0
vt 0 0
vt 0 0
vt 0 0
vt 0 0
vt 0 0
vt 0 0
vt 0 0
vt 0 0
vt 0 0
vt 0 0
vt 0 0
vt 0 0
vt 0 0
vt 0 0
vt 0 0
vt 0 0
vt 0 0
vt 0 0
vt 0 0
vt 0 0
vt 0 0
vt 0 0
vt 0 0
vt 0 0
vt 0 0
vt 0 0
vt 0 0
vt 0 0
vt 0 0
vt 0 0
vt 0 0
vt 0 0
vt 0 0
vt 0 0
vt 0 0
vt 0 0
vt 0 0
vt 0 0
vt 0 0
vt 0 0
vt 0 0
vt 0 0
vt 0 0
vt 0 0
vt 0 0
vt 0 0
vt 0 0
vt 0 0
vt 0 0
vt 0 0
vt 0 0
vt 0 0
vt 0 0
vt 0 0
vt 0 0
vt 0 0
vt 0 0
vt 0 0
vt 0 0
vt 0 0
vt 0 0
vt 0 0
vt 0 0
vt 0 0
vt 0 0
vt 0 0
vt 0 0
vt 0 0
vt 0 0
vt 0 0
vt 0 0
vt 0 0
vt 0 0
vt 0 0
vt 0 0
vt 0 0
vt 0 0
vt 0 0
vt 0 0
vt 0 0
vt 0 0
vt 0 0
vt 0 0
vt 0 0
vt 0 0
vt 0 0
vt 0 0
vt 0 0
vt 0 0
vt 0 0
vt 0 0
vt 0 0
vt 0 0
vt 0 0
vt 0 0
vt 0 0
vt 0 0
vt 0 0
vt 0 0
vt 0 0
vt 0 0
vt 0 0
vt 0 0
vt 0 0
vt 0 0
vt 0 0
vt 0 0
vt 0 0
vt 0 0
vt 0 0
vt 0 0
vt 0 0
vt 0 0
vt 0 0
vt 0 0
vt 0 0
vt 0 0
vt 0 0
vt 0 0
vt 0 0
vt 0 0
vt 0 0
vt 0 0
vt 0 0
vt 0 0
vt 0 0
vt 0 0
vt 0 0
vt 0 0
vt 0 0
vt 0 0
vt 0 0
vt 0 0
vt 0 0
vt 0 0
vt 0 0
vt 0 0
vt 0 0
vt 0 0
vt 0 0
vt 0 0
vt 0 0
vt 0 0
vt 0 0
vt 0 0
vt 0 0
vt 0 0
vt 0 0
vt 0 0
vt 0 0
vt 0 0
vt 0 0
vt 0 0
vt 0 0
vt 0 0
vt 0 0
vt 0 0
vt 0 0
vt 0 0
vt 0 0
vt 0 0
vt 0 0
vt 0 0
vt 0 0
vt 0 0
vt 0 0
vt 0 0
vt 0 0
vt 0 0
vt 0 0
vt 0 0
vt 0 0
vt 0 0
vt 0 0
vt 0 0
vt 0 0
vt 0 0
vt 0 0
vt 0 0
vt 0 0
vt 0 0
vt 0 0
vt 0 0
vt 0 0
vt 0 0
vt 0 0
vt 0 0
vt 0 0
vt 0 0
vt 0 0
vt 0 0
vt 0 0
vt 0 0
vt 0 0
vt 0 0
vt 0 0
vt 0 0
vt 0 0
vt 0 0
vt 0 0
vt 0 0
vt 0 0
vt 0 0
vt 0 0
vt 0 0
vt 0 0
vt 0 0
vt 0 0
vt 0 0
vt 0 0
vt 0 0
vt 0 0
vt 0 0
vt 0 0
vt 0 0
vt 0 0
vt 0 0
vt 0 0
vt 0 0
vt 0 0
vt 0 0
vt 0 0
vt 0 0
vt 0 0
vt 0 0
vt 0 0
vt 0 0
vt 0 0
vt 0 0
vt 0 0
vt 0 0
vt 0 0
vt 0 0
vt 0 0
vt 0 0
vt 0 0
vt 0 0
vt 0 0
vt 0 0
vt 0 0
vt 0 0
vt 0 0
vt 0 0
vt 0 0
vt 0 0
vt 0 0
vt 0 0
vt 0 0
vt 0 0
vt 0 0
vt 0 0
vt 0 0
vt 0 0
vt 0 0
vt 0 0
vt 0 0
vt 0 0
vt 0 0
vt 0 0
vt 0 0
vt 0 0
vt 0 0
vt 0 0
vt 0 0
vt 0 0
vt 0 0
vt 0 0
vt 0 0
vt 0 0
vt 0 0
vt 0 0
vt 0 0
vt 0 0
vt 0 0
vt 0 0
vt 0 0
vt 0 0
vt 0 0
vt 0 0
vt 0 0
vt 0 0
vt 0 0
vt 0 0
vt 0 0
vt 0 0
vt 0 0
vt 0 0
vt 0 0
vt 0 0
vt 0 0
vt 0 0
vt 0 0
vt 0 0
vt 0 0
vt 0 0
vt 0 0
vt 0 0
vt 0 0
vt 0 0
vt 0 0
vt 0 0
vt 0 0
vt 0 0
vt 0 0
vt 0 0
vt 0 0
vt 0 0
vt 0 0
vt 0 0
vt 0 0
vt 0 0
vt 0 0
vt 0 0
vt 0 0
vt 0 0
vt 0 0
vt 0 0
vt 0 0
vt 0 0
vt 0 0
vt 0 0
vt 0 0
vt 0 0
vt 0 0
vt 0 0
vt 0 0
vt 0 0
vt 0 0
vt 0 0
vt 0 0
vt 0 0
vt 0 0
vt 0 0
vt 0 0
vt 0 0
vt 0 0
vt 0 0
vt 0 0
vt 0 0
vt 0 0
vt 0 0
vt 0 0
vt 0 0
vt 0 0
vt 0 0
vt 0 0
vt 0 0
vt 0 0
vt 0 0
vt 0 0
vt 0 0
vt 0 0
vt 0 0
vt 0 0
vt 0 0
vt 0 0
vt 0 0
vt 0 0
vt 0 0
vt 0 0
vt 0 0
vt 0 0
vt 0 0
vt 0 0
vt 0 0
vt 0 0
vt 0 0
vt 0 0
vt 0 0
vt 0 0
vt 0 0
vt 0 0
vt 0 0
vt 0 0
vt 0 0
vt 0 0
vt 0 0
vt 0 0
vt 0 0
vt 0 0
vt 0 0
vt 0 0
vt 0 0
vt 0 0
vt 0 0
vt 0 0
vt 0 0
vt 0 0
vt 0 0
vt 0 0
vt 0 0
vt 0 0
g Pylon
f 1/1 2/2 3/3
f 2/4 4/5 3/6
f 4/7 5/8 3/9
f 5/10 6/11 3/12
f 6/13 5/14 7/15
f 5/16 4/17 7/18
f 4/19 2/20 7/21
f 2/22 1/23 7/24
f 8/25 3/26 9/27
f 6/28 10/29 3/30
f 10/31 11/32 3/33
f 11/34 9/35 3/36
f 8/37 9/38 7/39
f 9/40 11/41 7/42
f 11/43 10/44 7/45
f 10/46 6/47 7/48
f 8/49 7/50 3/51
f 7/52 1/53 3/54
f 12/55 13/56 14/57
f 12/58 14/59 15/60
f 13/61 16/62 14/63
f 16/64 17/65 14/66
f 17/67 18/68 14/69
f 18/70 19/71 14/72
f 19/73 20/74 14/75
f 20/76 21/77 14/78
f 21/79 22/80 14/81
f 23/82 24/83 25/84
f 23/85 26/86 24/87
f 26/88 27/89 24/90
f 27/91 28/92 24/93
f 24/94 28/95 29/96
f 28/97 30/98 29/99
f 31/100 29/101 32/102
f 25/103 24/104 14/105
f 25/106 14/107 22/108
f 24/109 15/110 14/111
f 32/112 29/113 30/114
f 29/115 31/116 33/117
f 34/118 33/119 35/120
f 33/121 31/122 35/123
f 36/124 37/125 38/126
f 37/127 39/128 38/129
f 39/130 40/131 38/132
f 40/133 41/134 38/135
f 41/136 42/137 38/138
f 38/139 42/140 43/141
f 42/142 44/143 43/144
f 45/145 46/146 47/147
f 45/148 48/149 46/150
f 48/151 49/152 46/153
f 49/154 50/155 46/156
f 50/157 51/158 46/159
f 46/160 51/161 52/162
f 46/163 52/164 53/165
f 46/166 53/167 54/168
f 46/169 54/170 55/171
f 55/172 12/173 46/174
f 46/175 12/176 56/177
f 46/178 56/179 43/180
f 46/181 43/182 47/183
f 57/184 52/185 58/186
f 13/187 12/188 55/189
f 43/190 44/191 47/192
f 58/193 52/194 51/195
f 59/196 60/197 61/198
f 60/199 62/200 61/201
f 36/202 38/203 63/204
f 38/205 61/206 63/207
f 63/208 61/209 62/210
f 64/211 65/212 59/213
f 59/214 65/215 66/216
f 59/217 66/218 60/219
f 65/220 67/221 66/222
f 69/223 70/224 66/225
f 70/226 60/227 66/228
f 67/229 68/230 66/231
f 71/232 72/233 73/234
f 72/235 71/236 74/237
f 72/238 74/239 75/240
f 72/241 75/242 76/243
f 71/244 77/245 74/246
f 77/247 78/248 74/249
f 78/250 34/251 74/252
f 34/253 35/254 74/255
f 35/256 75/257 74/258
f 79/259 80/260 81/261
f 82/262 83/263 80/264
f 84/265 85/266 82/267
f 85/268 83/269 82/270
f 83/271 86/272 80/273
f 86/274 81/275 80/276
f 87/277 88/278 89/279
f 87/280 89/281 86/282
f 88/283 81/284 89/285
f 81/286 86/287 89/288
f 82/289 90/290 84/291
f 90/292 91/293 84/294
f 91/295 92/296 84/297
f 92/298 93/299 84/300
f 12/301 15/302 93/303
f 93/304 15/305 94/306
f 93/307 94/308 84/309
f 15/310 87/311 94/312
f 87/313 86/314 94/315
f 86/316 83/317 94/318
f 83/319 85/320 94/321
f 85/322 84/323 94/324
f 95/325 96/326 97/327
f 98/328 99/329 95/330
f 99/331 100/332 95/333
f 100/334 96/335 95/336
f 96/337 101/338 97/339
f 101/340 102/341 97/342
f 98/343 103/344 99/345
f 99/346 103/347 81/348
f 99/349 81/350 88/351
f 99/352 88/353 104/354
f 79/355 81/356 105/357
f 105/358 81/359 103/360
f 104/361 106/362 99/363
f 106/364 100/365 99/366
f 107/367 108/368 102/369
f 108/370 109/371 102/372
f 109/373 97/374 102/375
f 12/376 93/377 56/378
f 93/379 107/380 56/381
f 107/382 102/383 56/384
f 96/385 106/386 101/387
f 96/388 100/389 106/390
f 106/391 56/392 101/393
f 101/394 56/395 102/396
f 107/397 93/398 110/399
f 92/400 111/401 93/402
f 111/403 110/404 93/405
f 98/406 95/407 103/408
f 97/409 109/410 95/411
f 109/412 108/413 95/414
f 95/415 108/416 103/417
f 108/418 107/419 103/420
f 111/421 105/422 110/423
f 111/424 92/425 105/426
f 92/427 91/428 105/429
f 105/430 91/431 80/432
f 105/433 80/434 79/435
f 82/436 80/437 90/438
f 105/439 103/440 110/441
f 110/442 103/443 107/444
f 90/445 80/446 91/447
f 112/448 113/449 68/450
f 112/451 114/452 113/453
f 114/454 115/455 113/456
f 115/457 116/458 113/459
f 116/460 117/461 113/462
f 117/463 118/464 113/465
f 118/466 119/467 113/468
f 119/469 120/470 113/471
f 120/472 66/473 113/474
f 113/475 66/476 68/477
f 69/478 66/479 120/480
f 115/481 114/482 121/483
f 115/484 121/485 122/486
f 114/487 123/488 121/489
f 72/490 76/491 121/492
f 72/493 121/494 73/495
f 76/496 122/497 121/498
f 123/499 73/500 121/501
f 125/502 1/503 124/504
f 125/505 124/506 126/507
f 125/508 126/509 127/510
f 125/511 127/512 128/513
f 128/514 1/515 125/516
f 129/517 130/518 131/519
f 132/520 78/521 129/522
f 78/523 77/524 129/525
f 129/526 77/527 130/528
f 73/529 133/530 71/531
f 133/532 73/533 134/534
f 133/535 134/536 126/537
f 133/538 126/539 130/540
f 133/541 130/542 71/543
f 114/544 135/545 123/546
f 123/547 135/548 134/549
f 123/550 134/551 73/552
f 7/553 128/554 136/555
f 7/556 1/557 128/558
f 128/559 127/560 136/561
f 135/562 136/563 134/564
f 136/565 127/566 134/567
f 134/568 127/569 126/570
f 77/571 71/572 130/573
f 131/574 130/575 126/576
f 131/577 126/578 124/579
f 137/580 138/581 139/582
f 138/583 137/584 140/585
f 138/586 140/587 141/588
f 138/589 141/590 142/591
f 138/592 142/593 68/594
f 138/595 68/596 67/597
f 138/598 67/599 65/600
f 138/601 65/602 139/603
f 8/604 143/605 144/606
f 8/607 7/608 143/609
f 7/610 136/611 143/612
f 135/613 142/614 136/615
f 114/616 112/617 135/618
f 135/619 112/620 142/621
f 65/622 64/623 139/624
f 64/625 145/626 139/627
f 112/628 68/629 142/630
f 143/631 136/632 141/633
f 143/634 141/635 144/636
f 136/637 142/638 141/639
f 137/640 144/641 140/642
f 144/643 141/644 140/645
f 146/646 129/647 147/648
f 124/649 148/650 131/651
f 1/652 149/653 124/654
f 124/655 149/656 148/657
f 129/658 131/659 147/660
f 149/661 147/662 148/663
f 148/664 147/665 131/666
f 149/667 146/668 147/669
f 150/670 151/671 146/672
f 139/673 151/674 150/675
f 151/676 129/677 146/678
f 8/679 144/680 152/681
f 144/682 137/683 152/684
f 139/685 153/686 137/687
f 139/688 150/689 153/690
f 150/691 154/692 153/693
f 153/694 154/695 137/696
f 152/697 137/698 154/699
f 150/700 152/701 154/702
f 8/703 152/704 7/705
f 152/706 149/707 7/708
f 1/709 7/710 149/711
f 149/712 152/713 146/714
f 152/715 150/716 146/717
f 88/718 87/719 33/720
f 87/721 29/722 33/723
f 29/724 87/725 24/726
f 15/727 24/728 87/729
f 38/730 106/731 61/732
f 106/733 104/734 61/735
f 56/736 106/737 43/738
f 106/739 38/740 43/741
f 157/742 155/743 156/744
f 157/745 158/746 155/747
f 158/748 145/749 155/750
f 160/751 34/752 159/753
f 161/754 34/755 132/756
f 159/757 34/758 161/759
f 61/760 104/761 156/762
f 156/763 155/764 59/765
f 156/766 59/767 61/768
f 88/769 34/770 160/771
f 33/772 34/773 88/774
