# Converted from a320src/A320-family-master/Models/a320.vstab.ac by simengine's ac3d_to_obj tool
# NOTE: materials/textures are not exported — see tools/ac3d_to_obj/main.cpp LIMITATIONS.
v 6.30732 7.27412 0.085143
v 6.01783 7.42687 0.105757
v 5.50552 7.69721 0.086842
v 5.49997 7.70013 0.085739
v 5.55065 7.76962 0.07765
v 5.60563 7.7633 0.090155
v 6.1872 7.74786 0.097883
v 3.26939 2.21822 0.266819
v 3.68191 3 0.244197
v 4.48374 3 0.184021
v 4.01339 1.89857 0.209159
v 4.43448 1.71766 0.15638
v 4.01339 1.89857 0
v 4.40343 1.731 0
v 4.36343 1.72088 0.164998
v 3.94521 1.73889 0.212663
v 6.19267 7 0.093721
v 5.33594 4.99478 0.137704
v 4.90848 3.99385 0.160861
v 5.76429 5.99533 0.114415
v 6.1912 6.9965 0.093857
v 3.03957 1.78268 0.294731
v 6.30732 7.27412 -0.085143
v 6.01783 7.42687 -0.105757
v 5.50552 7.69721 -0.086842
v 5.49997 7.70013 -0.085739
v 5.55065 7.76962 -0.07765
v 5.60563 7.7633 -0.090155
v 6.1872 7.74786 -0.097883
v 3.26939 2.21822 -0.266819
v 3.68191 3 -0.244197
v 4.48374 3 -0.184021
v 4.01339 1.89857 -0.209159
v 4.43448 1.71766 -0.15638
v 4.36343 1.72088 -0.164998
v 3.94521 1.73889 -0.212663
v 6.19267 7 -0.093721
v 5.33594 4.99478 -0.137704
v 4.90848 3.99385 -0.160861
v 5.76429 5.99533 -0.114415
v 6.1912 6.9965 -0.093857
v 3.03957 1.78268 -0.294731
v 1.23647 1.85439 0.290119
v 1.256 1.88116 0
v 1.40143 1.84656 0.299177
v 1.50183 2.21822 -0.228244
v 1.23647 1.85439 -0.290119
v 1.40143 1.84656 -0.299177
v 1.10479 3 0
v 1.10606 3 0.007302
v 4.50676 7 0
v 4.50825 7 0.005316
v 1.1094 3 0.01404
v 1.14558 3 0.042929
v 4.51333 7 0.011255
v 1.11957 3 0.025427
v 4.52493 7 0.018931
v 1.34803 3 0.110083
v 4.54771 7 0.028798
v 1.20956 3 0.070363
v 4.60892 7 0.046424
v 4.73786 7 0.071378
v 0.789958 2.21822 0.196304
v 0.069016 2.21822 0.04459
v 0.045247 2.21822 0.025235
v 0.03704 2.21822 0.013537
v 0.033235 2.21822 0
v -1.11358 1.94594 0
v -1.10864 1.94578 0.012967
v -1.11003 1.96436 0
v -1.1002 1.94548 0.024176
v -1.09247 1.96915 0.024391
v -1.07842 1.94468 0.042477
v -1.02371 1.94263 0.071731
v -0.972497 1.95827 0.089061
v -1.02212 1.99643 0.024555
v -1.06855 1.99907 0
v -1.08614 1.99255 0
v -1.10052 1.98052 0
v -1.10455 1.97169 0.005912
v -0.65207 1.92781 0.172792
v -0.902013 1.98489 0.08827
v -0.90168 1.93789 0.114367
v -0.136899 1.93345 0.235754
v -0.787975 1.98869 0.086672
v -0.90713 1.99951 0.024747
v -0.993237 2.00075 0
v 0.189913 2.02688 0.194503
v 0.311872 2.0789 0.180932
v -0.416149 2.03884 0.079846
v -0.600666 2.0068 0.083302
v 0.067554 1.98327 0.210791
v -0.342869 2.08629 0.025748
v -0.356865 2.08726 0.006751
v -0.527699 2.04465 0.025315
v -0.236325 2.0833 0.07727
v -0.842679 2.00821 0
v -0.730727 2.01793 0.006307
v -0.543811 2.04702 0
v -0.920499 2.00237 0.006109
v -1.03482 1.99923 0.005993
v -0.05815 1.94914 0.227067
v -0.716718 2.01543 0.025016
v 5.60563 7.82153 0.060836
v 5.49061 7.7819 0.059472
v 5.3317 7.68723 0.062658
v 5.60563 7.845 0
v 5.46209 7.82031 0.020137
v 5.60563 7.83893 0.032597
v 5.45733 7.82684 0.008925
v 5.26109 7.74198 0.023119
v 4.97366 7.54898 0
v 5.24789 7.75251 0.010837
v 5.25671 7.76732 0
v 4.8673 7.39981 0.014207
v 4.8986 7.3925 0.026677
v 5.03503 7.35801 0.063182
v 6.51348 7.84133 0.022668
v 6.5049 7.82985 0.045421
v 6.54408 7.84018 0.026012
v 6.53967 7.82963 0.044874
v 6.54609 7.845 0
v 6.28942 7.84126 0.026969
v 6.2742 7.82759 0.054671
v 1.10606 3 -0.007302
v 4.50825 7 -0.005316
v 1.1094 3 -0.01404
v 1.14558 3 -0.042929
v 4.51333 7 -0.011255
v 1.11957 3 -0.025427
v 4.52493 7 -0.018931
v 1.34803 3 -0.110084
v 4.54771 7 -0.028798
v 1.20956 3 -0.070363
v 4.60892 7 -0.046424
v 4.73786 7 -0.071378
v 0.069016 2.21822 -0.04459
v 0.045247 2.21822 -0.025235
v 0.03704 2.21822 -0.013537
v -1.10864 1.94578 -0.012967
v -1.1002 1.94548 -0.024176
v -1.09247 1.96915 -0.024391
v -1.07842 1.94468 -0.042477
v -1.02371 1.94263 -0.071731
v -0.972497 1.95827 -0.089061
v -1.02212 1.99643 -0.024555
v -1.10455 1.97169 -0.005912
v -0.65207 1.92781 -0.172792
v -0.902013 1.98489 -0.08827
v -0.90168 1.93789 -0.114367
v -0.787975 1.98869 -0.086672
v -0.90713 1.99951 -0.024747
v -0.149978 1.9077 -0.24401
v 0.189913 2.02688 -0.194503
v -0.416149 2.03884 -0.079846
v -0.600666 2.0068 -0.083302
v 0.067554 1.98327 -0.210791
v -0.342869 2.08629 -0.025748
v -0.356865 2.08726 -0.006751
v -0.527699 2.04465 -0.025315
v -0.236325 2.0833 -0.07727
v -0.730727 2.01793 -0.006307
v -0.920499 2.00237 -0.006109
v -1.03482 1.99923 -0.005993
v -0.716718 2.01543 -0.025016
v 5.60563 7.82153 -0.060836
v 5.49061 7.7819 -0.059472
v 5.3317 7.68723 -0.062658
v 5.46209 7.82031 -0.020137
v 5.60563 7.83893 -0.032597
v 5.45733 7.82684 -0.008925
v 5.26109 7.74198 -0.023119
v 5.24789 7.75251 -0.010837
v 4.8673 7.39981 -0.014207
v 4.8986 7.3925 -0.026677
v 5.03503 7.35801 -0.063182
v 6.51348 7.84133 -0.022668
v 6.5049 7.82985 -0.045421
v 6.54408 7.84018 -0.026012
v 6.53967 7.82963 -0.044874
v 6.28942 7.84126 -0.026969
v 6.2742 7.82759 -0.054671
v 2.072 3 0.210904
v 1.63216 3 0.165416
v 4.98934 7 0.104207
v 1.50183 2.21822 0.228244
v -0.149978 1.9077 0.24401
v 5.60563 7.79514 0.080913
v 5.34952 7.49385 0.092452
v 5.17364 7.2527 0.096842
v 5.28633 7.40721 0.094015
v 5.62116 7.76197 0.091645
v 6.23398 7.77022 0.093738
v 6.51384 7.76788 0.076004
v 6.49605 7.81355 0.062312
v 6.52293 7.78963 0.072457
v 6.53148 7.81005 0.06296
v 6.25095 7.80789 0.075532
v 5.64016 7.78328 0.08656
v 5.81625 7.77228 0.097699
v 5.95017 7.80838 0.078978
v 2.072 3 -0.210904
v 1.63216 3 -0.165416
v 4.98934 7 -0.104207
v 0.789958 2.21822 -0.196304
v -0.136899 1.93345 -0.235754
v 0.311871 2.0789 -0.180932
v -0.05815 1.94914 -0.227067
v 5.60563 7.79514 -0.080913
v 5.34952 7.49385 -0.092452
v 5.17364 7.2527 -0.096842
v 5.28633 7.40721 -0.094015
v 5.62116 7.76197 -0.091645
v 6.23398 7.77022 -0.093738
v 6.49605 7.81355 -0.062312
v 6.51384 7.76788 -0.075893
v 6.52293 7.78963 -0.072457
v 6.53148 7.81005 -0.06296
v 6.25095 7.80789 -0.075532
v 5.64016 7.78328 -0.08656
v 5.81625 7.77228 -0.097699
v 5.95017 7.80838 -0.078978
v 3.80186 1.98945 0
v 3.99475 1.90658 0
v 3.81837 1.98236 0.084977
v 3.93396 1.9327 0.199235
v 3.86507 1.9623 0.155404
v 5.90122 6.5221 0.077633
v 6.15566 7.01177 0.089371
v 6.10388 7.03402 0.038095
v 6.09649 7.03719 0
v 6.51384 7.76788 0.076004
v 6.19289 7.12737 0.081753
v 6.48215 7.76581 0.07121
v 6.43421 7.76268 0.030971
v 6.45414 7.76398 0.0558
v 6.42682 7.7622 0
v 6.15913 7.14188 0.048014
v 6.49514 7.81255 0.042859
v 6.50986 7.83826 0
v 6.47583 7.82012 0
v 3.81837 1.98236 -0.084977
v 4.01339 1.89857 -0.20895
v 3.93396 1.9327 -0.199235
v 3.86507 1.9623 -0.155404
v 5.90122 6.5221 -0.077633
v 6.15566 7.01177 -0.089371
v 6.10388 7.03402 -0.038095
v 6.19289 7.12737 -0.081753
v 6.48215 7.76581 -0.07121
v 6.43421 7.76268 -0.030971
v 6.45414 7.76398 -0.0558
v 6.15913 7.14188 -0.048014
v 6.49514 7.81255 -0.042859
v 4.05332 1.99208 -0.206843
v 4.90848 3.99384 -0.160852
v 4.48076 2.99302 -0.184188
v 5.33594 4.99478 -0.13775
v 5.76429 5.99533 -0.114406
v 6.1912 6.9965 -0.093815
v 4.05332 1.99208 0.206844
v 4.90848 3.99384 0.160853
v 4.48076 2.99302 0.184189
v 5.33594 4.99478 0.137751
v 5.76429 5.99533 0.114406
v 6.1912 6.9965 0.093815
v 4.01339 1.89857 0.209159
v 6.51384 7.76788 -0.075892
v 6.54007 7.83058 -0.043605
v 6.53127 7.80955 -0.063278
v 6.54432 7.84075 -0.024483
v 6.54007 7.83058 0.043606
v 6.53127 7.80955 0.063278
v 6.5461 7.845 0
v 6.54432 7.84075 0.024484
v 6.51384 7.76788 0.076004
v 4.01339 1.89857 -0.20895
v 4.05332 1.99208 -0.206843
v 4.90848 3.99384 -0.160852
v 4.48076 2.99302 -0.184188
v 5.33594 4.99478 -0.13775
v 5.76429 5.99533 -0.114406
v 6.1912 6.9965 -0.093815
v 4.80073 1.701 -0.066115
v 4.81922 1.701 -0.035023
v 4.74511 1.701 -0.116906
v 4.43448 1.71765 -0.15638
v 6.91966 7 0
v 4.05332 1.99208 0.206844
v 4.90848 3.99384 0.160853
v 4.48076 2.99302 0.184189
v 5.33594 4.99478 0.137751
v 5.76429 5.99533 0.114406
v 6.1912 6.9965 0.093815
v 5.623 1.701 0
v 4.80073 1.701 0.066116
v 4.81922 1.701 0.035023
v 4.82626 1.701 0
v 4.74511 1.701 0.116906
v 4.40343 1.731 0
v 4.43448 1.71765 0.156381
v 4.01339 1.89857 0
v 4.01339 1.89857 0.209159
v 6.67986 7.83851 -0.023303
v 6.91966 7.84283 -0.010685
v 6.91966 7.82746 -0.025536
v 6.91966 7.83665 -0.019672
v 6.91966 7.8167 -0.027341
v 6.51384 7.76788 -0.075892
v 6.54007 7.83058 -0.043605
v 6.55366 7.79322 -0.068733
v 6.53127 7.80955 -0.063278
v 6.69753 7.84446 -0.006533
v 6.54432 7.84075 -0.024483
v 7.12643 7.845 0
v 6.67986 7.83851 0.023303
v 6.91966 7.84283 0.010686
v 6.91966 7.845 0
v 6.91966 7.82746 0.025536
v 6.91966 7.83665 0.019673
v 6.91966 7.8167 0.027342
v 6.54007 7.83058 0.043606
v 6.55366 7.79322 0.068733
v 6.53127 7.80955 0.063278
v 6.69753 7.84446 0.006533
v 6.5461 7.845 0
v 6.54432 7.84075 0.024484
vt 0.829476 0.23312
vt 0.829699 0.233013
vt 0.831512 0.235657
vt 0.829699 0.233013
vt 0.83372 0.235426
vt 0.831512 0.235657
vt 0.850275 0.223143
vt 0.857078 0.234862
vt 0.829699 0.233013
vt 0.83372 0.235426
vt 0.829699 0.233013
vt 0.857078 0.234862
vt 0.861902 0.217565
vt 0.870197 0.235593
vt 0.850275 0.223143
vt 0.870197 0.235593
vt 0.857078 0.234862
vt 0.850275 0.223143
vt 0.788661 0.0615069
vt 0.756456 0.0615069
vt 0.76977 0.0212912
vt 0.756456 0.0615069
vt 0.739888 0.0329623
vt 0.76977 0.0212912
vt 0.76977 0.0212912
vt 0.786682 0.0146855
vt 0.76977 0.0212912
vt 0.786682 0.0146855
vt 0.785435 0.0151727
vt 0.76977 0.0212912
vt 0.786682 0.0146855
vt 0.76977 0.0212912
vt 0.783829 0.0148033
vt 0.76977 0.0212912
vt 0.767031 0.0154609
vt 0.783829 0.0148033
vt 0.861902 0.217565
vt 0.850275 0.223143
vt 0.857297 0.207556
vt 0.756456 0.0615069
vt 0.822888 0.134341
vt 0.850275 0.223143
vt 0.788661 0.0615069
vt 0.80572 0.0977945
vt 0.756456 0.0615069
vt 0.80572 0.0977945
vt 0.822888 0.134341
vt 0.756456 0.0615069
vt 0.822888 0.134341
vt 0.840092 0.170874
vt 0.850275 0.223143
vt 0.857239 0.207429
vt 0.857297 0.207556
vt 0.840092 0.170874
vt 0.840092 0.170874
vt 0.857297 0.207556
vt 0.850275 0.223143
vt 0.76977 0.0212912
vt 0.739888 0.0329623
vt 0.730658 0.0170597
vt 0.730658 0.0170597
vt 0.767031 0.0154609
vt 0.76977 0.0212912
vt 0.829476 0.23312
vt 0.829476 0.23312
vt 0.831512 0.235657
vt 0.831512 0.235657
vt 0.829476 0.23312
vt 0.831512 0.235657
vt 0.172835 0.23312
vt 0.1708 0.235657
vt 0.172612 0.233013
vt 0.172612 0.233013
vt 0.1708 0.235657
vt 0.168592 0.235426
vt 0.152036 0.223143
vt 0.172612 0.233013
vt 0.145233 0.234862
vt 0.168592 0.235426
vt 0.145233 0.234862
vt 0.172612 0.233013
vt 0.857078 0.234862
vt 0.857078 0.234862
vt 0.83372 0.235426
vt 0.831512 0.235657
vt 0.83372 0.235426
vt 0.831512 0.235657
vt 0.831512 0.235657
vt 0.83372 0.235426
vt 0.83372 0.235426
vt 0.83372 0.235426
vt 0.83372 0.235426
vt 0.857078 0.234862
vt 0.140409 0.217565
vt 0.152036 0.223143
vt 0.132114 0.235593
vt 0.132114 0.235593
vt 0.152036 0.223143
vt 0.145233 0.234862
vt 0.857078 0.234862
vt 0.870197 0.235593
vt 0.857078 0.234862
vt 0.857078 0.234862
vt 0.870197 0.235593
vt 0.870197 0.235593
vt 0.21365 0.0615069
vt 0.232541 0.0212912
vt 0.245855 0.0615069
vt 0.245855 0.0615069
vt 0.232541 0.0212912
vt 0.262423 0.0329623
vt 0.232541 0.0212912
vt 0.232541 0.0212912
vt 0.215629 0.0146855
vt 0.215629 0.0146855
vt 0.232541 0.0212912
vt 0.216876 0.0151727
vt 0.215629 0.0146855
vt 0.218483 0.0148033
vt 0.232541 0.0212912
vt 0.232541 0.0212912
vt 0.218483 0.0148033
vt 0.23528 0.0154609
vt 0.140409 0.217565
vt 0.145014 0.207556
vt 0.152036 0.223143
vt 0.245855 0.0615069
vt 0.152036 0.223143
vt 0.179423 0.134341
vt 0.21365 0.0615069
vt 0.245855 0.0615069
vt 0.196592 0.0977945
vt 0.196592 0.0977945
vt 0.245855 0.0615069
vt 0.179423 0.134341
vt 0.179423 0.134341
vt 0.152036 0.223143
vt 0.162219 0.170874
vt 0.145073 0.207429
vt 0.162219 0.170874
vt 0.145014 0.207556
vt 0.162219 0.170874
vt 0.152036 0.223143
vt 0.145014 0.207556
vt 0.232541 0.0212912
vt 0.271654 0.0170597
vt 0.262423 0.0329623
vt 0.271654 0.0170597
vt 0.232541 0.0212912
vt 0.23528 0.0154609
vt 0.739888 0.0329623
vt 0.756456 0.0615069
vt 0.668896 0.0329622
vt 0.756456 0.0615069
vt 0.850275 0.223143
vt 0.668896 0.0329622
vt 0.829476 0.23312
vt 0.668896 0.0329622
vt 0.829699 0.233013
vt 0.668896 0.0329622
vt 0.850275 0.223143
vt 0.829699 0.233013
vt 0.658239 0.0196781
vt 0.668896 0.0329622
vt 0.659023 0.0206554
vt 0.658239 0.0196781
vt 0.664864 0.0193922
vt 0.668896 0.0329622
vt 0.730658 0.0170597
vt 0.739888 0.0329623
vt 0.664864 0.0193922
vt 0.739888 0.0329623
vt 0.668896 0.0329622
vt 0.664864 0.0193922
vt 0.262423 0.0329623
vt 0.333415 0.0329623
vt 0.245855 0.0615069
vt 0.245855 0.0615069
vt 0.333415 0.0329623
vt 0.152036 0.223143
vt 0.172835 0.23312
vt 0.172612 0.233013
vt 0.333415 0.0329623
vt 0.172612 0.233013
vt 0.152036 0.223143
vt 0.333415 0.0329623
vt 0.829476 0.23312
vt 0.668896 0.0329623
vt 0.829476 0.23312
vt 0.668896 0.0329622
vt 0.829476 0.23312
vt 0.668896 0.0329623
vt 0.344072 0.0196781
vt 0.343288 0.0206554
vt 0.333415 0.0329623
vt 0.668896 0.0329623
vt 0.659023 0.0206554
vt 0.668896 0.0329622
vt 0.344072 0.0196781
vt 0.333415 0.0329623
vt 0.337447 0.0193922
vt 0.271654 0.0170597
vt 0.337447 0.0193922
vt 0.262423 0.0329623
vt 0.262423 0.0329623
vt 0.337447 0.0193922
vt 0.333415 0.0329623
vt 0.65295 0.0615069
vt 0.653001 0.0615069
vt 0.789585 0.207556
vt 0.789585 0.207556
vt 0.653001 0.0615069
vt 0.789645 0.207556
vt 0.653001 0.0615069
vt 0.653135 0.0615069
vt 0.789645 0.207556
vt 0.654588 0.0615069
vt 0.789849 0.207556
vt 0.653544 0.0615069
vt 0.789849 0.207556
vt 0.654588 0.0615069
vt 0.790315 0.207556
vt 0.662719 0.0615069
vt 0.79123 0.207556
vt 0.657158 0.0615069
vt 0.79123 0.207556
vt 0.662719 0.0615069
vt 0.793688 0.207556
vt 0.798867 0.207556
vt 0.793688 0.207556
vt 0.674131 0.0615069
vt 0.674131 0.0615069
vt 0.793688 0.207556
vt 0.662719 0.0615069
vt 0.79123 0.207556
vt 0.790315 0.207556
vt 0.657158 0.0615069
vt 0.657158 0.0615069
vt 0.790315 0.207556
vt 0.654588 0.0615069
vt 0.789849 0.207556
vt 0.789645 0.207556
vt 0.653544 0.0615069
vt 0.653544 0.0615069
vt 0.789645 0.207556
vt 0.653135 0.0615069
vt 0.657158 0.0615069
vt 0.611349 0.0329622
vt 0.662719 0.0615069
vt 0.657158 0.0615069
vt 0.654588 0.0615069
vt 0.611349 0.0329622
vt 0.654588 0.0615069
vt 0.653544 0.0615069
vt 0.611349 0.0329622
vt 0.611349 0.0329622
vt 0.653544 0.0615069
vt 0.610395 0.0329622
vt 0.653001 0.0615069
vt 0.610065 0.0329622
vt 0.653135 0.0615069
vt 0.65295 0.0615069
vt 0.609912 0.0329622
vt 0.653001 0.0615069
vt 0.609912 0.0329622
vt 0.610065 0.0329622
vt 0.653001 0.0615069
vt 0.610065 0.0329622
vt 0.610395 0.0329622
vt 0.653135 0.0615069
vt 0.653135 0.0615069
vt 0.610395 0.0329622
vt 0.653544 0.0615069
vt 0.611349 0.0329622
vt 0.640305 0.0329622
vt 0.662719 0.0615069
vt 0.662719 0.0615069
vt 0.640305 0.0329622
vt 0.674131 0.0615069
vt 0.563852 0.0230206
vt 0.564051 0.0230146
vt 0.563995 0.023693
vt 0.564389 0.0230037
vt 0.5647 0.0238682
vt 0.564051 0.0230146
vt 0.564389 0.0230037
vt 0.565264 0.0229747
vt 0.5647 0.0238682
vt 0.565264 0.0229747
vt 0.567461 0.0228998
vt 0.5647 0.0238682
vt 0.5647 0.0238682
vt 0.567461 0.0228998
vt 0.569519 0.023471
vt 0.5647 0.0238682
vt 0.569519 0.023471
vt 0.567526 0.0248643
vt 0.5647 0.0238682
vt 0.567526 0.0248643
vt 0.565661 0.0249605
vt 0.5647 0.0238682
vt 0.565661 0.0249605
vt 0.564954 0.0247225
vt 0.5647 0.0238682
vt 0.564954 0.0247225
vt 0.564377 0.0242831
vt 0.5647 0.0238682
vt 0.564377 0.0242831
vt 0.564215 0.023961
vt 0.5647 0.0238682
vt 0.564215 0.023961
vt 0.564051 0.0230146
vt 0.582388 0.0223587
vt 0.572349 0.0244428
vt 0.572363 0.0227267
vt 0.572349 0.0244428
vt 0.582388 0.0223587
vt 0.603079 0.0225648
vt 0.572349 0.0244428
vt 0.603079 0.0225648
vt 0.57693 0.0245817
vt 0.572349 0.0244428
vt 0.57693 0.0245817
vt 0.572144 0.0249764
vt 0.572349 0.0244428
vt 0.572144 0.0249764
vt 0.568686 0.0250219
vt 0.572349 0.0244428
vt 0.568686 0.0250219
vt 0.567526 0.0248643
vt 0.572349 0.0244428
vt 0.567526 0.0248643
vt 0.569519 0.023471
vt 0.572349 0.0244428
vt 0.569519 0.023471
vt 0.572363 0.0227267
vt 0.582388 0.0223587
vt 0.602554 0.0216246
vt 0.603079 0.0225648
vt 0.616205 0.0259759
vt 0.621103 0.0278755
vt 0.591863 0.0264127
vt 0.616205 0.0259759
vt 0.591863 0.0264127
vt 0.584453 0.0252429
vt 0.616205 0.0259759
vt 0.584453 0.0252429
vt 0.611291 0.0243837
vt 0.610395 0.0329622
vt 0.594807 0.0281452
vt 0.611349 0.0329622
vt 0.610395 0.0329622
vt 0.610065 0.0329622
vt 0.594807 0.0281452
vt 0.594807 0.0281452
vt 0.610065 0.0329622
vt 0.594245 0.0281807
vt 0.594807 0.0281452
vt 0.594245 0.0281807
vt 0.586736 0.0267114
vt 0.594807 0.0281452
vt 0.586736 0.0267114
vt 0.587383 0.0266247
vt 0.594807 0.0281452
vt 0.587383 0.0266247
vt 0.599086 0.0280361
vt 0.594807 0.0281452
vt 0.599086 0.0280361
vt 0.611349 0.0329622
vt 0.610065 0.0329622
vt 0.609912 0.0329622
vt 0.594245 0.0281807
vt 0.574732 0.0252943
vt 0.579229 0.0256494
vt 0.586736 0.0267114
vt 0.568686 0.0250219
vt 0.571607 0.0250809
vt 0.574732 0.0252943
vt 0.567526 0.0248643
vt 0.568686 0.0250219
vt 0.567015 0.0249665
vt 0.567526 0.0248643
vt 0.567015 0.0249665
vt 0.565661 0.0249605
vt 0.564377 0.0242831
vt 0.563995 0.023693
vt 0.564215 0.023961
vt 0.609912 0.0329622
vt 0.586736 0.0267114
vt 0.594245 0.0281807
vt 0.572363 0.0227267
vt 0.569519 0.023471
vt 0.567461 0.0228998
vt 0.563995 0.023693
vt 0.564051 0.0230146
vt 0.564215 0.023961
vt 0.568686 0.0250219
vt 0.565661 0.0249605
vt 0.567015 0.0249665
vt 0.603079 0.0225648
vt 0.606242 0.0231376
vt 0.57693 0.0245817
vt 0.611291 0.0243837
vt 0.584453 0.0252429
vt 0.606242 0.0231376
vt 0.574732 0.0252943
vt 0.571607 0.0250809
vt 0.572144 0.0249764
vt 0.574732 0.0252943
vt 0.572144 0.0249764
vt 0.57693 0.0245817
vt 0.574732 0.0252943
vt 0.57693 0.0245817
vt 0.584453 0.0252429
vt 0.574732 0.0252943
vt 0.584453 0.0252429
vt 0.579792 0.0255579
vt 0.574732 0.0252943
vt 0.579792 0.0255579
vt 0.579229 0.0256494
vt 0.568686 0.0250219
vt 0.572144 0.0249764
vt 0.571607 0.0250809
vt 0.584453 0.0252429
vt 0.57693 0.0245817
vt 0.606242 0.0231376
vt 0.640305 0.0329622
vt 0.611349 0.0329622
vt 0.621103 0.0278755
vt 0.621103 0.0278755
vt 0.599086 0.0280361
vt 0.591863 0.0264127
vt 0.621103 0.0278755
vt 0.611349 0.0329622
vt 0.599086 0.0280361
vt 0.579229 0.0256494
vt 0.579792 0.0255579
vt 0.587383 0.0266247
vt 0.579229 0.0256494
vt 0.587383 0.0266247
vt 0.586736 0.0267114
vt 0.587383 0.0266247
vt 0.579792 0.0255579
vt 0.591863 0.0264127
vt 0.587383 0.0266247
vt 0.591863 0.0264127
vt 0.599086 0.0280361
vt 0.591863 0.0264127
vt 0.579792 0.0255579
vt 0.584453 0.0252429
vt 0.83372 0.238409
vt 0.827955 0.237508
vt 0.83372 0.238188
vt 0.827955 0.237508
vt 0.83372 0.238409
vt 0.827764 0.237746
vt 0.827955 0.237508
vt 0.827764 0.237746
vt 0.819882 0.234648
vt 0.827955 0.237508
vt 0.819882 0.234648
vt 0.822718 0.232649
vt 0.827955 0.237508
vt 0.822718 0.232649
vt 0.8291 0.236105
vt 0.827955 0.237508
vt 0.8291 0.236105
vt 0.83372 0.238188
vt 0.808338 0.227601
vt 0.819352 0.235032
vt 0.819706 0.235573
vt 0.789585 0.207556
vt 0.804066 0.222154
vt 0.808338 0.227601
vt 0.789585 0.207556
vt 0.789645 0.207556
vt 0.804066 0.222154
vt 0.789645 0.207556
vt 0.789849 0.207556
vt 0.804066 0.222154
vt 0.789849 0.207556
vt 0.790315 0.207556
vt 0.804066 0.222154
vt 0.790315 0.207556
vt 0.79123 0.207556
vt 0.804066 0.222154
vt 0.804066 0.222154
vt 0.79123 0.207556
vt 0.805323 0.221887
vt 0.804066 0.222154
vt 0.805323 0.221887
vt 0.808338 0.227601
vt 0.798867 0.207556
vt 0.810803 0.220628
vt 0.793688 0.207556
vt 0.83372 0.237552
vt 0.83372 0.238188
vt 0.8291 0.236105
vt 0.819706 0.235573
vt 0.819352 0.235032
vt 0.827764 0.237746
vt 0.819706 0.235573
vt 0.827764 0.237746
vt 0.83372 0.238409
vt 0.819352 0.235032
vt 0.808338 0.227601
vt 0.819882 0.234648
vt 0.819352 0.235032
vt 0.819882 0.234648
vt 0.827764 0.237746
vt 0.822718 0.232649
vt 0.819882 0.234648
vt 0.810803 0.220628
vt 0.819882 0.234648
vt 0.808338 0.227601
vt 0.805323 0.221887
vt 0.819882 0.234648
vt 0.805323 0.221887
vt 0.810803 0.220628
vt 0.793688 0.207556
vt 0.810803 0.220628
vt 0.805323 0.221887
vt 0.793688 0.207556
vt 0.805323 0.221887
vt 0.79123 0.207556
vt 0.871411 0.238233
vt 0.870183 0.238275
vt 0.871234 0.237848
vt 0.871411 0.238233
vt 0.871492 0.238409
vt 0.870183 0.238275
vt 0.83372 0.238409
vt 0.83372 0.238188
vt 0.871492 0.238409
vt 0.871492 0.238409
vt 0.83372 0.238188
vt 0.861183 0.238273
vt 0.871492 0.238409
vt 0.861183 0.238273
vt 0.870183 0.238275
vt 0.860572 0.237774
vt 0.869838 0.237856
vt 0.870183 0.238275
vt 0.860572 0.237774
vt 0.870183 0.238275
vt 0.861183 0.238273
vt 0.871234 0.237848
vt 0.870183 0.238275
vt 0.869838 0.237856
vt 0.83372 0.238188
vt 0.83372 0.237552
vt 0.860572 0.237774
vt 0.861183 0.238273
vt 0.83372 0.238188
vt 0.860572 0.237774
vt 0.349361 0.0615069
vt 0.212726 0.207556
vt 0.349311 0.0615069
vt 0.212726 0.207556
vt 0.212666 0.207556
vt 0.349311 0.0615069
vt 0.349311 0.0615069
vt 0.212666 0.207556
vt 0.349176 0.0615069
vt 0.347723 0.0615069
vt 0.348768 0.0615069
vt 0.212462 0.207556
vt 0.212462 0.207556
vt 0.211996 0.207556
vt 0.347723 0.0615069
vt 0.339592 0.0615069
vt 0.345154 0.0615069
vt 0.211081 0.207556
vt 0.211081 0.207556
vt 0.208623 0.207556
vt 0.339592 0.0615069
vt 0.203444 0.207556
vt 0.32818 0.0615069
vt 0.208623 0.207556
vt 0.32818 0.0615069
vt 0.339592 0.0615069
vt 0.208623 0.207556
vt 0.211081 0.207556
vt 0.345154 0.0615069
vt 0.211996 0.207556
vt 0.345154 0.0615069
vt 0.347723 0.0615069
vt 0.211996 0.207556
vt 0.212462 0.207556
vt 0.348768 0.0615069
vt 0.212666 0.207556
vt 0.348768 0.0615069
vt 0.349176 0.0615069
vt 0.212666 0.207556
vt 0.345154 0.0615069
vt 0.339592 0.0615069
vt 0.390962 0.0329622
vt 0.345154 0.0615069
vt 0.390962 0.0329622
vt 0.347723 0.0615069
vt 0.347723 0.0615069
vt 0.390962 0.0329622
vt 0.348768 0.0615069
vt 0.390962 0.0329622
vt 0.391916 0.0329622
vt 0.348768 0.0615069
vt 0.349311 0.0615069
vt 0.349176 0.0615069
vt 0.392246 0.0329622
vt 0.349361 0.0615069
vt 0.349311 0.0615069
vt 0.392399 0.0329622
vt 0.392399 0.0329622
vt 0.349311 0.0615069
vt 0.392246 0.0329622
vt 0.392246 0.0329622
vt 0.349176 0.0615069
vt 0.391916 0.0329622
vt 0.349176 0.0615069
vt 0.348768 0.0615069
vt 0.391916 0.0329622
vt 0.390962 0.0329622
vt 0.339592 0.0615069
vt 0.362006 0.0329622
vt 0.339592 0.0615069
vt 0.32818 0.0615069
vt 0.362006 0.0329622
vt 0.438459 0.0230206
vt 0.438317 0.023693
vt 0.438261 0.0230146
vt 0.437922 0.0230037
vt 0.438261 0.0230146
vt 0.437611 0.0238682
vt 0.437922 0.0230037
vt 0.437611 0.0238682
vt 0.437047 0.0229747
vt 0.437047 0.0229747
vt 0.437611 0.0238682
vt 0.43485 0.0228998
vt 0.437611 0.0238682
vt 0.432793 0.023471
vt 0.43485 0.0228998
vt 0.437611 0.0238682
vt 0.434786 0.0248643
vt 0.432793 0.023471
vt 0.437611 0.0238682
vt 0.436651 0.0249605
vt 0.434786 0.0248643
vt 0.437611 0.0238682
vt 0.437357 0.0247225
vt 0.436651 0.0249605
vt 0.437611 0.0238682
vt 0.437934 0.0242831
vt 0.437357 0.0247225
vt 0.437611 0.0238682
vt 0.438096 0.023961
vt 0.437934 0.0242831
vt 0.437611 0.0238682
vt 0.438261 0.0230146
vt 0.438096 0.023961
vt 0.419923 0.0223587
vt 0.429948 0.0227267
vt 0.429962 0.0244428
vt 0.429962 0.0244428
vt 0.399232 0.0225648
vt 0.419923 0.0223587
vt 0.429962 0.0244428
vt 0.425382 0.0245817
vt 0.399232 0.0225648
vt 0.429962 0.0244428
vt 0.430167 0.0249764
vt 0.425382 0.0245817
vt 0.429962 0.0244428
vt 0.433626 0.0250219
vt 0.430167 0.0249764
vt 0.429962 0.0244428
vt 0.434786 0.0248643
vt 0.433626 0.0250219
vt 0.429962 0.0244428
vt 0.432793 0.023471
vt 0.434786 0.0248643
vt 0.429962 0.0244428
vt 0.429948 0.0227267
vt 0.432793 0.023471
vt 0.419923 0.0223587
vt 0.399232 0.0225648
vt 0.399757 0.0216246
vt 0.386106 0.0259759
vt 0.410448 0.0264127
vt 0.381208 0.0278755
vt 0.386106 0.0259759
vt 0.417859 0.0252429
vt 0.410448 0.0264127
vt 0.386106 0.0259759
vt 0.39102 0.0243837
vt 0.417859 0.0252429
vt 0.391916 0.0329622
vt 0.390962 0.0329622
vt 0.407505 0.0281452
vt 0.391916 0.0329622
vt 0.407505 0.0281452
vt 0.392246 0.0329622
vt 0.407505 0.0281452
vt 0.408067 0.0281807
vt 0.392246 0.0329622
vt 0.407505 0.0281452
vt 0.415575 0.0267114
vt 0.408067 0.0281807
vt 0.407505 0.0281452
vt 0.414928 0.0266247
vt 0.415575 0.0267114
vt 0.407505 0.0281452
vt 0.403225 0.0280361
vt 0.414928 0.0266247
vt 0.407505 0.0281452
vt 0.390962 0.0329622
vt 0.403225 0.0280361
vt 0.392246 0.0329622
vt 0.408067 0.0281807
vt 0.392399 0.0329622
vt 0.427579 0.0252943
vt 0.415575 0.0267114
vt 0.423082 0.0256494
vt 0.433626 0.0250219
vt 0.427579 0.0252943
vt 0.430704 0.0250809
vt 0.434786 0.0248643
vt 0.435296 0.0249665
vt 0.433626 0.0250219
vt 0.434786 0.0248643
vt 0.436651 0.0249605
vt 0.435296 0.0249665
vt 0.437934 0.0242831
vt 0.438096 0.023961
vt 0.438317 0.023693
vt 0.392399 0.0329622
vt 0.408067 0.0281807
vt 0.415575 0.0267114
vt 0.429948 0.0227267
vt 0.43485 0.0228998
vt 0.432793 0.023471
vt 0.438317 0.023693
vt 0.438096 0.023961
vt 0.438261 0.0230146
vt 0.433626 0.0250219
vt 0.435296 0.0249665
vt 0.436651 0.0249605
vt 0.399232 0.0225648
vt 0.425382 0.0245817
vt 0.396069 0.0231376
vt 0.39102 0.0243837
vt 0.396069 0.0231376
vt 0.417859 0.0252429
vt 0.427579 0.0252943
vt 0.430167 0.0249764
vt 0.430704 0.0250809
vt 0.427579 0.0252943
vt 0.425382 0.0245817
vt 0.430167 0.0249764
vt 0.427579 0.0252943
vt 0.417859 0.0252429
vt 0.425382 0.0245817
vt 0.427579 0.0252943
vt 0.42252 0.0255579
vt 0.417859 0.0252429
vt 0.427579 0.0252943
vt 0.423082 0.0256494
vt 0.42252 0.0255579
vt 0.433626 0.0250219
vt 0.430704 0.0250809
vt 0.430167 0.0249764
vt 0.417859 0.0252429
vt 0.396069 0.0231376
vt 0.425382 0.0245817
vt 0.362006 0.0329622
vt 0.381208 0.0278755
vt 0.390962 0.0329622
vt 0.381208 0.0278755
vt 0.410448 0.0264127
vt 0.403225 0.0280361
vt 0.381208 0.0278755
vt 0.403225 0.0280361
vt 0.390962 0.0329622
vt 0.423082 0.0256494
vt 0.414928 0.0266247
vt 0.42252 0.0255579
vt 0.423082 0.0256494
vt 0.415575 0.0267114
vt 0.414928 0.0266247
vt 0.414928 0.0266247
vt 0.410448 0.0264127
vt 0.42252 0.0255579
vt 0.414928 0.0266247
vt 0.403225 0.0280361
vt 0.410448 0.0264127
vt 0.410448 0.0264127
vt 0.417859 0.0252429
vt 0.42252 0.0255579
vt 0.168592 0.238409
vt 0.168592 0.238188
vt 0.174356 0.237508
vt 0.174356 0.237508
vt 0.174548 0.237746
vt 0.168592 0.238409
vt 0.174356 0.237508
vt 0.182429 0.234648
vt 0.174548 0.237746
vt 0.174356 0.237508
vt 0.179594 0.232649
vt 0.182429 0.234648
vt 0.174356 0.237508
vt 0.173211 0.236105
vt 0.179594 0.232649
vt 0.174356 0.237508
vt 0.168592 0.238188
vt 0.173211 0.236105
vt 0.193974 0.227601
vt 0.182605 0.235573
vt 0.18296 0.235032
vt 0.212726 0.207556
vt 0.193974 0.227601
vt 0.198246 0.222154
vt 0.212726 0.207556
vt 0.198246 0.222154
vt 0.212666 0.207556
vt 0.212666 0.207556
vt 0.198246 0.222154
vt 0.212462 0.207556
vt 0.212462 0.207556
vt 0.198246 0.222154
vt 0.211996 0.207556
vt 0.211996 0.207556
vt 0.198246 0.222154
vt 0.211081 0.207556
vt 0.198246 0.222154
vt 0.196988 0.221887
vt 0.211081 0.207556
vt 0.198246 0.222154
vt 0.193974 0.227601
vt 0.196988 0.221887
vt 0.203444 0.207556
vt 0.208623 0.207556
vt 0.191509 0.220628
vt 0.168592 0.237552
vt 0.173211 0.236105
vt 0.168592 0.238188
vt 0.182605 0.235573
vt 0.174548 0.237746
vt 0.18296 0.235032
vt 0.182605 0.235573
vt 0.168592 0.238409
vt 0.174548 0.237746
vt 0.18296 0.235032
vt 0.182429 0.234648
vt 0.193974 0.227601
vt 0.18296 0.235032
vt 0.174548 0.237746
vt 0.182429 0.234648
vt 0.179594 0.232649
vt 0.191509 0.220628
vt 0.182429 0.234648
vt 0.182429 0.234648
vt 0.196988 0.221887
vt 0.193974 0.227601
vt 0.182429 0.234648
vt 0.191509 0.220628
vt 0.196988 0.221887
vt 0.208623 0.207556
vt 0.196988 0.221887
vt 0.191509 0.220628
vt 0.208623 0.207556
vt 0.211081 0.207556
vt 0.196988 0.221887
vt 0.1309 0.238233
vt 0.131077 0.237848
vt 0.132129 0.238275
vt 0.1309 0.238233
vt 0.132129 0.238275
vt 0.130819 0.238409
vt 0.168592 0.238409
vt 0.130819 0.238409
vt 0.168592 0.238188
vt 0.130819 0.238409
vt 0.141128 0.238273
vt 0.168592 0.238188
vt 0.130819 0.238409
vt 0.132129 0.238275
vt 0.141128 0.238273
vt 0.141739 0.237774
vt 0.132129 0.238275
vt 0.132473 0.237856
vt 0.141739 0.237774
vt 0.141128 0.238273
vt 0.132129 0.238275
vt 0.131077 0.237848
vt 0.132473 0.237856
vt 0.132129 0.238275
vt 0.168592 0.238188
vt 0.141739 0.237774
vt 0.168592 0.237552
vt 0.141128 0.238273
vt 0.141739 0.237774
vt 0.168592 0.238188
vt 0.691797 0.0615069
vt 0.798867 0.207556
vt 0.674131 0.0615069
vt 0.691797 0.0615069
vt 0.808967 0.207556
vt 0.798867 0.207556
vt 0.691797 0.0615069
vt 0.674131 0.0615069
vt 0.640305 0.0329622
vt 0.691797 0.0615069
vt 0.640305 0.0329622
vt 0.668896 0.0329622
vt 0.668896 0.0329622
vt 0.616205 0.0259759
vt 0.658239 0.0196781
vt 0.616205 0.0259759
vt 0.668896 0.0329622
vt 0.621103 0.0278755
vt 0.616205 0.0259759
vt 0.611291 0.0243837
vt 0.658239 0.0196781
vt 0.668896 0.0329622
vt 0.640305 0.0329622
vt 0.621103 0.0278755
vt 0.658239 0.0196781
vt 0.611291 0.0243837
vt 0.606242 0.0231376
vt 0.658239 0.0196781
vt 0.606242 0.0231376
vt 0.603079 0.0225648
vt 0.658239 0.0196781
vt 0.603079 0.0225648
vt 0.602554 0.0216246
vt 0.83372 0.235426
vt 0.83372 0.236589
vt 0.831512 0.235657
vt 0.83372 0.236589
vt 0.83372 0.237552
vt 0.831512 0.235657
vt 0.831512 0.235657
vt 0.83372 0.237552
vt 0.8291 0.236105
vt 0.831512 0.235657
vt 0.8291 0.236105
vt 0.822718 0.232649
vt 0.831512 0.235657
vt 0.822718 0.232649
vt 0.823433 0.225588
vt 0.808967 0.207556
vt 0.81637 0.216783
vt 0.798867 0.207556
vt 0.798867 0.207556
vt 0.81637 0.216783
vt 0.810803 0.220628
vt 0.81637 0.216783
vt 0.820896 0.222424
vt 0.810803 0.220628
vt 0.822718 0.232649
vt 0.810803 0.220628
vt 0.823433 0.225588
vt 0.820896 0.222424
vt 0.823433 0.225588
vt 0.810803 0.220628
vt 0.834343 0.235377
vt 0.835107 0.236156
vt 0.83372 0.235426
vt 0.857078 0.234862
vt 0.842179 0.235754
vt 0.834343 0.235377
vt 0.870197 0.235593
vt 0.869482 0.237261
vt 0.857078 0.234862
vt 0.870905 0.237133
vt 0.869482 0.237261
vt 0.870562 0.236388
vt 0.869482 0.237261
vt 0.870905 0.237133
vt 0.869838 0.237856
vt 0.869482 0.237261
vt 0.870197 0.235593
vt 0.870562 0.236388
vt 0.858957 0.235679
vt 0.847558 0.237072
vt 0.842179 0.235754
vt 0.858957 0.235679
vt 0.842179 0.235754
vt 0.857078 0.234862
vt 0.858957 0.235679
vt 0.869482 0.237261
vt 0.859638 0.237054
vt 0.858957 0.235679
vt 0.859638 0.237054
vt 0.857078 0.234862
vt 0.859638 0.237054
vt 0.860572 0.237774
vt 0.857078 0.234862
vt 0.860572 0.237774
vt 0.859638 0.237054
vt 0.869838 0.237856
vt 0.870905 0.237133
vt 0.871234 0.237848
vt 0.869838 0.237856
vt 0.869482 0.237261
vt 0.869838 0.237856
vt 0.859638 0.237054
vt 0.869482 0.237261
vt 0.858957 0.235679
vt 0.857078 0.234862
vt 0.83372 0.235426
vt 0.835107 0.236156
vt 0.83372 0.236589
vt 0.83372 0.236589
vt 0.835107 0.236156
vt 0.847558 0.237072
vt 0.83372 0.236589
vt 0.847558 0.237072
vt 0.83372 0.237552
vt 0.83372 0.237552
vt 0.847558 0.237072
vt 0.860572 0.237774
vt 0.834343 0.235377
vt 0.842179 0.235754
vt 0.835107 0.236156
vt 0.842179 0.235754
vt 0.847558 0.237072
vt 0.835107 0.236156
vt 0.858957 0.235679
vt 0.859638 0.237054
vt 0.847558 0.237072
vt 0.859638 0.237054
vt 0.860572 0.237774
vt 0.847558 0.237072
vt 0.310515 0.0615069
vt 0.32818 0.0615069
vt 0.203444 0.207556
vt 0.310515 0.0615069
vt 0.203444 0.207556
vt 0.193344 0.207556
vt 0.310515 0.0615069
vt 0.362006 0.0329622
vt 0.32818 0.0615069
vt 0.310515 0.0615069
vt 0.333415 0.0329623
vt 0.362006 0.0329622
vt 0.333415 0.0329623
vt 0.344072 0.0196781
vt 0.386106 0.0259759
vt 0.386106 0.0259759
vt 0.381208 0.0278755
vt 0.333415 0.0329623
vt 0.386106 0.0259759
vt 0.344072 0.0196781
vt 0.39102 0.0243837
vt 0.333415 0.0329623
vt 0.381208 0.0278755
vt 0.362006 0.0329622
vt 0.344072 0.0196781
vt 0.396069 0.0231376
vt 0.39102 0.0243837
vt 0.344072 0.0196781
vt 0.399232 0.0225648
vt 0.396069 0.0231376
vt 0.344072 0.0196781
vt 0.399757 0.0216246
vt 0.399232 0.0225648
vt 0.168592 0.235426
vt 0.1708 0.235657
vt 0.168592 0.236589
vt 0.168592 0.236589
vt 0.1708 0.235657
vt 0.168592 0.237552
vt 0.1708 0.235657
vt 0.173211 0.236105
vt 0.168592 0.237552
vt 0.1708 0.235657
vt 0.179594 0.232649
vt 0.173211 0.236105
vt 0.1708 0.235657
vt 0.178878 0.225588
vt 0.179594 0.232649
vt 0.193344 0.207556
vt 0.203444 0.207556
vt 0.185941 0.216783
vt 0.203444 0.207556
vt 0.191509 0.220628
vt 0.185941 0.216783
vt 0.185941 0.216783
vt 0.191509 0.220628
vt 0.181416 0.222424
vt 0.179594 0.232649
vt 0.178878 0.225588
vt 0.191509 0.220628
vt 0.181416 0.222424
vt 0.191509 0.220628
vt 0.178878 0.225588
vt 0.167968 0.235377
vt 0.168592 0.235426
vt 0.167204 0.236156
vt 0.145233 0.234862
vt 0.167968 0.235377
vt 0.160132 0.235754
vt 0.132114 0.235593
vt 0.145233 0.234862
vt 0.132829 0.237261
vt 0.131406 0.237133
vt 0.131749 0.236388
vt 0.132829 0.237261
vt 0.132829 0.237261
vt 0.132473 0.237856
vt 0.131406 0.237133
vt 0.132829 0.237261
vt 0.131749 0.236388
vt 0.132114 0.235593
vt 0.143355 0.235679
vt 0.160132 0.235754
vt 0.154754 0.237072
vt 0.143355 0.235679
vt 0.145233 0.234862
vt 0.160132 0.235754
vt 0.143355 0.235679
vt 0.142673 0.237054
vt 0.132829 0.237261
vt 0.143355 0.235679
vt 0.145233 0.234862
vt 0.142673 0.237054
vt 0.142673 0.237054
vt 0.145233 0.234862
vt 0.141739 0.237774
vt 0.141739 0.237774
vt 0.132473 0.237856
vt 0.142673 0.237054
vt 0.131406 0.237133
vt 0.132473 0.237856
vt 0.131077 0.237848
vt 0.132829 0.237261
vt 0.142673 0.237054
vt 0.132473 0.237856
vt 0.132829 0.237261
vt 0.145233 0.234862
vt 0.143355 0.235679
vt 0.168592 0.235426
vt 0.168592 0.236589
vt 0.167204 0.236156
vt 0.168592 0.236589
vt 0.154754 0.237072
vt 0.167204 0.236156
vt 0.168592 0.236589
vt 0.168592 0.237552
vt 0.154754 0.237072
vt 0.168592 0.237552
vt 0.141739 0.237774
vt 0.154754 0.237072
vt 0.167968 0.235377
vt 0.167204 0.236156
vt 0.160132 0.235754
vt 0.160132 0.235754
vt 0.167204 0.236156
vt 0.154754 0.237072
vt 0.143355 0.235679
vt 0.154754 0.237072
vt 0.142673 0.237054
vt 0.142673 0.237054
vt 0.154754 0.237072
vt 0.141739 0.237774
vt 0 0
vt 1 0
vt 1 1
vt 0 0
vt 1 0
vt 1 1
vt 0 0
vt 1 0
vt 1 1
vt 0 0
vt 1 0
vt 1 1
vt 0 0
vt 1 0
vt 1 1
vt 0 0
vt 1 0
vt 1 1
vt 0 0
vt 1 0
vt 1 1
vt 0 0
vt 1 0
vt 1 1
vt 0 0
vt 1 0
vt 1 1
vt 0 0
vt 1 0
vt 1 1
vt 0 0
vt 1 0
vt 1 1
vt 0 0
vt 1 0
vt 1 1
vt 1 0
vt 1 1
vt 0 0
vt 0 0
vt 1 0
vt 1 1
vt 0 0
vt 1 0
vt 1 1
vt 0 0
vt 1 0
vt 1 1
vt 0 0
vt 1 0
vt 1 1
vt 0 0
vt 1 0
vt 1 1
vt 0 0
vt 1 0
vt 1 1
vt 0 0
vt 1 0
vt 1 1
vt 0 0
vt 1 0
vt 1 1
vt 0 0
vt 1 0
vt 1 1
vt 0 0
vt 1 0
vt 1 1
vt 0 0
vt 1 0
vt 1 1
vt 0 0
vt 1 0
vt 1 1
vt 0 0
vt 1 0
vt 1 1
vt 0 0
vt 1 0
vt 1 1
vt 0 0
vt 1 0
vt 1 1
vt 0 0
vt 1 0
vt 1 1
vt 0 0
vt 1 0
vt 1 1
vt 0 0
vt 1 0
vt 1 1
vt 0 0
vt 1 0
vt 1 1
vt 0 0
vt 1 0
vt 1 1
vt 0 0
vt 1 0
vt 1 1
vt 0 0
vt 1 0
vt 1 1
vt 0 0
vt 1 0
vt 1 1
vt 0 0
vt 1 0
vt 1 1
vt 0 0
vt 1 0
vt 1 1
vt 0 0
vt 1 0
vt 1 1
vt 0 0
vt 1 0
vt 1 1
vt 0 0
vt 1 0
vt 1 1
vt 0 0
vt 1 0
vt 1 1
vt 0 0
vt 1 0
vt 1 1
vt 0 0
vt 1 0
vt 1 1
vt 0 0
vt 1 0
vt 1 1
vt 0 0
vt 1 0
vt 1 1
vt 0 0
vt 1 0
vt 1 1
vt 0 0
vt 1 0
vt 1 1
vt 0 0
vt 1 0
vt 1 1
vt 0 0
vt 1 0
vt 1 1
vt 0 0
vt 1 0
vt 1 1
vt 0 0
vt 1 0
vt 1 1
vt 0 0
vt 1 0
vt 1 1
vt 0 0
vt 1 0
vt 1 1
vt 0 0
vt 1 0
vt 1 1
vt 0 0
vt 1 0
vt 1 1
vt 1 0
vt 1 1
vt 0 0
vt 0 0
vt 1 0
vt 1 1
vt 0 0
vt 1 0
vt 1 1
vt 0 0
vt 1 0
vt 1 1
vt 0 0
vt 1 0
vt 1 1
vt 0 0
vt 1 0
vt 1 1
vt 0 0
vt 1 0
vt 1 1
vt 0 0
vt 1 0
vt 1 1
vt 0 0
vt 1 0
vt 1 1
vt 0 0
vt 1 0
vt 1 1
vt 0 0
vt 1 0
vt 1 1
vt 0 0
vt 1 0
vt 1 1
vt 0 0
vt 1 0
vt 1 1
vt 0 0
vt 1 0
vt 1 1
vt 0 0
vt 1 0
vt 1 1
vt 0 0
vt 1 0
vt 1 1
vt 0 0
vt 1 0
vt 1 1
vt 0 0
vt 1 0
vt 1 1
vt 0 0
vt 1 0
vt 1 1
vt 0 0
vt 1 0
vt 1 1
vt 0 0
vt 1 0
vt 1 1
vt 0 0
vt 1 0
vt 1 1
vt 0 0
vt 1 0
vt 1 1
vt 0 0
vt 1 0
vt 1 1
vt 0.179423 0.134341
vt 0.115815 0.237376
vt 0.203153 0.0140773
vt 0.203153 0.0140773
vt 0.115815 0.207556
vt 0.167894 0.0140773
vt 0.115815 0.237376
vt 0.115815 0.207556
vt 0.203153 0.0140773
vt 0.107511 0.238409
vt 0.115815 0.207556
vt 0.115815 0.237376
vt 0.196592 0.0977945
vt 0.179423 0.134341
vt 0.203153 0.0140773
vt 0.215629 0.0146855
vt 0.196592 0.0977945
vt 0.203153 0.0140773
vt 0.230938 0.0247053
vt 0.215629 0.0146855
vt 0.232541 0.0212912
vt 0.215629 0.0146855
vt 0.230938 0.0247053
vt 0.21377 0.0612521
vt 0.21377 0.0612521
vt 0.196592 0.0977945
vt 0.215629 0.0146855
vt 0.162219 0.170874
vt 0.115815 0.237376
vt 0.179423 0.134341
vt 0.145073 0.207429
vt 0.115815 0.237376
vt 0.162219 0.170874
vt 0.132114 0.235593
vt 0.115815 0.237376
vt 0.145073 0.207429
vt 0.200177 0.0140773
vt 0.167894 0.0140773
vt 0.199894 0.0140773
vt 0.200919 0.0140773
vt 0.167894 0.0140773
vt 0.200177 0.0140773
vt 0.203153 0.0140773
vt 0.167894 0.0140773
vt 0.200919 0.0140773
vt 0.200919 0.0140773
vt 0.216876 0.0151727
vt 0.203153 0.0140773
vt 0.200177 0.0140773
vt 0.216876 0.0151727
vt 0.200919 0.0140773
vt 0.199894 0.0140773
vt 0.216876 0.0151727
vt 0.200177 0.0140773
vt 0.215629 0.0146855
vt 0.203153 0.0140773
vt 0.216876 0.0151727
vt 0.232541 0.0212912
vt 0.215629 0.0146855
vt 0.216876 0.0151727
vt 0.232541 0.0212912
vt 0.215629 0.0146855
vt 0.232541 0.0212912
vt 0.822888 0.134341
vt 0.799158 0.0140773
vt 0.886496 0.237376
vt 0.799158 0.0140773
vt 0.834417 0.0140773
vt 0.886496 0.207556
vt 0.886496 0.237376
vt 0.799158 0.0140773
vt 0.886496 0.207556
vt 0.894801 0.238409
vt 0.886496 0.237376
vt 0.886496 0.207556
vt 0.80572 0.0977945
vt 0.799158 0.0140773
vt 0.822888 0.134341
vt 0.786682 0.0146855
vt 0.799158 0.0140773
vt 0.80572 0.0977945
vt 0.771374 0.0247053
vt 0.76977 0.0212912
vt 0.786682 0.0146855
vt 0.788541 0.0612521
vt 0.771374 0.0247053
vt 0.786682 0.0146855
vt 0.788541 0.0612521
vt 0.786682 0.0146855
vt 0.80572 0.0977945
vt 0.840092 0.170874
vt 0.822888 0.134341
vt 0.886496 0.237376
vt 0.857239 0.207429
vt 0.840092 0.170874
vt 0.886496 0.237376
vt 0.870197 0.235593
vt 0.857239 0.207429
vt 0.886496 0.237376
vt 0.802135 0.0140773
vt 0.802418 0.0140773
vt 0.834417 0.0140773
vt 0.801392 0.0140773
vt 0.802135 0.0140773
vt 0.834417 0.0140773
vt 0.799158 0.0140773
vt 0.801392 0.0140773
vt 0.834417 0.0140773
vt 0.801392 0.0140773
vt 0.799158 0.0140773
vt 0.785435 0.0151727
vt 0.802135 0.0140773
vt 0.801392 0.0140773
vt 0.785435 0.0151727
vt 0.802418 0.0140773
vt 0.802135 0.0140773
vt 0.785435 0.0151727
vt 0.786682 0.0146855
vt 0.785435 0.0151727
vt 0.799158 0.0140773
vt 0.76977 0.0212912
vt 0.785435 0.0151727
vt 0.786682 0.0146855
vt 0.76977 0.0212912
vt 0.76977 0.0212912
vt 0.786682 0.0146855
vt 0.107511 0.238409
vt 0.115815 0.237376
vt 0.115815 0.237769
vt 0.107511 0.238409
vt 0.115815 0.237769
vt 0.115815 0.238105
vt 0.107511 0.238409
vt 0.115815 0.238105
vt 0.115815 0.23833
vt 0.107511 0.238409
vt 0.115815 0.23833
vt 0.115815 0.238409
vt 0.131061 0.237883
vt 0.125446 0.238172
vt 0.130515 0.236519
vt 0.115815 0.237769
vt 0.115815 0.237376
vt 0.130515 0.236519
vt 0.115815 0.238105
vt 0.125446 0.238172
vt 0.115815 0.23833
vt 0.13089 0.238254
vt 0.125446 0.238172
vt 0.131061 0.237883
vt 0.132114 0.235593
vt 0.130515 0.236519
vt 0.115815 0.237376
vt 0.115815 0.238409
vt 0.124737 0.23839
vt 0.130819 0.238409
vt 0.115815 0.23833
vt 0.125446 0.238172
vt 0.124737 0.23839
vt 0.115815 0.23833
vt 0.124737 0.23839
vt 0.115815 0.238409
vt 0.130515 0.236519
vt 0.125446 0.238172
vt 0.115815 0.238105
vt 0.115815 0.238105
vt 0.115815 0.237769
vt 0.130515 0.236519
vt 0.131414 0.237115
vt 0.130515 0.236519
vt 0.132114 0.235593
vt 0.131414 0.237115
vt 0.131061 0.237883
vt 0.130515 0.236519
vt 0.124737 0.23839
vt 0.125446 0.238172
vt 0.13089 0.238254
vt 0.13089 0.238254
vt 0.130819 0.238409
vt 0.124737 0.23839
vt 0.894801 0.238409
vt 0.886496 0.237769
vt 0.886496 0.237376
vt 0.894801 0.238409
vt 0.886496 0.238105
vt 0.886496 0.237769
vt 0.894801 0.238409
vt 0.886496 0.23833
vt 0.886496 0.238105
vt 0.894801 0.238409
vt 0.886496 0.238409
vt 0.886496 0.23833
vt 0.87125 0.237883
vt 0.871796 0.236519
vt 0.876865 0.238172
vt 0.886496 0.237769
vt 0.871796 0.236519
vt 0.886496 0.237376
vt 0.886496 0.238105
vt 0.886496 0.23833
vt 0.876865 0.238172
vt 0.871421 0.238254
vt 0.87125 0.237883
vt 0.876865 0.238172
vt 0.870197 0.235593
vt 0.886496 0.237376
vt 0.871796 0.236519
vt 0.886496 0.238409
vt 0.871492 0.238409
vt 0.877574 0.23839
vt 0.886496 0.23833
vt 0.877574 0.23839
vt 0.876865 0.238172
vt 0.886496 0.23833
vt 0.886496 0.238409
vt 0.877574 0.23839
vt 0.871796 0.236519
vt 0.886496 0.238105
vt 0.876865 0.238172
vt 0.886496 0.238105
vt 0.871796 0.236519
vt 0.886496 0.237769
vt 0.870897 0.237115
vt 0.870197 0.235593
vt 0.871796 0.236519
vt 0.870897 0.237115
vt 0.871796 0.236519
vt 0.87125 0.237883
vt 0.877574 0.23839
vt 0.871421 0.238254
vt 0.876865 0.238172
vt 0.871421 0.238254
vt 0.877574 0.23839
vt 0.871492 0.238409
g Vstab
f 4/1 3/2 5/3
f 3/4 6/5 5/6
f 2/7 7/8 3/9
f 6/10 3/11 7/12
f 1/13 194/14 2/15
f 194/16 7/17 2/18
f 10/19 9/20 11/21
f 9/22 8/23 11/24
f 11/25 12/26 13/27
f 12/28 14/29 13/30
f 12/31 11/32 15/33
f 11/34 16/35 15/36
f 1/37 2/38 17/39
f 9/40 18/41 2/42
f 10/43 19/44 9/45
f 19/46 18/47 9/48
f 18/49 20/50 2/51
f 21/52 17/53 20/54
f 20/55 17/56 2/57
f 11/58 8/59 22/60
f 22/61 16/62 11/63
f 26/64 4/65 27/66
f 27/67 4/68 5/69
f 26/70 27/71 25/72
f 25/73 27/74 28/75
f 24/76 25/77 29/78
f 28/79 29/80 25/81
f 7/82 29/83 6/84
f 5/85 6/86 27/87
f 27/88 6/89 28/90
f 28/91 6/92 29/93
f 23/94 24/95 216/96
f 216/97 24/98 29/99
f 7/100 194/101 29/102
f 29/103 194/104 216/105
f 32/106 33/107 31/108
f 31/109 33/110 30/111
f 33/112 13/113 34/114
f 34/115 13/116 14/117
f 34/118 35/119 33/120
f 33/121 35/122 36/123
f 23/124 37/125 24/126
f 31/127 24/128 38/129
f 32/130 31/131 39/132
f 39/133 31/134 38/135
f 38/136 24/137 40/138
f 41/139 40/140 37/141
f 40/142 24/143 37/144
f 33/145 42/146 30/147
f 42/148 33/149 36/150
f 8/151 9/152 186/153
f 9/154 2/155 186/156
f 4/157 186/158 3/159
f 186/160 2/161 3/162
f 43/163 186/164 44/165
f 43/166 45/167 186/168
f 22/169 8/170 45/171
f 8/172 186/173 45/174
f 30/175 46/176 31/177
f 31/178 46/179 24/180
f 26/181 25/182 46/183
f 25/184 24/185 46/186
f 26/187 46/188 4/189
f 186/190 4/191 46/192
f 47/193 44/194 46/195
f 46/196 44/197 186/198
f 47/199 46/200 48/201
f 42/202 48/203 30/204
f 30/205 48/206 46/207
f 49/208 50/209 51/210
f 51/211 50/212 52/213
f 50/214 53/215 52/216
f 54/217 55/218 56/219
f 55/220 54/221 57/222
f 58/223 59/224 60/225
f 59/226 58/227 61/228
f 62/229 61/230 184/231
f 184/232 61/233 58/234
f 59/235 57/236 60/237
f 60/238 57/239 54/240
f 55/241 52/242 56/243
f 56/244 52/245 53/246
f 60/247 64/248 58/249
f 60/250 54/251 64/252
f 54/253 56/254 64/255
f 64/256 56/257 65/258
f 50/259 66/260 53/261
f 49/262 67/263 50/264
f 67/265 66/266 50/267
f 66/268 65/269 53/270
f 53/271 65/272 56/273
f 64/274 63/275 58/276
f 58/277 63/278 184/279
f 68/280 69/281 70/282
f 71/283 72/284 69/285
f 71/286 73/287 72/288
f 73/289 74/290 72/291
f 72/292 74/293 75/294
f 72/295 75/296 76/297
f 72/298 76/299 77/300
f 72/301 77/302 78/303
f 72/304 78/305 79/306
f 72/307 79/308 80/309
f 72/310 80/311 69/312
f 81/313 82/314 83/315
f 82/316 81/317 84/318
f 82/319 84/320 85/321
f 82/322 85/323 86/324
f 82/325 86/326 87/327
f 82/328 87/329 76/330
f 82/331 76/332 75/333
f 82/334 75/335 83/336
f 81/337 187/338 84/339
f 88/340 89/341 90/342
f 88/343 90/344 91/345
f 88/346 91/347 92/348
f 65/349 93/350 64/351
f 65/352 66/353 93/354
f 93/355 66/356 94/357
f 93/358 94/359 99/360
f 93/361 99/362 95/363
f 93/364 95/365 96/366
f 93/367 96/368 64/369
f 66/370 67/371 94/372
f 97/373 98/374 99/375
f 87/376 100/377 97/378
f 76/379 87/380 101/381
f 76/382 101/383 77/384
f 79/385 70/386 80/387
f 67/388 99/389 94/390
f 83/391 75/392 74/393
f 70/394 69/395 80/396
f 87/397 77/398 101/399
f 84/400 102/401 85/402
f 92/403 91/404 102/405
f 97/406 100/407 86/408
f 97/409 86/410 85/411
f 97/412 85/413 91/414
f 97/415 91/416 103/417
f 97/418 103/419 98/420
f 87/421 86/422 100/423
f 91/424 85/425 102/426
f 63/427 64/428 89/429
f 89/430 96/431 90/432
f 89/433 64/434 96/435
f 98/436 103/437 95/438
f 98/439 95/440 99/441
f 95/442 103/443 90/444
f 95/445 90/446 96/447
f 90/448 103/449 91/450
f 107/451 108/452 109/453
f 108/454 107/455 110/456
f 108/457 110/458 111/459
f 108/460 111/461 106/462
f 108/463 106/464 105/465
f 108/466 105/467 109/468
f 112/469 113/470 114/471
f 51/472 115/473 112/474
f 51/475 52/476 115/477
f 52/478 55/479 115/480
f 55/481 57/482 115/483
f 57/484 59/485 115/486
f 115/487 59/488 116/489
f 115/490 116/491 112/492
f 62/493 117/494 61/495
f 104/496 109/497 105/498
f 114/499 113/500 110/501
f 114/502 110/503 107/504
f 113/505 112/506 111/507
f 113/508 111/509 110/510
f 106/511 111/512 117/513
f 111/514 112/515 116/516
f 111/517 116/518 117/519
f 61/520 117/521 116/522
f 61/523 116/524 59/525
f 120/526 118/527 121/528
f 120/529 122/530 118/531
f 107/532 109/533 122/534
f 122/535 109/536 123/537
f 122/538 123/539 118/540
f 124/541 119/542 118/543
f 124/544 118/545 123/546
f 121/547 118/548 119/549
f 109/550 104/551 124/552
f 123/553 109/554 124/555
f 49/556 51/557 125/558
f 51/559 126/560 125/561
f 125/562 126/563 127/564
f 128/565 130/566 129/567
f 129/568 131/569 128/570
f 132/571 134/572 133/573
f 133/574 135/575 132/576
f 136/577 203/578 135/579
f 203/580 132/581 135/582
f 133/583 134/584 131/585
f 134/586 128/587 131/588
f 129/589 130/590 126/591
f 130/592 127/593 126/594
f 134/595 132/596 137/597
f 134/598 137/599 128/600
f 128/601 137/602 130/603
f 137/604 138/605 130/606
f 125/607 127/608 139/609
f 49/610 125/611 67/612
f 67/613 125/614 139/615
f 139/616 127/617 138/618
f 127/619 130/620 138/621
f 137/622 132/623 205/624
f 132/625 203/626 205/627
f 68/628 70/629 140/630
f 141/631 140/632 142/633
f 141/634 142/635 143/636
f 143/637 142/638 144/639
f 142/640 145/641 144/642
f 142/643 146/644 145/645
f 142/646 77/647 146/648
f 142/649 78/650 77/651
f 142/652 79/653 78/654
f 142/655 147/656 79/657
f 142/658 140/659 147/660
f 148/661 150/662 149/663
f 149/664 206/665 148/666
f 149/667 151/668 206/669
f 149/670 152/671 151/672
f 149/673 87/674 152/675
f 149/676 146/677 87/678
f 149/679 145/680 146/681
f 149/682 150/683 145/684
f 148/685 206/686 153/687
f 154/688 155/689 207/690
f 154/691 156/692 155/693
f 154/694 157/695 156/696
f 138/697 137/698 158/699
f 138/700 158/701 139/702
f 158/703 159/704 139/705
f 158/706 99/707 159/708
f 158/709 160/710 99/711
f 158/712 161/713 160/714
f 158/715 137/716 161/717
f 139/718 159/719 67/720
f 97/721 99/722 162/723
f 87/724 97/725 163/726
f 146/727 164/728 87/729
f 146/730 77/731 164/732
f 79/733 147/734 70/735
f 67/736 159/737 99/738
f 150/739 144/740 145/741
f 70/742 147/743 140/744
f 87/745 164/746 77/747
f 206/748 151/749 208/750
f 157/751 208/752 156/753
f 97/754 152/755 163/756
f 97/757 151/758 152/759
f 97/760 156/761 151/762
f 97/763 165/764 156/765
f 97/766 162/767 165/768
f 87/769 163/770 152/771
f 156/772 208/773 151/774
f 205/775 207/776 137/777
f 207/778 155/779 161/780
f 207/781 161/782 137/783
f 162/784 160/785 165/786
f 162/787 99/788 160/789
f 160/790 155/791 165/792
f 160/793 161/794 155/795
f 155/796 156/797 165/798
f 107/799 170/800 169/801
f 169/802 171/803 107/804
f 169/805 172/806 171/807
f 169/808 168/809 172/810
f 169/811 167/812 168/813
f 169/814 170/815 167/816
f 112/817 114/818 173/819
f 51/820 112/821 174/822
f 51/823 174/824 126/825
f 126/826 174/827 129/828
f 129/829 174/830 131/831
f 131/832 174/833 133/834
f 174/835 175/836 133/837
f 174/838 112/839 175/840
f 136/841 135/842 176/843
f 166/844 167/845 170/846
f 114/847 171/848 173/849
f 114/850 107/851 171/852
f 173/853 172/854 112/855
f 173/856 171/857 172/858
f 168/859 176/860 172/861
f 172/862 175/863 112/864
f 172/865 176/866 175/867
f 135/868 175/869 176/870
f 135/871 133/872 175/873
f 179/874 180/875 177/876
f 179/877 177/878 122/879
f 107/880 122/881 170/882
f 122/883 181/884 170/885
f 122/886 177/887 181/888
f 182/889 177/890 178/891
f 182/892 181/893 177/894
f 180/895 178/896 177/897
f 170/898 182/899 166/900
f 181/901 182/902 170/903
f 183/904 62/905 184/906
f 183/907 185/908 62/909
f 183/910 184/911 63/912
f 183/913 63/914 186/915
f 186/916 88/917 43/918
f 88/919 186/920 89/921
f 88/922 92/923 43/924
f 186/925 63/926 89/927
f 43/928 92/929 102/930
f 43/931 102/932 84/933
f 43/934 84/935 187/936
f 6/937 188/938 5/939
f 188/940 104/941 5/942
f 5/943 104/944 105/945
f 5/946 105/947 106/948
f 5/949 106/950 189/951
f 185/952 190/953 62/954
f 62/955 190/956 117/957
f 190/958 191/959 117/960
f 106/961 117/962 189/963
f 191/964 189/965 117/966
f 192/967 199/968 6/969
f 7/970 200/971 192/972
f 194/973 195/974 7/975
f 197/976 195/977 196/978
f 195/979 197/980 119/981
f 195/982 194/983 196/984
f 193/985 201/986 200/987
f 193/988 200/989 7/990
f 193/991 195/992 198/993
f 193/994 198/995 7/996
f 198/997 124/998 7/999
f 124/1000 198/1001 119/1002
f 197/1003 121/1004 119/1005
f 195/1006 119/1007 198/1008
f 195/1009 193/1010 7/1011
f 6/1012 199/1013 188/1014
f 188/1015 199/1016 201/1017
f 188/1018 201/1019 104/1020
f 104/1021 201/1022 124/1023
f 192/1024 200/1025 199/1026
f 200/1027 201/1028 199/1029
f 193/1030 198/1031 201/1032
f 198/1033 124/1034 201/1035
f 202/1036 203/1037 136/1038
f 202/1039 136/1040 204/1041
f 202/1042 205/1043 203/1044
f 202/1045 46/1046 205/1047
f 46/1048 47/1049 154/1050
f 154/1051 207/1052 46/1053
f 154/1054 47/1055 157/1056
f 46/1057 207/1058 205/1059
f 47/1060 208/1061 157/1062
f 47/1063 206/1064 208/1065
f 47/1066 153/1067 206/1068
f 28/1069 27/1070 209/1071
f 209/1072 27/1073 166/1074
f 27/1075 167/1076 166/1077
f 27/1078 168/1079 167/1080
f 27/1081 210/1082 168/1083
f 204/1084 136/1085 211/1086
f 136/1087 176/1088 211/1089
f 211/1090 176/1091 212/1092
f 168/1093 210/1094 176/1095
f 212/1096 176/1097 210/1098
f 213/1099 28/1100 220/1101
f 29/1102 213/1103 221/1104
f 216/1105 29/1106 215/1107
f 218/1108 217/1109 215/1110
f 215/1111 178/1112 218/1113
f 215/1114 217/1115 216/1116
f 214/1117 221/1118 222/1119
f 214/1120 29/1121 221/1122
f 214/1123 219/1124 215/1125
f 214/1126 29/1127 219/1128
f 219/1129 29/1130 182/1131
f 182/1132 178/1133 219/1134
f 218/1135 178/1136 180/1137
f 215/1138 219/1139 178/1140
f 215/1141 29/1142 214/1143
f 28/1144 209/1145 220/1146
f 209/1147 222/1148 220/1149
f 209/1150 166/1151 222/1152
f 166/1153 182/1154 222/1155
f 213/1156 220/1157 221/1158
f 221/1159 220/1160 222/1161
f 214/1162 222/1163 219/1164
f 219/1165 222/1166 182/1167
g Rudder_0
f 223/1168 224/1169 225/1170
f 267/1171 226/1172 224/1173
f 226/1174 227/1175 224/1176
f 227/1177 225/1178 224/1179
f 267/1180 261/1181 226/1182
f 261/1183 263/1184 226/1185
f 263/1186 262/1187 226/1188
f 262/1189 264/1190 226/1191
f 228/1192 225/1193 227/1194
f 228/1195 227/1196 226/1197
f 264/1198 265/1199 226/1200
f 225/1201 228/1202 230/1203
f 230/1204 223/1205 225/1206
f 265/1207 266/1208 229/1209
f 265/1210 229/1211 226/1212
f 228/1213 226/1214 229/1215
f 231/1216 223/1217 230/1218
f 266/1219 232/1220 233/1221
f 266/1222 233/1223 229/1224
f 232/1225 234/1226 233/1227
f 235/1228 238/1229 236/1230
f 235/1231 237/1232 238/1233
f 237/1234 231/1235 238/1236
f 238/1237 233/1238 236/1239
f 231/1240 230/1241 238/1242
f 229/1243 233/1244 228/1245
f 234/1246 236/1247 233/1248
f 230/1249 228/1250 238/1251
f 228/1252 233/1253 238/1254
f 272/1255 239/1256 273/1257
f 272/1258 275/1259 239/1260
f 240/1261 275/1262 274/1263
f 275/1264 240/1265 239/1266
f 237/1267 235/1268 241/1269
f 241/1270 235/1271 239/1272
f 241/1273 239/1274 240/1275
f 232/1276 273/1277 234/1278
f 235/1279 236/1280 239/1281
f 234/1282 273/1283 239/1284
f 234/1285 239/1286 236/1287
f 223/1288 242/1289 224/1290
f 243/1291 224/1292 244/1293
f 244/1294 224/1295 245/1296
f 245/1297 224/1298 242/1299
f 243/1300 244/1301 255/1302
f 255/1303 244/1304 257/1305
f 257/1306 244/1307 256/1308
f 256/1309 244/1310 258/1311
f 246/1312 245/1313 242/1314
f 246/1315 244/1316 245/1317
f 258/1318 244/1319 259/1320
f 242/1321 248/1322 246/1323
f 242/1324 223/1325 248/1326
f 259/1327 247/1328 260/1329
f 259/1330 244/1331 247/1332
f 246/1333 247/1334 244/1335
f 248/1336 223/1337 231/1338
f 260/1339 249/1340 268/1341
f 260/1342 247/1343 249/1344
f 268/1345 249/1346 250/1347
f 251/1348 252/1349 253/1350
f 251/1351 253/1352 237/1353
f 237/1354 253/1355 231/1356
f 253/1357 252/1358 249/1359
f 231/1360 253/1361 248/1362
f 247/1363 246/1364 249/1365
f 250/1366 249/1367 252/1368
f 248/1369 253/1370 246/1371
f 246/1372 253/1373 249/1374
f 269/1375 270/1376 254/1377
f 269/1378 254/1379 271/1380
f 274/1381 271/1382 240/1383
f 271/1384 254/1385 240/1386
f 237/1387 241/1388 251/1389
f 241/1390 254/1391 251/1392
f 241/1393 240/1394 254/1395
f 268/1396 250/1397 270/1398
f 251/1399 254/1400 252/1401
f 250/1402 254/1403 270/1404
f 250/1405 252/1406 254/1407
g Rudder_1
f 281/1408 308/1409 286/1410
f 286/1411 288/1412 295/1413
f 308/1414 288/1415 286/1416
f 315/1417 288/1418 308/1419
f 279/1420 281/1421 286/1422
f 287/1423 279/1424 286/1425
f 278/1426 287/1427 277/1428
f 287/1429 278/1430 280/1431
f 280/1432 279/1433 287/1434
f 282/1435 308/1436 281/1437
f 283/1438 308/1439 282/1440
f 309/1441 308/1442 283/1443
f 285/1444 295/1445 298/1446
f 284/1447 295/1448 285/1449
f 286/1450 295/1451 284/1452
f 284/1453 300/1454 286/1455
f 285/1456 300/1457 284/1458
f 298/1459 300/1460 285/1461
f 287/1462 286/1463 300/1464
f 302/1465 287/1466 300/1467
f 277/1468 287/1469 302/1470
f 292/1471 299/1472 321/1473
f 299/1474 295/1475 288/1476
f 321/1477 299/1478 288/1479
f 315/1480 321/1481 288/1482
f 290/1483 299/1484 292/1485
f 301/1486 299/1487 290/1488
f 289/1489 303/1490 301/1491
f 291/1492 289/1493 301/1494
f 291/1495 301/1496 290/1497
f 293/1498 292/1499 321/1500
f 294/1501 293/1502 321/1503
f 276/1504 294/1505 321/1506
f 297/1507 298/1508 295/1509
f 296/1510 297/1511 295/1512
f 299/1513 296/1514 295/1515
f 296/1516 299/1517 300/1518
f 297/1519 296/1520 300/1521
f 298/1522 297/1523 300/1524
f 301/1525 300/1526 299/1527
f 302/1528 300/1529 301/1530
f 303/1531 302/1532 301/1533
f 315/1534 308/1535 306/1536
f 315/1537 306/1538 307/1539
f 315/1540 307/1541 305/1542
f 315/1543 305/1544 318/1545
f 310/1546 304/1547 311/1548
f 306/1549 308/1550 311/1551
f 307/1552 304/1553 305/1554
f 314/1555 304/1556 310/1557
f 309/1558 311/1559 308/1560
f 318/1561 313/1562 326/1563
f 305/1564 304/1565 313/1566
f 305/1567 313/1568 318/1569
f 311/1570 304/1571 307/1572
f 307/1573 306/1574 311/1575
f 312/1576 311/1577 309/1578
f 312/1579 310/1580 311/1581
f 313/1582 304/1583 314/1584
f 314/1585 326/1586 313/1587
f 315/1588 319/1589 321/1590
f 315/1591 320/1592 319/1593
f 315/1594 317/1595 320/1596
f 315/1597 318/1598 317/1599
f 322/1600 323/1601 316/1602
f 319/1603 323/1604 321/1605
f 320/1606 317/1607 316/1608
f 327/1609 322/1610 316/1611
f 276/1612 321/1613 323/1614
f 318/1615 326/1616 325/1617
f 317/1618 325/1619 316/1620
f 317/1621 318/1622 325/1623
f 323/1624 320/1625 316/1626
f 320/1627 323/1628 319/1629
f 324/1630 276/1631 323/1632
f 324/1633 323/1634 322/1635
f 325/1636 327/1637 316/1638
f 327/1639 325/1640 326/1641
