# Converted from a320src/A320-family-master/Models/Wings/a320.winglets.ac by simengine's ac3d_to_obj tool
# NOTE: materials/textures are not exported — see tools/ac3d_to_obj/main.cpp LIMITATIONS.
v 8.6454 1.37301 16.9205
v 9.29858 1.3196 16.9205
v 8.95079 1.30608 16.9205
v 8.59242 1.34093 16.9205
v 8.84428 1.39285 16.9205
v 8.66732 1.29132 16.9205
v 9.39643 1.7546 16.9875
v 9.5911 1.75265 16.9875
v 9.29813 1.43583 16.9205
v 9.2991 0.932617 16.9498
v 9.16478 0.932617 16.9498
v 9.16478 0.932617 16.9833
v 9.2991 0.932617 16.9833
v 9.29813 1.43583 16.954
v 9.5911 1.75265 17.0209
v 9.39643 1.7546 17.0209
v 8.78976 1.31396 16.954
v 8.74827 1.34145 16.954
v 9.29858 1.3196 16.954
v 8.77762 1.35921 16.954
v 8.77762 1.35921 16.954
v 9.29858 1.3196 16.954
v 8.74827 1.34145 16.954
v 8.78976 1.31396 16.954
v 8.74884 1.32982 16.954
v 8.59346 1.31995 16.9205
v 8.66732 1.29132 16.9205
v 8.59242 1.34093 16.9205
v 8.6454 1.37301 -16.9205
v 9.29858 1.3196 -16.9205
v 8.95079 1.30608 -16.9205
v 8.59242 1.34093 -16.9205
v 8.84428 1.39285 -16.9205
v 8.66732 1.29132 -16.9205
v 9.39643 1.7546 -16.9875
v 9.5911 1.75265 -16.9875
v 9.29813 1.43583 -16.9205
v 9.2991 0.932619 -16.9498
v 9.16478 0.932619 -16.9498
v 9.16478 0.932619 -16.9833
v 9.2991 0.932619 -16.9833
v 9.29813 1.43583 -16.954
v 9.5911 1.75265 -17.0209
v 9.39643 1.7546 -17.0209
v 8.78976 1.31396 -16.954
v 8.74827 1.34145 -16.954
v 9.29858 1.3196 -16.954
v 8.77762 1.35921 -16.954
v 8.77762 1.35921 -16.954
v 9.29858 1.3196 -16.954
v 8.74827 1.34145 -16.954
v 8.78976 1.31396 -16.954
v 8.74884 1.32982 -16.954
v 8.59346 1.31995 -16.9205
v 8.66732 1.29132 -16.9205
v 8.59242 1.34093 -16.9205
vt 0.311268 0.511641
vt 0.311268 0.511641
vt 0.277472 0.553394
vt 0.266437 0.550915
vt 0.311268 0.511641
vt 0.323373 0.511641
vt 0.323373 0.511641
vt 0.311268 0.511641
vt 0.323373 0.511641
vt 0.323326 0.554012
vt 0.323326 0.554012
vt 0.323373 0.511641
vt 0.323285 0.566738
vt 0.349688 0.601427
vt 0.349688 0.601427
vt 0.323285 0.566738
vt 0.349688 0.601427
vt 0.332144 0.601641
vt 0.332144 0.601641
vt 0.349688 0.601427
vt 0.332144 0.601641
vt 0.264462 0.55986
vt 0.276377 0.558349
vt 0.332144 0.601641
vt 0.276377 0.558349
vt 0.264462 0.55986
vt 0.259687 0.556347
vt 0.273733 0.556404
vt 0.676674 0.554012
vt 0.676627 0.511641
vt 0.708017 0.552531
vt 0.708017 0.552531
vt 0.676627 0.511641
vt 0.733563 0.550915
vt 0.733563 0.550915
vt 0.676627 0.511641
vt 0.688732 0.511641
vt 0.717615 0.562032
vt 0.650312 0.601427
vt 0.676715 0.566738
vt 0.735538 0.55986
vt 0.667856 0.601641
vt 0.650312 0.601427
vt 0.735538 0.55986
vt 0.650312 0.601427
vt 0.717615 0.562032
vt 0.311268 0.511641
vt 0.323373 0.511641
vt 0.277472 0.553394
vt 0.323373 0.511641
vt 0.323326 0.554012
vt 0.277472 0.553394
vt 0.323285 0.566738
vt 0.276377 0.558349
vt 0.323326 0.554012
vt 0.323285 0.566738
vt 0.349688 0.601427
vt 0.276377 0.558349
vt 0.349688 0.601427
vt 0.332144 0.601641
vt 0.276377 0.558349
vt 0.273733 0.556404
vt 0.323326 0.554012
vt 0.276377 0.558349
vt 0.273784 0.555131
vt 0.323326 0.554012
vt 0.273733 0.556404
vt 0.273784 0.555131
vt 0.277472 0.553394
vt 0.323326 0.554012
vt 0.259781 0.55405
vt 0.273784 0.555131
vt 0.273733 0.556404
vt 0.259687 0.556347
vt 0.266437 0.550915
vt 0.277472 0.553394
vt 0.273784 0.555131
vt 0.259781 0.55405
vt 0.676674 0.554012
vt 0.708017 0.552531
vt 0.676715 0.566738
vt 0.323326 0.554012
vt 0.323285 0.566738
vt 0.323285 0.566738
vt 0.323326 0.554012
vt 0.708017 0.552531
vt 0.717615 0.562032
vt 0.676715 0.566738
vt 0.708017 0.552531
vt 0.733563 0.550915
vt 0.740219 0.55405
vt 0.708017 0.552531
vt 0.740219 0.55405
vt 0.740313 0.556347
vt 0.735538 0.55986
vt 0.708017 0.552531
vt 0.740313 0.556347
vt 0.740313 0.556347
vt 0.735538 0.55986
vt 0.717615 0.562032
vt 0.708017 0.552531
vt 0.311268 0.511641
vt 0.266437 0.550915
vt 0.277472 0.553394
vt 0.311268 0.511641
vt 0.311268 0.511641
vt 0.311268 0.511641
vt 0.323373 0.511641
vt 0.323373 0.511641
vt 0.323373 0.511641
vt 0.323373 0.511641
vt 0.323326 0.554012
vt 0.323326 0.554012
vt 0.323285 0.566738
vt 0.323285 0.566738
vt 0.349688 0.601427
vt 0.349688 0.601427
vt 0.349688 0.601427
vt 0.349688 0.601427
vt 0.332144 0.601641
vt 0.332144 0.601641
vt 0.276377 0.558349
vt 0.264462 0.55986
vt 0.332144 0.601641
vt 0.332144 0.601641
vt 0.259687 0.556347
vt 0.264462 0.55986
vt 0.276377 0.558349
vt 0.273733 0.556404
vt 0.676674 0.554012
vt 0.708017 0.552531
vt 0.676627 0.511641
vt 0.708017 0.552531
vt 0.733563 0.550915
vt 0.676627 0.511641
vt 0.733563 0.550915
vt 0.688732 0.511641
vt 0.676627 0.511641
vt 0.717615 0.562032
vt 0.676715 0.566738
vt 0.650312 0.601427
vt 0.735538 0.55986
vt 0.650312 0.601427
vt 0.667856 0.601641
vt 0.735538 0.55986
vt 0.717615 0.562032
vt 0.650312 0.601427
vt 0.311268 0.511641
vt 0.277472 0.553394
vt 0.323373 0.511641
vt 0.323373 0.511641
vt 0.277472 0.553394
vt 0.323326 0.554012
vt 0.323285 0.566738
vt 0.323326 0.554012
vt 0.276377 0.558349
vt 0.323285 0.566738
vt 0.276377 0.558349
vt 0.349688 0.601427
vt 0.349688 0.601427
vt 0.276377 0.558349
vt 0.332144 0.601641
vt 0.273733 0.556404
vt 0.276377 0.558349
vt 0.323326 0.554012
vt 0.273784 0.555131
vt 0.273733 0.556404
vt 0.323326 0.554012
vt 0.273784 0.555131
vt 0.323326 0.554012
vt 0.277472 0.553394
vt 0.259781 0.55405
vt 0.259687 0.556347
vt 0.273733 0.556404
vt 0.273784 0.555131
vt 0.266437 0.550915
vt 0.259781 0.55405
vt 0.273784 0.555131
vt 0.277472 0.553394
vt 0.676674 0.554012
vt 0.676715 0.566738
vt 0.708017 0.552531
vt 0.323326 0.554012
vt 0.323326 0.554012
vt 0.323285 0.566738
vt 0.323285 0.566738
vt 0.708017 0.552531
vt 0.676715 0.566738
vt 0.717615 0.562032
vt 0.708017 0.552531
vt 0.740219 0.55405
vt 0.733563 0.550915
vt 0.708017 0.552531
vt 0.740313 0.556347
vt 0.740219 0.55405
vt 0.735538 0.55986
vt 0.740313 0.556347
vt 0.740313 0.556347
vt 0.708017 0.552531
vt 0.735538 0.55986
vt 0.708017 0.552531
vt 0.717615 0.562032
g WingletL
f 11/1 12/2 17/3 6/4
f 11/5 10/6 13/7 12/8
f 10/9 2/10 19/11 13/12
f 9/13 8/14 15/15 14/16
f 8/17 7/18 16/19 15/20
f 7/21 1/22 20/23 16/24
f 20/25 1/26 4/27 18/28
f 2/29 10/30 3/31
f 3/32 10/33 6/34
f 6/35 10/36 11/37
f 5/38 8/39 9/40
f 1/41 7/42 8/43
f 1/44 8/45 5/46
f 12/47 13/48 17/49
f 13/50 19/51 17/52
f 14/53 20/54 19/55
f 14/56 15/57 20/58
f 15/59 16/60 20/61
f 23/62 22/63 21/64
f 25/65 22/66 23/67
f 25/68 24/69 22/70
f 26/71 25/72 23/73 28/74
f 27/75 24/76 25/77 26/78
f 2/79 3/80 9/81
f 2/82 9/83 14/84 19/85
f 3/86 5/87 9/88
f 3/89 6/90 26/91
f 3/92 26/93 28/94
f 1/95 3/96 4/97 28/98
f 1/99 5/100 3/101
g WingletR
f 39/102 34/103 45/104 40/105
f 39/106 40/107 41/108 38/109
f 38/110 41/111 47/112 30/113
f 37/114 42/115 43/116 36/117
f 36/118 43/119 44/120 35/121
f 48/122 29/123 35/124 44/125
f 32/126 29/127 48/128 46/129
f 30/130 31/131 38/132
f 31/133 34/134 38/135
f 34/136 39/137 38/138
f 33/139 37/140 36/141
f 29/142 36/143 35/144
f 29/145 33/146 36/147
f 40/148 45/149 41/150
f 41/151 45/152 47/153
f 42/154 47/155 48/156
f 42/157 48/158 43/159
f 43/160 48/161 44/162
f 51/163 49/164 50/165
f 53/166 51/167 50/168
f 53/169 50/170 52/171
f 54/172 56/173 51/174 53/175
f 55/176 54/177 53/178 52/179
f 30/180 37/181 31/182
f 30/183 47/184 42/185 37/186
f 31/187 37/188 33/189
f 31/190 54/191 34/192
f 31/193 56/194 54/195
f 29/196 56/197 32/198 31/199
f 29/200 31/201 33/202
